{
.appVersion = "1064";
copyright = "Copyright (c) 2014 by Matthieu Cortat. All rights reserved.";
customParameters = (
{
name = vendorID;
value = "";
},
{
name = panose;
value = (
2,
11,
3,
0,
3,
0,
4,
2,
0,
4
);
},
{
name = unicodeRanges;
value = (
0,
1
);
},
{
name = codePageRanges;
value = (
1252,
1254
);
},
{
name = glyphOrder;
value = (
.notdef,
uni0000,
uni000D,
space,
exclam,
quotedbl,
numbersign,
dollar,
percent,
ampersand,
quotesingle,
parenleft,
parenright,
asterisk,
plus,
comma,
hyphen,
period,
slash,
zero,
one,
two,
three,
four,
five,
six,
seven,
eight,
nine,
colon,
semicolon,
less,
equal,
greater,
question,
at,
A,
B,
C,
D,
E,
F,
G,
H,
I,
J,
K,
L,
M,
N,
O,
P,
Q,
R,
S,
T,
U,
V,
W,
X,
Y,
Z,
bracketleft,
backslash,
bracketright,
asciicircum,
underscore,
grave,
a,
b,
c,
d,
e,
f,
g,
h,
i,
j,
k,
l,
m,
n,
o,
p,
q,
r,
s,
t,
u,
v,
w,
x,
y,
z,
braceleft,
bar,
braceright,
asciitilde,
exclamdown,
cent,
sterling,
yen,
brokenbar,
section,
dieresis,
copyright,
ordfeminine,
guillemotleft,
logicalnot,
uni00AD,
registered,
macron,
degree,
plusminus,
twosuperior,
threesuperior,
acute,
mu,
paragraph,
periodcentered,
cedilla,
onesuperior,
ordmasculine,
guillemotright,
onequarter,
onehalf,
threequarters,
questiondown,
Agrave,
Aacute,
Acircumflex,
Atilde,
Adieresis,
Aring,
AE,
Ccedilla,
Egrave,
Eacute,
Ecircumflex,
Edieresis,
Igrave,
Iacute,
Icircumflex,
Idieresis,
Eth,
Ntilde,
Ograve,
Oacute,
Ocircumflex,
Otilde,
Odieresis,
multiply,
Oslash,
Ugrave,
Uacute,
Ucircumflex,
Udieresis,
Yacute,
Thorn,
germandbls,
agrave,
aacute,
acircumflex,
atilde,
adieresis,
aring,
ae,
ccedilla,
egrave,
eacute,
ecircumflex,
edieresis,
igrave,
iacute,
icircumflex,
idieresis,
eth,
ntilde,
ograve,
oacute,
ocircumflex,
otilde,
odieresis,
divide,
oslash,
ugrave,
uacute,
ucircumflex,
udieresis,
yacute,
thorn,
ydieresis,
Gbreve,
gbreve,
dotlessI,
dotlessi,
Lslash,
lslash,
OE,
oe,
Scedilla,
scedilla,
Scaron,
scaron,
Ydieresis,
Zcaron,
zcaron,
florin,
dotlessj,
circumflex,
caron,
breve,
dotaccent,
ring,

glyphs = (
{
glyphname = exclam;
lastChange = "2017-11-01 11:12:10 +0000";
layers = (
{
layerId = "7CDC14DA-6B60-4478-82C0-E8B54FD96B1C";
paths = (
{
closed = 1;
nodes = (
"109 167 LINE",
"139 167 LINE",
"155 714 LINE",
"93 714 LINE"
);
},
{
closed = 1;
nodes = (
"79 8 OFFCURVE",
"99 -10 OFFCURVE",
"124 -10 CURVE SMOOTH",
"149 -10 OFFCURVE",
"170 8 OFFCURVE",
"170 35 CURVE SMOOTH",
"170 66 OFFCURVE",
"149 81 OFFCURVE",
"124 81 CURVE SMOOTH",
"99 81 OFFCURVE",
"79 64 OFFCURVE",
"79 35 CURVE SMOOTH"
);
}
);
width = 250;
}
);
note = exclam;
unicode = 0021;
},
{
glyphname = quotedbl;
lastChange = "2017-11-01 11:12:10 +0000";
layers = (
{
layerId = "7CDC14DA-6B60-4478-82C0-E8B54FD96B1C";
paths = (
{
closed = 1;
nodes = (
"144 503 LINE",
"155 714 LINE",
"95 714 LINE",
"107 503 LINE"
);
},
{
closed = 1;
nodes = (
"293 503 LINE",
"304 714 LINE",
"244 714 LINE",
"256 503 LINE"
);
}
);
width = 400;
}
);
note = quotedbl;
unicode = 0022;
},
{
glyphname = numbersign;
lastChange = "2017-11-01 11:12:10 +0000";
layers = (
{
layerId = "7CDC14DA-6B60-4478-82C0-E8B54FD96B1C";
paths = (
{
closed = 1;
nodes = (
"213 446 LINE",
"178 265 LINE",
"28 265 LINE",
"28 219 LINE",
"169 219 LINE",
"128 0 LINE",
"175 0 LINE",
"216 219 LINE",
"381 219 LINE",
"340 0 LINE",
"387 0 LINE",
"428 219 LINE",
"590 219 LINE",
"590 265 LINE",
"437 265 LINE",
"472 446 LINE",
"626 446 LINE",
"626 492 LINE",
"481 492 LINE",
"523 714 LINE",
"476 714 LINE",
"434 492 LINE",
"269 492 LINE",
"311 714 LINE",
"264 714 LINE",
"222 492 LINE",
"64 492 LINE",
"64 446 LINE"
);
},
{
closed = 1;
nodes = (
"390 265 LINE",
"225 265 LINE",
"260 446 LINE",
"425 446 LINE"
);
}
);
width = 654;
}
);
note = numbersign;
unicode = 0023;
},
{
glyphname = dollar;
lastChange = "2017-11-01 11:12:10 +0000";
layers = (
{
layerId = "7CDC14DA-6B60-4478-82C0-E8B54FD96B1C";
paths = (
{
closed = 1;
nodes = (
"263 723 LINE",
"144 715 OFFCURVE",
"67 639 OFFCURVE",
"67 542 CURVE SMOOTH",
"67 457 OFFCURVE",
"108 411 OFFCURVE",
"205 371 CURVE SMOOTH",
"263 346 LINE",
"263 40 LINE",
"251 40 LINE SMOOTH",
"182 40 OFFCURVE",
"119 58 OFFCURVE",
"60 93 CURVE",
"53 34 LINE",
"114 5 OFFCURVE",
"179 -10 OFFCURVE",
"248 -10 CURVE SMOOTH",
"263 -10 LINE",
"263 -140 LINE",
"305 -140 LINE",
"305 -6 LINE",
"422 10 OFFCURVE",
"489 75 OFFCURVE",
"489 174 CURVE SMOOTH",
"489 264 OFFCURVE",
"443 328 OFFCURVE",
"351 365 CURVE SMOOTH",
"305 384 LINE",
"305 673 LINE",
"357 670 OFFCURVE",
"406 656 OFFCURVE",
"451 631 CURVE",
"463 686 LINE",
"412 709 OFFCURVE",
"359 721 OFFCURVE",
"305 723 CURVE",
"305 853 LINE",
"263 853 LINE"
);
},
{
closed = 1;
nodes = (
"119 611 OFFCURVE",
"174 665 OFFCURVE",
"263 673 CURVE",
"263 401 LINE",
"222 418 LINE SMOOTH",
"154 446 OFFCURVE",
"119 479 OFFCURVE",
"119 542 CURVE SMOOTH"
);
},
{
closed = 1;
nodes = (
"406 285 OFFCURVE",
"436 239 OFFCURVE",
"436 174 CURVE SMOOTH",
"436 106 OFFCURVE",
"390 57 OFFCURVE",
"305 44 CURVE",
"305 328 LINE",
"323 321 LINE"
);
}
);
width = 540;
}
);
note = dollar;
unicode = 0024;
},
{
glyphname = percent;
lastChange = "2017-11-01 11:12:10 +0000";
layers = (
{
layerId = "7CDC14DA-6B60-4478-82C0-E8B54FD96B1C";
paths = (
{
closed = 1;
nodes = (
"332 656 OFFCURVE",
"272 724 OFFCURVE",
"184 724 CURVE SMOOTH",
"96 724 OFFCURVE",
"36 656 OFFCURVE",
"36 521 CURVE SMOOTH",
"36 385 OFFCURVE",
"97 316 OFFCURVE",
"184 316 CURVE SMOOTH",
"271 316 OFFCURVE",
"332 385 OFFCURVE",
"332 521 CURVE SMOOTH"
);
},
{
closed = 1;
nodes = (
"239 373 OFFCURVE",
"214 360 OFFCURVE",
"184 360 CURVE SMOOTH",
"124 360 OFFCURVE",
"82 409 OFFCURVE",
"82 521 CURVE SMOOTH",
"82 633 OFFCURVE",
"124 680 OFFCURVE",
"185 680 CURVE SMOOTH",
"245 680 OFFCURVE",
"287 633 OFFCURVE",
"287 521 CURVE SMOOTH",
"287 465 OFFCURVE",
"277 424 OFFCURVE",
"258 399 CURVE SMOOTH"
);
},
{
closed = 1;
nodes = (
"554 714 LINE",
"249 0 LINE",
"299 0 LINE",
"604 714 LINE"
);
},
{
closed = 1;
nodes = (
"809 331 OFFCURVE",
"749 399 OFFCURVE",
"661 399 CURVE SMOOTH",
"573 399 OFFCURVE",
"513 331 OFFCURVE",
"513 196 CURVE SMOOTH",
"513 60 OFFCURVE",
"574 -9 OFFCURVE",
"661 -9 CURVE SMOOTH",
"748 -9 OFFCURVE",
"809 60 OFFCURVE",
"809 196 CURVE SMOOTH"
);
},
{
closed = 1;
nodes = (
"716 48 OFFCURVE",
"691 35 OFFCURVE",
"661 35 CURVE SMOOTH",
"601 35 OFFCURVE",
"559 84 OFFCURVE",
"559 196 CURVE SMOOTH",
"559 308 OFFCURVE",
"601 355 OFFCURVE",
"662 355 CURVE SMOOTH",
"722 355 OFFCURVE",
"764 308 OFFCURVE",
"764 196 CURVE SMOOTH",
"764 140 OFFCURVE",
"754 99 OFFCURVE",
"735 74 CURVE SMOOTH"
);
}
);
width = 845;
}
);
note = percent;
unicode = 0025;
},
{
glyphname = ampersand;
lastChange = "2017-11-01 11:12:10 +0000";
layers = (
{
layerId = "7CDC14DA-6B60-4478-82C0-E8B54FD96B1C";
paths = (
{
closed = 1;
nodes = (
"170 635 OFFCURVE",
"220 674 OFFCURVE",
"285 674 CURVE SMOOTH",
"357 674 OFFCURVE",
"404 630 OFFCURVE",
"404 567 CURVE SMOOTH",
"404 504 OFFCURVE",
"375 475 OFFCURVE",
"298 436 CURVE SMOOTH",
"264 419 LINE",
"234 448 LINE SMOOTH",
"191 489 OFFCURVE",
"170 528 OFFCURVE",
"170 566 CURVE SMOOTH"
);
},
{
closed = 1;
nodes = (
"176 40 OFFCURVE",
"105 99 OFFCURVE",
"105 188 CURVE SMOOTH",
"105 263 OFFCURVE",
"152 323 OFFCURVE",
"245 368 CURVE",
"487 138 LINE",
"426 73 OFFCURVE",
"356 40 OFFCURVE",
"276 40 CURVE SMOOTH"
);
},
{
closed = 1;
nodes = (
"50 71 OFFCURVE",
"140 -10 OFFCURVE",
"275 -10 CURVE SMOOTH",
"370 -10 OFFCURVE",
"452 29 OFFCURVE",
"521 106 CURVE",
"631 0 LINE",
"705 0 LINE",
"552 145 LINE",
"601 214 OFFCURVE",
"633 286 OFFCURVE",
"648 359 CURVE",
"592 359 LINE",
"580 299 OFFCURVE",
"554 239 OFFCURVE",
"515 180 CURVE",
"296 388 LINE",
"336 407 LINE SMOOTH",
"421 448 OFFCURVE",
"459 493 OFFCURVE",
"459 565 CURVE SMOOTH",
"459 654 OFFCURVE",
"386 724 OFFCURVE",
"285 724 CURVE SMOOTH",
"186 724 OFFCURVE",
"116 659 OFFCURVE",
"116 566 CURVE SMOOTH",
"116 516 OFFCURVE",
"139 469 OFFCURVE",
"186 424 CURVE SMOOTH",
"211 400 LINE",
"104 353 OFFCURVE",
"50 282 OFFCURVE",
"50 187 CURVE SMOOTH"
);
}
);
width = 717;
}
);
note = ampersand;
unicode = 0026;
},
{
glyphname = quotesingle;
lastChange = "2017-11-01 11:12:10 +0000";
layers = (
{
layerId = "7CDC14DA-6B60-4478-82C0-E8B54FD96B1C";
paths = (
{
closed = 1;
nodes = (
"144 503 LINE",
"155 714 LINE",
"95 714 LINE",
"107 503 LINE"
);
}
);
width = 250;
}
);
note = quotesingle;
unicode = 0027;
},
{
glyphname = parenleft;
lastChange = "2017-11-01 11:12:10 +0000";
layers = (
{
layerId = "7CDC14DA-6B60-4478-82C0-E8B54FD96B1C";
paths = (
{
closed = 1;
nodes = (
"115 609 OFFCURVE",
"60 452 OFFCURVE",
"60 271 CURVE SMOOTH",
"60 90 OFFCURVE",
"115 -67 OFFCURVE",
"224 -200 CURVE",
"270 -200 LINE",
"165 -61 OFFCURVE",
"112 96 OFFCURVE",
"112 271 CURVE SMOOTH",
"112 446 OFFCURVE",
"165 603 OFFCURVE",
"270 742 CURVE",
"224 742 LINE"
);
}
);
width = 282;
}
);
note = parenleft;
unicode = 0028;
},
{
glyphname = parenright;
lastChange = "2017-11-01 11:12:10 +0000";
layers = (
{
layerId = "7CDC14DA-6B60-4478-82C0-E8B54FD96B1C";
paths = (
{
closed = 1;
nodes = (
"167 -67 OFFCURVE",
"222 90 OFFCURVE",
"222 271 CURVE SMOOTH",
"222 452 OFFCURVE",
"167 609 OFFCURVE",
"58 742 CURVE",
"12 742 LINE",
"117 603 OFFCURVE",
"170 446 OFFCURVE",
"170 271 CURVE SMOOTH",
"170 96 OFFCURVE",
"117 -61 OFFCURVE",
"12 -200 CURVE",
"58 -200 LINE"
);
}
);
width = 282;
}
);
note = parenright;
unicode = 0029;
},
{
glyphname = asterisk;
lastChange = "2017-11-01 11:12:10 +0000";
layers = (
{
layerId = "7CDC14DA-6B60-4478-82C0-E8B54FD96B1C";
paths = (
{
closed = 1;
nodes = (
"466 280 LINE",
"322 456 LINE",
"542 514 LINE",
"524 568 LINE",
"312 486 LINE",
"324 714 LINE",
"267 714 LINE",
"281 486 LINE",
"68 568 LINE",
"50 514 LINE",
"270 457 LINE",
"126 280 LINE",
"172 246 LINE",
"296 435 LINE",
"420 246 LINE"
);
}
);
width = 592;
}
);
note = asterisk;
unicode = 002A;
},
{
glyphname = plus;
lastChange = "2017-11-01 11:12:10 +0000";
layers = (
{
layerId = "7CDC14DA-6B60-4478-82C0-E8B54FD96B1C";
paths = (
{
closed = 1;
nodes = (
"262 380 LINE",
"51 380 LINE",
"51 335 LINE",
"262 335 LINE",
"262 116 LINE",
"308 116 LINE",
"308 335 LINE",
"520 335 LINE",
"520 380 LINE",
"308 380 LINE",
"308 600 LINE",
"262 600 LINE"
);
}
);
width = 572;
}
);
note = plus;
unicode = 002B;
},
{
glyphname = comma;
lastChange = "2017-11-01 11:12:10 +0000";
layers = (
{
layerId = "7CDC14DA-6B60-4478-82C0-E8B54FD96B1C";
paths = (
{
closed = 1;
nodes = (
"101 -128 LINE",
"174 80 LINE",
"110 80 LINE",
"62 -128 LINE"
);
}
);
width = 250;
}
);
note = comma;
unicode = 002C;
},
{
glyphname = hyphen;
lastChange = "2017-11-01 11:12:10 +0000";
layers = (
{
layerId = "7CDC14DA-6B60-4478-82C0-E8B54FD96B1C";
paths = (
{
closed = 1;
nodes = (
"300 291 LINE",
"40 291 LINE",
"40 243 LINE",
"300 243 LINE"
);
}
);
width = 340;
}
);
note = hyphen;
unicode = 002D;
},
{
glyphname = period;
lastChange = "2017-11-01 11:12:10 +0000";
layers = (
{
layerId = "7CDC14DA-6B60-4478-82C0-E8B54FD96B1C";
paths = (
{
closed = 1;
nodes = (
"80 7 OFFCURVE",
"100 -11 OFFCURVE",
"125 -11 CURVE SMOOTH",
"150 -11 OFFCURVE",
"171 7 OFFCURVE",
"171 34 CURVE SMOOTH",
"171 63 OFFCURVE",
"150 80 OFFCURVE",
"125 80 CURVE SMOOTH",
"100 80 OFFCURVE",
"80 63 OFFCURVE",
"80 34 CURVE SMOOTH"
);
}
);
width = 250;
}
);
note = period;
unicode = 002E;
},
{
glyphname = slash;
lastChange = "2017-11-01 11:12:10 +0000";
layers = (
{
layerId = "7CDC14DA-6B60-4478-82C0-E8B54FD96B1C";
paths = (
{
closed = 1;
nodes = (
"323 714 LINE",
"18 0 LINE",
"68 0 LINE",
"373 714 LINE"
);
}
);
width = 391;
}
);
note = slash;
unicode = 002F;
},
{
glyphname = zero;
lastChange = "2017-11-01 11:12:10 +0000";
layers = (
{
layerId = "7CDC14DA-6B60-4478-82C0-E8B54FD96B1C";
paths = (
{
closed = 1;
nodes = (
"418 693 OFFCURVE",
"360 724 OFFCURVE",
"287 724 CURVE SMOOTH",
"139 724 OFFCURVE",
"52 599 OFFCURVE",
"52 358 CURVE SMOOTH",
"52 118 OFFCURVE",
"140 -10 OFFCURVE",
"287 -10 CURVE SMOOTH",
"434 -10 OFFCURVE",
"521 118 OFFCURVE",
"521 358 CURVE SMOOTH",
"521 478 OFFCURVE",
"500 569 OFFCURVE",
"459 631 CURVE SMOOTH"
);
},
{
closed = 1;
nodes = (
"470 142 OFFCURVE",
"400 40 OFFCURVE",
"287 40 CURVE SMOOTH",
"172 40 OFFCURVE",
"105 141 OFFCURVE",
"105 358 CURVE SMOOTH",
"105 575 OFFCURVE",
"173 674 OFFCURVE",
"288 674 CURVE SMOOTH",
"401 674 OFFCURVE",
"470 575 OFFCURVE",
"470 358 CURVE SMOOTH"
);
}
);
width = 572;
}
);
note = zero;
unicode = 0030;
},
{
glyphname = one;
lastChange = "2017-11-01 11:12:10 +0000";
layers = (
{
layerId = "7CDC14DA-6B60-4478-82C0-E8B54FD96B1C";
paths = (
{
closed = 1;
nodes = (
"119 546 LINE",
"147 506 LINE",
"205 549 LINE",
"339 654 LINE",
"339 0 LINE",
"387 0 LINE",
"387 714 LINE",
"347 714 LINE"
);
}
);
width = 572;
}
);
note = one;
unicode = 0031;
},
{
glyphname = two;
lastChange = "2017-11-01 11:12:10 +0000";
layers = (
{
layerId = "7CDC14DA-6B60-4478-82C0-E8B54FD96B1C";
paths = (
{
closed = 1;
nodes = (
"159 656 OFFCURVE",
"218 674 OFFCURVE",
"277 674 CURVE SMOOTH",
"373 674 OFFCURVE",
"433 617 OFFCURVE",
"433 525 CURVE SMOOTH",
"433 488 OFFCURVE",
"420 450 OFFCURVE",
"395 410 CURVE SMOOTH",
"370 370 OFFCURVE",
"323 315 OFFCURVE",
"256 245 CURVE SMOOTH",
"65 45 LINE",
"65 0 LINE",
"515 0 LINE",
"515 48 LINE",
"131 48 LINE",
"302 221 LINE SMOOTH",
"443 364 OFFCURVE",
"489 432 OFFCURVE",
"489 523 CURVE SMOOTH",
"489 643 OFFCURVE",
"401 724 OFFCURVE",
"277 724 CURVE SMOOTH",
"210 724 OFFCURVE",
"148 706 OFFCURVE",
"91 671 CURVE",
"99 620 LINE"
);
}
);
width = 572;
}
);
note = two;
unicode = 0032;
},
{
glyphname = three;
lastChange = "2017-11-01 11:12:10 +0000";
layers = (
{
layerId = "7CDC14DA-6B60-4478-82C0-E8B54FD96B1C";
paths = (
{
closed = 1;
nodes = (
"132 10 OFFCURVE",
"200 -10 OFFCURVE",
"273 -10 CURVE SMOOTH",
"417 -10 OFFCURVE",
"511 65 OFFCURVE",
"511 189 CURVE SMOOTH",
"511 288 OFFCURVE",
"440 364 OFFCURVE",
"331 377 CURVE",
"442 405 OFFCURVE",
"489 457 OFFCURVE",
"489 545 CURVE SMOOTH",
"489 650 OFFCURVE",
"396 724 OFFCURVE",
"276 724 CURVE SMOOTH",
"209 724 OFFCURVE",
"147 706 OFFCURVE",
"90 671 CURVE",
"98 621 LINE",
"159 656 OFFCURVE",
"218 674 OFFCURVE",
"275 674 CURVE SMOOTH",
"372 674 OFFCURVE",
"434 620 OFFCURVE",
"434 543 CURVE SMOOTH",
"434 460 OFFCURVE",
"360 399 OFFCURVE",
"217 399 CURVE SMOOTH",
"174 399 LINE",
"174 352 LINE",
"227 352 LINE SMOOTH",
"380 352 OFFCURVE",
"456 285 OFFCURVE",
"456 192 CURVE SMOOTH",
"456 100 OFFCURVE",
"392 40 OFFCURVE",
"273 40 CURVE SMOOTH",
"203 40 OFFCURVE",
"140 61 OFFCURVE",
"83 102 CURVE",
"69 51 LINE"
);
}
);
width = 572;
}
);
note = three;
unicode = 0033;
},
{
glyphname = four;
lastChange = "2017-11-01 11:12:10 +0000";
layers = (
{
layerId = "7CDC14DA-6B60-4478-82C0-E8B54FD96B1C";
paths = (
{
closed = 1;
nodes = (
"447 714 LINE",
"395 714 LINE",
"32 214 LINE",
"32 172 LINE",
"398 172 LINE",
"398 0 LINE",
"447 0 LINE",
"447 172 LINE",
"554 172 LINE",
"554 221 LINE",
"447 221 LINE"
);
},
{
closed = 1;
nodes = (
"398 645 LINE",
"398 221 LINE",
"98 221 LINE",
"258 444 LINE"
);
}
);
width = 572;
}
);
note = four;
unicode = 0034;
},
{
glyphname = five;
lastChange = "2017-11-01 11:12:10 +0000";
layers = (
{
layerId = "7CDC14DA-6B60-4478-82C0-E8B54FD96B1C";
paths = (
{
closed = 1;
nodes = (
"127 7 OFFCURVE",
"194 -10 OFFCURVE",
"269 -10 CURVE SMOOTH",
"422 -10 OFFCURVE",
"519 92 OFFCURVE",
"519 223 CURVE SMOOTH",
"519 358 OFFCURVE",
"420 449 OFFCURVE",
"265 449 CURVE SMOOTH",
"230 449 OFFCURVE",
"191 443 OFFCURVE",
"146 430 CURVE",
"165 666 LINE",
"451 666 LINE",
"459 714 LINE",
"124 714 LINE",
"96 372 LINE",
"152 391 OFFCURVE",
"206 400 OFFCURVE",
"258 400 CURVE SMOOTH",
"386 400 OFFCURVE",
"464 330 OFFCURVE",
"464 225 CURVE SMOOTH",
"464 116 OFFCURVE",
"393 39 OFFCURVE",
"269 39 CURVE SMOOTH",
"200 39 OFFCURVE",
"137 57 OFFCURVE",
"79 94 CURVE",
"68 41 LINE"
);
}
);
width = 572;
}
);
note = five;
unicode = 0035;
},
{
glyphname = six;
lastChange = "2017-11-01 11:12:10 +0000";
layers = (
{
layerId = "7CDC14DA-6B60-4478-82C0-E8B54FD96B1C";
paths = (
{
closed = 1;
nodes = (
"446 716 OFFCURVE",
"400 724 OFFCURVE",
"354 724 CURVE SMOOTH",
"183 724 OFFCURVE",
"66 577 OFFCURVE",
"66 317 CURVE SMOOTH",
"66 209 OFFCURVE",
"85 129 OFFCURVE",
"123 76 CURVE SMOOTH",
"162 23 OFFCURVE",
"230 -10 OFFCURVE",
"306 -10 CURVE SMOOTH",
"434 -10 OFFCURVE",
"530 92 OFFCURVE",
"530 220 CURVE SMOOTH",
"530 349 OFFCURVE",
"430 447 OFFCURVE",
"306 447 CURVE SMOOTH",
"216 447 OFFCURVE",
"154 407 OFFCURVE",
"119 328 CURVE",
"120 557 OFFCURVE",
"217 674 OFFCURVE",
"354 674 CURVE SMOOTH",
"396 674 OFFCURVE",
"440 664 OFFCURVE",
"485 645 CURVE",
"493 699 LINE"
);
},
{
closed = 1;
nodes = (
"125 324 OFFCURVE",
"198 395 OFFCURVE",
"302 395 CURVE SMOOTH",
"406 395 OFFCURVE",
"476 321 OFFCURVE",
"476 221 CURVE SMOOTH",
"476 118 OFFCURVE",
"410 39 OFFCURVE",
"305 39 CURVE SMOOTH",
"194 39 OFFCURVE",
"125 120 OFFCURVE",
"125 224 CURVE SMOOTH"
);
}
);
width = 572;
}
);
note = six;
unicode = 0036;
},
{
glyphname = seven;
lastChange = "2017-11-01 11:12:10 +0000";
layers = (
{
layerId = "7CDC14DA-6B60-4478-82C0-E8B54FD96B1C";
paths = (
{
closed = 1;
nodes = (
"521 714 LINE",
"59 714 LINE",
"59 665 LINE",
"473 665 LINE",
"364 435 LINE",
"162 0 LINE",
"224 0 LINE",
"521 677 LINE"
);
}
);
width = 572;
}
);
note = seven;
unicode = 0037;
},
{
glyphname = eight;
lastChange = "2017-11-01 11:12:10 +0000";
layers = (
{
layerId = "7CDC14DA-6B60-4478-82C0-E8B54FD96B1C";
paths = (
{
closed = 1;
nodes = (
"62 69 OFFCURVE",
"150 -11 OFFCURVE",
"289 -11 CURVE SMOOTH",
"422 -11 OFFCURVE",
"513 71 OFFCURVE",
"513 178 CURVE SMOOTH",
"513 266 OFFCURVE",
"460 320 OFFCURVE",
"365 364 CURVE SMOOTH",
"337 377 LINE",
"440 417 OFFCURVE",
"485 465 OFFCURVE",
"485 548 CURVE SMOOTH",
"485 649 OFFCURVE",
"401 724 OFFCURVE",
"285 724 CURVE SMOOTH",
"173 724 OFFCURVE",
"86 648 OFFCURVE",
"86 548 CURVE SMOOTH",
"86 476 OFFCURVE",
"122 423 OFFCURVE",
"219 380 CURVE",
"114 339 OFFCURVE",
"62 272 OFFCURVE",
"62 180 CURVE SMOOTH"
);
},
{
closed = 1;
nodes = (
"422 284 OFFCURVE",
"459 244 OFFCURVE",
"459 179 CURVE SMOOTH",
"459 99 OFFCURVE",
"390 39 OFFCURVE",
"289 39 CURVE SMOOTH",
"184 39 OFFCURVE",
"116 99 OFFCURVE",
"116 183 CURVE SMOOTH",
"116 260 OFFCURVE",
"166 318 OFFCURVE",
"266 357 CURVE",
"339 323 LINE SMOOTH"
);
},
{
closed = 1;
nodes = (
"139 620 OFFCURVE",
"197 674 OFFCURVE",
"285 674 CURVE SMOOTH",
"373 674 OFFCURVE",
"432 623 OFFCURVE",
"432 548 CURVE SMOOTH",
"432 484 OFFCURVE",
"390 439 OFFCURVE",
"290 400 CURVE",
"239 423 LINE SMOOTH",
"168 455 OFFCURVE",
"139 492 OFFCURVE",
"139 548 CURVE SMOOTH"
);
}
);
width = 572;
}
);
note = eight;
unicode = 0038;
},
{
glyphname = nine;
lastChange = "2017-11-01 11:12:10 +0000";
layers = (
{
layerId = "7CDC14DA-6B60-4478-82C0-E8B54FD96B1C";
paths = (
{
closed = 1;
nodes = (
"126 -2 OFFCURVE",
"172 -10 OFFCURVE",
"218 -10 CURVE SMOOTH",
"395 -10 OFFCURVE",
"506 128 OFFCURVE",
"506 397 CURVE SMOOTH",
"506 504 OFFCURVE",
"487 585 OFFCURVE",
"448 638 CURVE SMOOTH",
"409 691 OFFCURVE",
"342 724 OFFCURVE",
"266 724 CURVE SMOOTH",
"138 724 OFFCURVE",
"42 622 OFFCURVE",
"42 494 CURVE SMOOTH",
"42 365 OFFCURVE",
"142 267 OFFCURVE",
"266 267 CURVE SMOOTH",
"356 267 OFFCURVE",
"418 307 OFFCURVE",
"453 386 CURVE",
"452 267 OFFCURVE",
"428 177 OFFCURVE",
"381 114 CURVE SMOOTH",
"348 70 OFFCURVE",
"287 40 OFFCURVE",
"218 40 CURVE SMOOTH",
"176 40 OFFCURVE",
"132 50 OFFCURVE",
"87 69 CURVE",
"79 15 LINE"
);
},
{
closed = 1;
nodes = (
"447 390 OFFCURVE",
"374 319 OFFCURVE",
"270 319 CURVE SMOOTH",
"166 319 OFFCURVE",
"96 393 OFFCURVE",
"96 493 CURVE SMOOTH",
"96 596 OFFCURVE",
"162 675 OFFCURVE",
"267 675 CURVE SMOOTH",
"378 675 OFFCURVE",
"447 594 OFFCURVE",
"447 490 CURVE SMOOTH"
);
}
);
width = 572;
}
);
note = nine;
unicode = 0039;
},
{
glyphname = colon;
lastChange = "2017-11-01 11:12:10 +0000";
layers = (
{
layerId = "7CDC14DA-6B60-4478-82C0-E8B54FD96B1C";
paths = (
{
closed = 1;
nodes = (
"80 7 OFFCURVE",
"100 -11 OFFCURVE",
"125 -11 CURVE SMOOTH",
"150 -11 OFFCURVE",
"171 7 OFFCURVE",
"171 34 CURVE SMOOTH",
"171 63 OFFCURVE",
"150 80 OFFCURVE",
"125 80 CURVE SMOOTH",
"100 80 OFFCURVE",
"80 63 OFFCURVE",
"80 34 CURVE SMOOTH"
);
},
{
closed = 1;
nodes = (
"80 489 OFFCURVE",
"100 471 OFFCURVE",
"125 471 CURVE SMOOTH",
"150 471 OFFCURVE",
"171 489 OFFCURVE",
"171 516 CURVE SMOOTH",
"171 545 OFFCURVE",
"150 562 OFFCURVE",
"125 562 CURVE SMOOTH",
"100 562 OFFCURVE",
"80 545 OFFCURVE",
"80 516 CURVE SMOOTH"
);
}
);
width = 250;
}
);
note = colon;
unicode = 003A;
},
{
glyphname = semicolon;
lastChange = "2017-11-01 11:12:10 +0000";
layers = (
{
layerId = "7CDC14DA-6B60-4478-82C0-E8B54FD96B1C";
paths = (
{
closed = 1;
nodes = (
"101 -128 LINE",
"174 80 LINE",
"110 80 LINE",
"62 -128 LINE"
);
},
{
closed = 1;
nodes = (
"88 489 OFFCURVE",
"108 471 OFFCURVE",
"133 471 CURVE SMOOTH",
"158 471 OFFCURVE",
"179 489 OFFCURVE",
"179 516 CURVE SMOOTH",
"179 545 OFFCURVE",
"158 562 OFFCURVE",
"133 562 CURVE SMOOTH",
"108 562 OFFCURVE",
"88 545 OFFCURVE",
"88 516 CURVE SMOOTH"
);
}
);
width = 250;
}
);
note = semicolon;
unicode = 003B;
},
{
glyphname = less;
lastChange = "2017-11-01 11:12:10 +0000";
layers = (
{
layerId = "7CDC14DA-6B60-4478-82C0-E8B54FD96B1C";
paths = (
{
closed = 1;
nodes = (
"520 188 LINE",
"114 359 LINE",
"520 529 LINE",
"520 584 LINE",
"51 376 LINE",
"51 340 LINE",
"520 133 LINE"
);
}
);
width = 572;
}
);
note = less;
unicode = 003C;
},
{
glyphname = equal;
lastChange = "2017-11-01 11:12:10 +0000";
layers = (
{
layerId = "7CDC14DA-6B60-4478-82C0-E8B54FD96B1C";
paths = (
{
closed = 1;
nodes = (
"520 435 LINE",
"520 480 LINE",
"51 480 LINE",
"51 435 LINE"
);
},
{
closed = 1;
nodes = (
"520 235 LINE",
"520 280 LINE",
"51 280 LINE",
"51 235 LINE"
);
}
);
width = 572;
}
);
note = equal;
unicode = 003D;
},
{
glyphname = greater;
lastChange = "2017-11-01 11:12:10 +0000";
layers = (
{
layerId = "7CDC14DA-6B60-4478-82C0-E8B54FD96B1C";
paths = (
{
closed = 1;
nodes = (
"51 529 LINE",
"457 359 LINE",
"51 188 LINE",
"51 133 LINE",
"520 340 LINE",
"520 376 LINE",
"51 584 LINE"
);
}
);
width = 572;
}
);
note = greater;
unicode = 003E;
},
{
glyphname = question;
lastChange = "2017-11-01 11:12:10 +0000";
layers = (
{
layerId = "7CDC14DA-6B60-4478-82C0-E8B54FD96B1C";
paths = (
{
closed = 1;
nodes = (
"395 645 OFFCURVE",
"315 724 OFFCURVE",
"188 724 CURVE SMOOTH",
"130 724 OFFCURVE",
"73 708 OFFCURVE",
"18 677 CURVE",
"29 626 LINE",
"80 657 OFFCURVE",
"132 673 OFFCURVE",
"187 673 CURVE SMOOTH",
"290 673 OFFCURVE",
"344 621 OFFCURVE",
"344 546 CURVE SMOOTH",
"344 501 OFFCURVE",
"320 457 OFFCURVE",
"273 412 CURVE SMOOTH",
"199 341 LINE SMOOTH",
"159 302 OFFCURVE",
"139 265 OFFCURVE",
"139 228 CURVE SMOOTH",
"139 202 OFFCURVE",
"146 178 OFFCURVE",
"160 157 CURVE",
"192 157 LINE",
"185 179 OFFCURVE",
"181 198 OFFCURVE",
"181 214 CURVE SMOOTH",
"181 245 OFFCURVE",
"198 277 OFFCURVE",
"232 308 CURVE SMOOTH",
"316 385 LINE SMOOTH",
"373 438 OFFCURVE",
"395 484 OFFCURVE",
"395 545 CURVE SMOOTH"
);
},
{
closed = 1;
nodes = (
"132 8 OFFCURVE",
"152 -10 OFFCURVE",
"177 -10 CURVE SMOOTH",
"202 -10 OFFCURVE",
"223 8 OFFCURVE",
"223 35 CURVE SMOOTH",
"223 66 OFFCURVE",
"202 81 OFFCURVE",
"177 81 CURVE SMOOTH",
"152 81 OFFCURVE",
"132 64 OFFCURVE",
"132 35 CURVE SMOOTH"
);
}
);
width = 424;
}
);
note = question;
unicode = 003F;
},
{
glyphname = at;
lastChange = "2017-11-01 11:12:10 +0000";
layers = (
{
layerId = "7CDC14DA-6B60-4478-82C0-E8B54FD96B1C";
paths = (
{
closed = 1;
nodes = (
"905 562 OFFCURVE",
"747 725 OFFCURVE",
"524 725 CURVE SMOOTH",
"256 725 OFFCURVE",
"66 541 OFFCURVE",
"66 266 CURVE SMOOTH",
"66 14 OFFCURVE",
"221 -138 OFFCURVE",
"476 -138 CURVE SMOOTH",
"554 -138 OFFCURVE",
"631 -124 OFFCURVE",
"706 -96 CURVE",
"701 -46 LINE",
"630 -74 OFFCURVE",
"555 -88 OFFCURVE",
"476 -88 CURVE SMOOTH",
"255 -88 OFFCURVE",
"121 47 OFFCURVE",
"121 266 CURVE SMOOTH",
"121 517 OFFCURVE",
"284 675 OFFCURVE",
"525 675 CURVE SMOOTH",
"717 675 OFFCURVE",
"850 541 OFFCURVE",
"850 342 CURVE SMOOTH",
"850 213 OFFCURVE",
"806 127 OFFCURVE",
"733 127 CURVE SMOOTH",
"673 127 OFFCURVE",
"646 160 OFFCURVE",
"646 251 CURVE SMOOTH",
"646 293 OFFCURVE",
"651 372 OFFCURVE",
"660 488 CURVE",
"605 502 OFFCURVE",
"557 509 OFFCURVE",
"516 509 CURVE SMOOTH",
"383 509 OFFCURVE",
"291 410 OFFCURVE",
"291 271 CURVE SMOOTH",
"291 151 OFFCURVE",
"355 79 OFFCURVE",
"447 79 CURVE SMOOTH",
"519 79 OFFCURVE",
"571 114 OFFCURVE",
"602 183 CURVE",
"618 114 OFFCURVE",
"662 79 OFFCURVE",
"733 79 CURVE SMOOTH",
"833 79 OFFCURVE",
"905 174 OFFCURVE",
"905 341 CURVE SMOOTH"
);
},
{
closed = 1;
nodes = (
"345 384 OFFCURVE",
"414 461 OFFCURVE",
"513 461 CURVE SMOOTH",
"543 461 OFFCURVE",
"575 457 OFFCURVE",
"609 449 CURVE",
"599 301 LINE SMOOTH",
"591 192 OFFCURVE",
"533 127 OFFCURVE",
"453 127 CURVE SMOOTH",
"385 127 OFFCURVE",
"345 175 OFFCURVE",
"345 271 CURVE SMOOTH"
);
}
);
width = 961;
}
);
note = at;
unicode = 0040;
},
{
glyphname = A;
lastChange = "2017-11-01 11:12:10 +0000";
layers = (
{
layerId = "7CDC14DA-6B60-4478-82C0-E8B54FD96B1C";
paths = (
{
closed = 1;
nodes = (
"493 195 LINE",
"569 0 LINE",
"626 0 LINE",
"339 714 LINE",
"300 714 LINE",
"12 0 LINE",
"66 0 LINE",
"144 195 LINE"
);
},
{
closed = 1;
nodes = (
"162 243 LINE",
"230 415 LINE",
"320 640 LINE",
"409 414 LINE",
"474 243 LINE"
);
}
);
width = 638;
}
);
note = A;
unicode = 0041;
},
{
glyphname = B;
lastChange = "2017-11-01 11:12:10 +0000";
layers = (
{
layerId = "7CDC14DA-6B60-4478-82C0-E8B54FD96B1C";
paths = (
{
closed = 1;
nodes = (
"451 0 OFFCURVE",
"541 73 OFFCURVE",
"541 197 CURVE SMOOTH",
"541 294 OFFCURVE",
"485 359 OFFCURVE",
"384 376 CURVE",
"471 394 OFFCURVE",
"514 447 OFFCURVE",
"514 536 CURVE SMOOTH",
"514 637 OFFCURVE",
"438 714 OFFCURVE",
"294 714 CURVE SMOOTH",
"104 714 LINE",
"104 0 LINE",
"298 0 LINE SMOOTH"
);
},
{
closed = 1;
nodes = (
"292 666 LINE SMOOTH",
"405 666 OFFCURVE",
"462 621 OFFCURVE",
"462 531 CURVE SMOOTH",
"462 443 OFFCURVE",
"404 399 OFFCURVE",
"289 399 CURVE SMOOTH",
"259 399 LINE",
"259 351 LINE",
"290 351 LINE SMOOTH",
"421 351 OFFCURVE",
"487 300 OFFCURVE",
"487 198 CURVE SMOOTH",
"487 98 OFFCURVE",
"420 48 OFFCURVE",
"287 48 CURVE SMOOTH",
"154 48 LINE",
"154 666 LINE"
);
}
);
width = 603;
}
);
note = B;
unicode = 0042;
},
{
glyphname = C;
lastChange = "2017-11-01 11:12:10 +0000";
layers = (
{
layerId = "7CDC14DA-6B60-4478-82C0-E8B54FD96B1C";
paths = (
{
closed = 1;
nodes = (
"480 -10 OFFCURVE",
"541 0 OFFCURVE",
"590 21 CURVE",
"583 75 LINE",
"530 52 OFFCURVE",
"474 40 OFFCURVE",
"414 40 CURVE SMOOTH",
"246 40 OFFCURVE",
"119 158 OFFCURVE",
"119 354 CURVE SMOOTH",
"119 563 OFFCURVE",
"236 674 OFFCURVE",
"412 674 CURVE SMOOTH",
"470 674 OFFCURVE",
"524 663 OFFCURVE",
"574 642 CURVE",
"581 698 LINE",
"532 715 OFFCURVE",
"475 724 OFFCURVE",
"411 724 CURVE SMOOTH",
"206 724 OFFCURVE",
"65 581 OFFCURVE",
"65 356 CURVE SMOOTH",
"65 132 OFFCURVE",
"216 -10 OFFCURVE",
"409 -10 CURVE SMOOTH"
);
}
);
width = 630;
}
);
note = C;
unicode = 0043;
},
{
glyphname = D;
lastChange = "2017-11-01 11:12:10 +0000";
layers = (
{
layerId = "7CDC14DA-6B60-4478-82C0-E8B54FD96B1C";
paths = (
{
closed = 1;
nodes = (
"278 0 LINE SMOOTH",
"487 0 OFFCURVE",
"630 135 OFFCURVE",
"630 356 CURVE SMOOTH",
"630 577 OFFCURVE",
"500 714 OFFCURVE",
"296 714 CURVE SMOOTH",
"105 714 LINE",
"105 0 LINE"
);
},
{
closed = 1;
nodes = (
"469 668 OFFCURVE",
"576 559 OFFCURVE",
"576 354 CURVE SMOOTH",
"576 159 OFFCURVE",
"458 46 OFFCURVE",
"278 46 CURVE SMOOTH",
"154 46 LINE",
"154 668 LINE",
"294 668 LINE SMOOTH"
);
}
);
width = 695;
}
);
note = D;
unicode = 0044;
},
{
glyphname = E;
lastChange = "2017-11-01 11:12:10 +0000";
layers = (
{
layerId = "7CDC14DA-6B60-4478-82C0-E8B54FD96B1C";
paths = (
{
closed = 1;
nodes = (
"154 351 LINE",
"451 351 LINE",
"451 399 LINE",
"154 399 LINE",
"154 666 LINE",
"471 666 LINE",
"471 714 LINE",
"105 714 LINE",
"105 0 LINE",
"481 0 LINE",
"481 48 LINE",
"154 48 LINE"
);
}
);
width = 553;
}
);
note = E;
unicode = 0045;
},
{
glyphname = F;
lastChange = "2017-11-01 11:12:10 +0000";
layers = (
{
layerId = "7CDC14DA-6B60-4478-82C0-E8B54FD96B1C";
paths = (
{
closed = 1;
nodes = (
"441 399 LINE",
"154 399 LINE",
"154 666 LINE",
"481 666 LINE",
"481 714 LINE",
"105 714 LINE",
"105 0 LINE",
"154 0 LINE",
"154 351 LINE",
"441 351 LINE"
);
}
);
width = 511;
}
);
note = F;
unicode = 0046;
},
{
glyphname = G;
lastChange = "2017-11-01 11:12:10 +0000";
layers = (
{
layerId = "7CDC14DA-6B60-4478-82C0-E8B54FD96B1C";
paths = (
{
closed = 1;
nodes = (
"420 302 LINE",
"578 302 LINE",
"578 55 LINE",
"533 45 OFFCURVE",
"488 40 OFFCURVE",
"444 40 CURVE SMOOTH",
"248 40 OFFCURVE",
"119 154 OFFCURVE",
"119 354 CURVE SMOOTH",
"119 563 OFFCURVE",
"237 674 OFFCURVE",
"412 674 CURVE SMOOTH",
"467 674 OFFCURVE",
"521 663 OFFCURVE",
"574 642 CURVE",
"581 698 LINE",
"532 715 OFFCURVE",
"476 724 OFFCURVE",
"411 724 CURVE SMOOTH",
"210 724 OFFCURVE",
"65 580 OFFCURVE",
"65 356 CURVE SMOOTH",
"65 129 OFFCURVE",
"217 -10 OFFCURVE",
"444 -10 CURVE SMOOTH",
"504 -10 OFFCURVE",
"565 -1 OFFCURVE",
"626 17 CURVE",
"626 350 LINE",
"420 350 LINE"
);
}
);
width = 715;
}
);
note = G;
unicode = 0047;
},
{
glyphname = H;
lastChange = "2017-11-01 11:12:10 +0000";
layers = (
{
layerId = "7CDC14DA-6B60-4478-82C0-E8B54FD96B1C";
paths = (
{
closed = 1;
nodes = (
"562 398 LINE",
"154 398 LINE",
"154 714 LINE",
"104 714 LINE",
"104 0 LINE",
"154 0 LINE",
"154 350 LINE",
"562 350 LINE",
"562 0 LINE",
"612 0 LINE",
"612 714 LINE",
"562 714 LINE"
);
}
);
width = 716;
}
);
note = H;
unicode = 0048;
},
{
glyphname = I;
lastChange = "2017-11-01 11:12:10 +0000";
layers = (
{
layerId = "7CDC14DA-6B60-4478-82C0-E8B54FD96B1C";
paths = (
{
closed = 1;
nodes = (
"105 714 LINE",
"105 0 LINE",
"154 0 LINE",
"154 714 LINE"
);
}
);
width = 259;
}
);
note = I;
unicode = 0049;
},
{
glyphname = J;
lastChange = "2017-11-01 11:12:10 +0000";
layers = (
{
layerId = "7CDC14DA-6B60-4478-82C0-E8B54FD96B1C";
paths = (
{
closed = 1;
nodes = (
"282 235 LINE SMOOTH",
"282 116 OFFCURVE",
"209 40 OFFCURVE",
"97 40 CURVE SMOOTH",
"81 40 OFFCURVE",
"65 42 OFFCURVE",
"48 45 CURVE",
"46 -5 LINE",
"63 -8 OFFCURVE",
"78 -10 OFFCURVE",
"93 -10 CURVE SMOOTH",
"241 -10 OFFCURVE",
"332 84 OFFCURVE",
"332 240 CURVE SMOOTH",
"332 714 LINE",
"52 714 LINE",
"52 666 LINE",
"282 666 LINE"
);
}
);
width = 424;
}
);
note = J;
unicode = 004A;
},
{
glyphname = K;
lastChange = "2017-11-01 11:12:10 +0000";
layers = (
{
layerId = "7CDC14DA-6B60-4478-82C0-E8B54FD96B1C";
paths = (
{
closed = 1;
nodes = (
"104 0 LINE",
"153 0 LINE",
"153 714 LINE",
"104 714 LINE"
);
},
{
closed = 1;
nodes = (
"269 394 LINE",
"567 714 LINE",
"503 714 LINE",
"204 396 LINE",
"515 0 LINE",
"580 0 LINE"
);
}
);
width = 592;
}
);
note = K;
unicode = 004B;
},
{
glyphname = L;
lastChange = "2017-11-01 11:12:10 +0000";
layers = (
{
layerId = "7CDC14DA-6B60-4478-82C0-E8B54FD96B1C";
paths = (
{
closed = 1;
nodes = (
"154 49 LINE",
"154 714 LINE",
"105 714 LINE",
"105 0 LINE",
"481 0 LINE",
"481 49 LINE"
);
}
);
width = 515;
}
);
note = L;
unicode = 004C;
},
{
glyphname = M;
lastChange = "2017-11-01 11:12:10 +0000";
layers = (
{
layerId = "7CDC14DA-6B60-4478-82C0-E8B54FD96B1C";
paths = (
{
closed = 1;
nodes = (
"608 152 LINE",
"608 0 LINE",
"658 0 LINE",
"658 714 LINE",
"606 714 LINE",
"379 270 LINE",
"154 714 LINE",
"104 714 LINE",
"104 0 LINE",
"151 0 LINE",
"151 146 LINE",
"148 616 LINE",
"355 208 LINE",
"399 208 LINE",
"611 616 LINE"
);
}
);
width = 762;
}
);
note = M;
unicode = 004D;
},
{
glyphname = N;
lastChange = "2017-11-01 11:12:10 +0000";
layers = (
{
layerId = "7CDC14DA-6B60-4478-82C0-E8B54FD96B1C";
paths = (
{
closed = 1;
nodes = (
"604 714 LINE",
"604 408 LINE",
"607 100 LINE",
"150 714 LINE",
"104 714 LINE",
"104 0 LINE",
"151 0 LINE",
"151 367 LINE",
"148 632 LINE",
"620 0 LINE",
"651 0 LINE",
"651 714 LINE"
);
}
);
width = 755;
}
);
note = N;
unicode = 004E;
},
{
glyphname = O;
lastChange = "2017-11-01 11:12:10 +0000";
layers = (
{
layerId = "7CDC14DA-6B60-4478-82C0-E8B54FD96B1C";
paths = (
{
closed = 1;
nodes = (
"710 566 OFFCURVE",
"582 724 OFFCURVE",
"387 724 CURVE SMOOTH",
"190 724 OFFCURVE",
"65 578 OFFCURVE",
"65 357 CURVE SMOOTH",
"65 148 OFFCURVE",
"193 -10 OFFCURVE",
"388 -10 CURVE SMOOTH",
"585 -10 OFFCURVE",
"710 136 OFFCURVE",
"710 357 CURVE SMOOTH"
);
},
{
closed = 1;
nodes = (
"656 163 OFFCURVE",
"553 40 OFFCURVE",
"392 40 CURVE SMOOTH",
"232 40 OFFCURVE",
"119 167 OFFCURVE",
"119 354 CURVE SMOOTH",
"119 551 OFFCURVE",
"222 674 OFFCURVE",
"383 674 CURVE SMOOTH",
"543 674 OFFCURVE",
"656 547 OFFCURVE",
"656 360 CURVE SMOOTH"
);
}
);
width = 775;
}
);
note = O;
unicode = 004F;
},
{
glyphname = P;
lastChange = "2017-11-01 11:12:10 +0000";
layers = (
{
layerId = "7CDC14DA-6B60-4478-82C0-E8B54FD96B1C";
paths = (
{
closed = 1;
nodes = (
"442 295 OFFCURVE",
"539 366 OFFCURVE",
"539 505 CURVE SMOOTH",
"539 633 OFFCURVE",
"450 714 OFFCURVE",
"291 714 CURVE SMOOTH",
"105 714 LINE",
"105 0 LINE",
"154 0 LINE",
"154 295 LINE",
"274 295 LINE SMOOTH"
);
},
{
closed = 1;
nodes = (
"415 666 OFFCURVE",
"486 607 OFFCURVE",
"486 506 CURVE SMOOTH",
"486 399 OFFCURVE",
"411 342 OFFCURVE",
"276 342 CURVE SMOOTH",
"154 342 LINE",
"154 666 LINE",
"287 666 LINE SMOOTH"
);
}
);
width = 591;
}
);
note = P;
unicode = 0050;
},
{
glyphname = Q;
lastChange = "2017-11-01 11:12:10 +0000";
layers = (
{
layerId = "7CDC14DA-6B60-4478-82C0-E8B54FD96B1C";
paths = (
{
closed = 1;
nodes = (
"710 566 OFFCURVE",
"582 724 OFFCURVE",
"387 724 CURVE SMOOTH",
"190 724 OFFCURVE",
"65 578 OFFCURVE",
"65 357 CURVE SMOOTH",
"65 148 OFFCURVE",
"193 -10 OFFCURVE",
"388 -10 CURVE SMOOTH",
"467 -10 OFFCURVE",
"534 12 OFFCURVE",
"588 57 CURVE",
"640 0 LINE",
"706 0 LINE",
"623 91 LINE",
"681 157 OFFCURVE",
"710 246 OFFCURVE",
"710 357 CURVE SMOOTH"
);
},
{
closed = 1;
nodes = (
"510 58 OFFCURVE",
"456 40 OFFCURVE",
"392 40 CURVE SMOOTH",
"232 40 OFFCURVE",
"119 167 OFFCURVE",
"119 354 CURVE SMOOTH",
"119 551 OFFCURVE",
"222 674 OFFCURVE",
"383 674 CURVE SMOOTH",
"543 674 OFFCURVE",
"656 547 OFFCURVE",
"656 360 CURVE SMOOTH",
"656 265 OFFCURVE",
"633 188 OFFCURVE",
"588 130 CURVE",
"449 283 LINE",
"383 283 LINE",
"554 95 LINE"
);
}
);
width = 775;
}
);
note = Q;
unicode = 0051;
},
{
glyphname = R;
lastChange = "2017-11-01 11:12:10 +0000";
layers = (
{
layerId = "7CDC14DA-6B60-4478-82C0-E8B54FD96B1C";
paths = (
{
closed = 1;
nodes = (
"485 333 OFFCURVE",
"538 399 OFFCURVE",
"538 505 CURVE SMOOTH",
"538 633 OFFCURVE",
"449 714 OFFCURVE",
"290 714 CURVE SMOOTH",
"104 714 LINE",
"104 0 LINE",
"153 0 LINE",
"153 295 LINE",
"273 295 LINE SMOOTH",
"293 295 OFFCURVE",
"313 296 OFFCURVE",
"332 298 CURVE",
"516 0 LINE",
"577 0 LINE",
"379 307 LINE"
);
},
{
closed = 1;
nodes = (
"414 666 OFFCURVE",
"485 607 OFFCURVE",
"485 506 CURVE SMOOTH",
"485 399 OFFCURVE",
"410 342 OFFCURVE",
"275 342 CURVE SMOOTH",
"153 342 LINE",
"153 666 LINE",
"286 666 LINE SMOOTH"
);
}
);
width = 613;
}
);
note = R;
unicode = 0052;
},
{
glyphname = S;
lastChange = "2017-11-01 11:12:10 +0000";
layers = (
{
layerId = "7CDC14DA-6B60-4478-82C0-E8B54FD96B1C";
paths = (
{
closed = 1;
nodes = (
"489 264 OFFCURVE",
"443 328 OFFCURVE",
"351 365 CURVE SMOOTH",
"222 418 LINE SMOOTH",
"154 446 OFFCURVE",
"119 479 OFFCURVE",
"119 542 CURVE SMOOTH",
"119 618 OFFCURVE",
"182 674 OFFCURVE",
"285 674 CURVE SMOOTH",
"342 674 OFFCURVE",
"398 660 OFFCURVE",
"451 631 CURVE",
"463 686 LINE",
"406 711 OFFCURVE",
"347 724 OFFCURVE",
"284 724 CURVE SMOOTH",
"155 724 OFFCURVE",
"67 646 OFFCURVE",
"67 542 CURVE SMOOTH",
"67 457 OFFCURVE",
"108 411 OFFCURVE",
"205 371 CURVE SMOOTH",
"323 321 LINE SMOOTH",
"406 285 OFFCURVE",
"436 239 OFFCURVE",
"436 174 CURVE SMOOTH",
"436 93 OFFCURVE",
"370 40 OFFCURVE",
"251 40 CURVE SMOOTH",
"182 40 OFFCURVE",
"119 58 OFFCURVE",
"60 93 CURVE",
"53 34 LINE",
"114 5 OFFCURVE",
"179 -10 OFFCURVE",
"248 -10 CURVE SMOOTH",
"400 -10 OFFCURVE",
"489 61 OFFCURVE",
"489 174 CURVE SMOOTH"
);
}
);
width = 540;
}
);
note = S;
unicode = 0053;
},
{
glyphname = T;
lastChange = "2017-11-01 11:12:10 +0000";
layers = (
{
layerId = "7CDC14DA-6B60-4478-82C0-E8B54FD96B1C";
paths = (
{
closed = 1;
nodes = (
"477 714 LINE",
"20 714 LINE",
"20 666 LINE",
"224 666 LINE",
"224 0 LINE",
"273 0 LINE",
"273 666 LINE",
"477 666 LINE"
);
}
);
width = 497;
}
);
note = T;
unicode = 0054;
},
{
glyphname = U;
lastChange = "2017-11-01 11:12:10 +0000";
layers = (
{
layerId = "7CDC14DA-6B60-4478-82C0-E8B54FD96B1C";
paths = (
{
closed = 1;
nodes = (
"551 113 OFFCURVE",
"470 39 OFFCURVE",
"345 39 CURVE SMOOTH",
"221 39 OFFCURVE",
"142 112 OFFCURVE",
"142 244 CURVE SMOOTH",
"142 714 LINE",
"92 714 LINE",
"92 247 LINE SMOOTH",
"92 84 OFFCURVE",
"192 -10 OFFCURVE",
"345 -10 CURVE SMOOTH",
"498 -10 OFFCURVE",
"598 86 OFFCURVE",
"598 251 CURVE SMOOTH",
"598 714 LINE",
"551 714 LINE",
"551 245 LINE SMOOTH"
);
}
);
width = 690;
}
);
note = U;
unicode = 0055;
},
{
glyphname = V;
lastChange = "2017-11-01 11:12:10 +0000";
layers = (
{
layerId = "7CDC14DA-6B60-4478-82C0-E8B54FD96B1C";
paths = (
{
closed = 1;
nodes = (
"213 341 LINE",
"73 714 LINE",
"20 714 LINE",
"287 0 LINE",
"325 0 LINE",
"594 714 LINE",
"540 714 LINE",
"403 340 LINE",
"308 85 LINE"
);
}
);
width = 614;
}
);
note = V;
unicode = 0056;
},
{
glyphname = W;
lastChange = "2017-11-01 11:12:10 +0000";
layers = (
{
layerId = "7CDC14DA-6B60-4478-82C0-E8B54FD96B1C";
paths = (
{
closed = 1;
nodes = (
"470 413 LINE",
"583 714 LINE",
"530 714 LINE",
"446 470 LINE",
"354 714 LINE",
"302 714 LINE",
"417 422 LINE",
"288 84 LINE",
"201 342 LINE",
"73 714 LINE",
"20 714 LINE",
"267 0 LINE",
"305 0 LINE",
"441 355 LINE",
"578 0 LINE",
"616 0 LINE",
"865 714 LINE",
"812 714 LINE",
"682 338 LINE",
"595 86 LINE"
);
}
);
width = 885;
}
);
note = W;
unicode = 0057;
},
{
glyphname = X;
lastChange = "2017-11-01 11:12:10 +0000";
layers = (
{
layerId = "7CDC14DA-6B60-4478-82C0-E8B54FD96B1C";
paths = (
{
closed = 1;
nodes = (
"474 714 LINE",
"287 411 LINE",
"95 714 LINE",
"36 714 LINE",
"252 375 LINE",
"16 0 LINE",
"76 0 LINE",
"281 333 LINE",
"491 0 LINE",
"552 0 LINE",
"315 369 LINE",
"532 714 LINE"
);
}
);
width = 568;
}
);
note = X;
unicode = 0058;
},
{
glyphname = Y;
lastChange = "2017-11-01 11:12:10 +0000";
layers = (
{
layerId = "7CDC14DA-6B60-4478-82C0-E8B54FD96B1C";
paths = (
{
closed = 1;
nodes = (
"255 305 LINE",
"255 0 LINE",
"305 0 LINE",
"305 309 LINE",
"541 714 LINE",
"488 714 LINE",
"280 354 LINE",
"73 714 LINE",
"18 714 LINE"
);
}
);
width = 559;
}
);
note = Y;
unicode = 0059;
},
{
glyphname = Z;
lastChange = "2017-11-01 11:12:10 +0000";
layers = (
{
layerId = "7CDC14DA-6B60-4478-82C0-E8B54FD96B1C";
paths = (
{
closed = 1;
nodes = (
"516 664 LINE",
"516 714 LINE",
"61 714 LINE",
"61 666 LINE",
"457 666 LINE",
"48 50 LINE",
"48 0 LINE",
"527 0 LINE",
"527 48 LINE",
"106 48 LINE"
);
}
);
width = 570;
}
);
note = Z;
unicode = 005A;
},
{
glyphname = bracketleft;
lastChange = "2017-11-01 11:12:10 +0000";
layers = (
{
layerId = "7CDC14DA-6B60-4478-82C0-E8B54FD96B1C";
paths = (
{
closed = 1;
nodes = (
"262 -200 LINE",
"262 -154 LINE",
"116 -154 LINE",
"116 696 LINE",
"262 696 LINE",
"262 742 LINE",
"70 742 LINE",
"70 -200 LINE"
);
}
);
width = 282;
}
);
note = bracketleft;
unicode = 005B;
},
{
glyphname = backslash;
lastChange = "2017-11-01 11:12:10 +0000";
layers = (
{
layerId = "7CDC14DA-6B60-4478-82C0-E8B54FD96B1C";
paths = (
{
closed = 1;
nodes = (
"18 714 LINE",
"323 0 LINE",
"373 0 LINE",
"68 714 LINE"
);
}
);
width = 391;
}
);
note = backslash;
unicode = 005C;
},
{
glyphname = bracketright;
lastChange = "2017-11-01 11:12:10 +0000";
layers = (
{
layerId = "7CDC14DA-6B60-4478-82C0-E8B54FD96B1C";
paths = (
{
closed = 1;
nodes = (
"166 696 LINE",
"166 -154 LINE",
"20 -154 LINE",
"20 -200 LINE",
"212 -200 LINE",
"212 742 LINE",
"20 742 LINE",
"20 696 LINE"
);
}
);
width = 282;
}
);
note = bracketright;
unicode = 005D;
},
{
glyphname = asciicircum;
lastChange = "2017-11-01 11:12:10 +0000";
layers = (
{
layerId = "7CDC14DA-6B60-4478-82C0-E8B54FD96B1C";
paths = (
{
closed = 1;
nodes = (
"117 245 LINE",
"288 651 LINE",
"458 245 LINE",
"513 245 LINE",
"305 714 LINE",
"269 714 LINE",
"62 245 LINE"
);
}
);
width = 572;
}
);
note = asciicircum;
unicode = 005E;
},
{
glyphname = underscore;
lastChange = "2017-11-01 11:12:10 +0000";
layers = (
{
layerId = "7CDC14DA-6B60-4478-82C0-E8B54FD96B1C";
paths = (
{
closed = 1;
nodes = (
"500 -136 LINE",
"500 -90 LINE",
"0 -90 LINE",
"0 -136 LINE"
);
}
);
width = 500;
}
);
note = underscore;
unicode = 005F;
},
{
glyphname = grave;
lastChange = "2017-11-01 11:12:10 +0000";
layers = (
{
layerId = "7CDC14DA-6B60-4478-82C0-E8B54FD96B1C";
paths = (
{
closed = 1;
nodes = (
"284 602 LINE",
"322 602 LINE",
"248 782 LINE",
"184 782 LINE"
);
}
);
width = 500;
}
);
note = grave;
unicode = 0060;
},
{
glyphname = a;
lastChange = "2017-11-01 11:12:10 +0000";
layers = (
{
layerId = "7CDC14DA-6B60-4478-82C0-E8B54FD96B1C";
paths = (
{
closed = 1;
nodes = (
"412 73 OFFCURVE",
"417 39 OFFCURVE",
"427 0 CURVE",
"480 0 LINE",
"468 42 OFFCURVE",
"462 89 OFFCURVE",
"462 140 CURVE SMOOTH",
"462 366 LINE SMOOTH",
"462 495 OFFCURVE",
"387 562 OFFCURVE",
"270 562 CURVE SMOOTH",
"212 562 OFFCURVE",
"152 547 OFFCURVE",
"91 517 CURVE",
"99 470 LINE",
"164 499 OFFCURVE",
"221 514 OFFCURVE",
"270 514 CURVE SMOOTH",
"365 514 OFFCURVE",
"412 464 OFFCURVE",
"412 364 CURVE SMOOTH",
"412 328 LINE",
"236 300 LINE SMOOTH",
"113 279 OFFCURVE",
"52 226 OFFCURVE",
"52 139 CURVE SMOOTH",
"52 48 OFFCURVE",
"118 -10 OFFCURVE",
"217 -10 CURVE SMOOTH",
"305 -10 OFFCURVE",
"370 27 OFFCURVE",
"412 102 CURVE"
);
},
{
closed = 1;
nodes = (
"412 124 OFFCURVE",
"348 36 OFFCURVE",
"227 36 CURVE SMOOTH",
"154 36 OFFCURVE",
"106 75 OFFCURVE",
"106 139 CURVE SMOOTH",
"106 208 OFFCURVE",
"152 238 OFFCURVE",
"251 257 CURVE SMOOTH",
"412 286 LINE",
"412 259 LINE SMOOTH"
);
}
);
width = 550;
}
);
note = a;
unicode = 0061;
},
{
glyphname = b;
lastChange = "2017-11-01 11:12:10 +0000";
layers = (
{
layerId = "7CDC14DA-6B60-4478-82C0-E8B54FD96B1C";
paths = (
{
closed = 1;
nodes = (
"143 426 OFFCURVE",
"223 513 OFFCURVE",
"340 513 CURVE SMOOTH",
"461 513 OFFCURVE",
"533 421 OFFCURVE",
"533 277 CURVE SMOOTH",
"533 126 OFFCURVE",
"456 39 OFFCURVE",
"337 39 CURVE SMOOTH",
"221 39 OFFCURVE",
"143 124 OFFCURVE",
"143 279 CURVE SMOOTH"
);
},
{
closed = 1;
nodes = (
"187 30 OFFCURVE",
"252 -10 OFFCURVE",
"341 -10 CURVE SMOOTH",
"492 -10 OFFCURVE",
"589 109 OFFCURVE",
"589 277 CURVE SMOOTH",
"589 450 OFFCURVE",
"494 562 OFFCURVE",
"346 562 CURVE SMOOTH",
"262 562 OFFCURVE",
"190 519 OFFCURVE",
"145 440 CURVE",
"145 742 LINE",
"95 742 LINE",
"95 0 LINE",
"145 0 LINE",
"145 111 LINE"
);
}
);
width = 650;
}
);
note = b;
unicode = 0062;
},
{
glyphname = c;
lastChange = "2017-11-01 11:12:10 +0000";
layers = (
{
layerId = "7CDC14DA-6B60-4478-82C0-E8B54FD96B1C";
paths = (
{
closed = 1;
nodes = (
"387 -11 OFFCURVE",
"434 -3 OFFCURVE",
"473 12 CURVE",
"465 63 LINE",
"425 48 OFFCURVE",
"382 40 OFFCURVE",
"336 40 CURVE SMOOTH",
"200 40 OFFCURVE",
"107 133 OFFCURVE",
"107 273 CURVE SMOOTH",
"107 424 OFFCURVE",
"193 512 OFFCURVE",
"334 512 CURVE SMOOTH",
"374 512 OFFCURVE",
"415 504 OFFCURVE",
"458 489 CURVE",
"465 544 LINE",
"426 557 OFFCURVE",
"382 563 OFFCURVE",
"333 563 CURVE SMOOTH",
"165 563 OFFCURVE",
"51 450 OFFCURVE",
"51 275 CURVE SMOOTH",
"51 100 OFFCURVE",
"172 -11 OFFCURVE",
"331 -11 CURVE SMOOTH"
);
}
);
width = 507;
}
);
note = c;
unicode = 0063;
},
{
glyphname = d;
lastChange = "2017-11-01 11:12:10 +0000";
layers = (
{
layerId = "7CDC14DA-6B60-4478-82C0-E8B54FD96B1C";
paths = (
{
closed = 1;
nodes = (
"507 124 OFFCURVE",
"429 39 OFFCURVE",
"313 39 CURVE SMOOTH",
"194 39 OFFCURVE",
"117 126 OFFCURVE",
"117 277 CURVE SMOOTH",
"117 421 OFFCURVE",
"189 513 OFFCURVE",
"310 513 CURVE SMOOTH",
"427 513 OFFCURVE",
"507 426 OFFCURVE",
"507 279 CURVE SMOOTH"
);
},
{
closed = 1;
nodes = (
"558 39 OFFCURVE",
"555 85 OFFCURVE",
"555 140 CURVE SMOOTH",
"555 742 LINE",
"505 742 LINE",
"505 440 LINE",
"460 519 OFFCURVE",
"388 562 OFFCURVE",
"304 562 CURVE SMOOTH",
"156 562 OFFCURVE",
"61 450 OFFCURVE",
"61 277 CURVE SMOOTH",
"61 109 OFFCURVE",
"158 -10 OFFCURVE",
"309 -10 CURVE SMOOTH",
"398 -10 OFFCURVE",
"463 30 OFFCURVE",
"505 111 CURVE",
"506 78 OFFCURVE",
"508 41 OFFCURVE",
"513 0 CURVE",
"564 0 LINE"
);
}
);
width = 659;
}
);
note = d;
unicode = 0064;
},
{
glyphname = e;
lastChange = "2017-11-01 11:12:10 +0000";
layers = (
{
layerId = "7CDC14DA-6B60-4478-82C0-E8B54FD96B1C";
paths = (
{
closed = 1;
nodes = (
"392 -11 OFFCURVE",
"444 -2 OFFCURVE",
"495 16 CURVE",
"491 70 LINE",
"440 49 OFFCURVE",
"388 39 OFFCURVE",
"337 39 CURVE SMOOTH",
"200 39 OFFCURVE",
"111 126 OFFCURVE",
"111 275 CURVE SMOOTH",
"111 285 LINE",
"521 285 LINE",
"522 295 OFFCURVE",
"523 311 OFFCURVE",
"523 332 CURVE SMOOTH",
"523 377 OFFCURVE",
"515 417 OFFCURVE",
"498 452 CURVE SMOOTH",
"465 522 OFFCURVE",
"395 563 OFFCURVE",
"306 563 CURVE SMOOTH",
"170 563 OFFCURVE",
"58 450 OFFCURVE",
"58 277 CURVE SMOOTH",
"58 97 OFFCURVE",
"168 -11 OFFCURVE",
"337 -11 CURVE SMOOTH"
);
},
{
closed = 1;
nodes = (
"411 513 OFFCURVE",
"471 450 OFFCURVE",
"471 330 CURVE",
"115 330 LINE",
"128 437 OFFCURVE",
"206 513 OFFCURVE",
"307 513 CURVE SMOOTH"
);
}
);
width = 573;
}
);
note = e;
unicode = 0065;
},
{
glyphname = f;
lastChange = "2017-11-01 11:12:10 +0000";
layers = (
{
layerId = "7CDC14DA-6B60-4478-82C0-E8B54FD96B1C";
paths = (
{
closed = 1;
nodes = (
"15 507 LINE",
"130 507 LINE",
"130 0 LINE",
"180 0 LINE",
"180 507 LINE",
"360 507 LINE",
"367 552 LINE",
"180 552 LINE",
"180 586 LINE SMOOTH",
"180 670 OFFCURVE",
"219 712 OFFCURVE",
"297 712 CURVE SMOOTH",
"321 712 OFFCURVE",
"345 709 OFFCURVE",
"369 702 CURVE",
"374 752 LINE",
"349 759 OFFCURVE",
"323 762 OFFCURVE",
"297 762 CURVE SMOOTH",
"192 762 OFFCURVE",
"130 697 OFFCURVE",
"130 586 CURVE SMOOTH",
"130 552 LINE",
"15 552 LINE"
);
}
);
width = 354;
}
);
note = f;
unicode = 0066;
},
{
glyphname = g;
lastChange = "2017-11-01 11:12:10 +0000";
layers = (
{
layerId = "7CDC14DA-6B60-4478-82C0-E8B54FD96B1C";
paths = (
{
closed = 1;
nodes = (
"144 459 OFFCURVE",
"203 513 OFFCURVE",
"294 513 CURVE SMOOTH",
"377 513 OFFCURVE",
"439 452 OFFCURVE",
"439 367 CURVE SMOOTH",
"439 283 OFFCURVE",
"381 224 OFFCURVE",
"293 224 CURVE SMOOTH",
"208 224 OFFCURVE",
"144 281 OFFCURVE",
"144 368 CURVE SMOOTH"
);
},
{
closed = 1;
nodes = (
"211 -5 OFFCURVE",
"244 -3 OFFCURVE",
"293 1 CURVE SMOOTH",
"332 4 OFFCURVE",
"366 6 OFFCURVE",
"395 6 CURVE SMOOTH",
"453 6 OFFCURVE",
"482 -20 OFFCURVE",
"482 -71 CURVE SMOOTH",
"482 -135 OFFCURVE",
"412 -191 OFFCURVE",
"293 -191 CURVE SMOOTH",
"173 -191 OFFCURVE",
"117 -151 OFFCURVE",
"117 -90 CURVE SMOOTH",
"117 -54 OFFCURVE",
"134 -25 OFFCURVE",
"167 -2 CURVE",
"181 -4 OFFCURVE",
"190 -5 OFFCURVE",
"195 -5 CURVE SMOOTH"
);
},
{
closed = 1;
nodes = (
"442 -240 OFFCURVE",
"533 -165 OFFCURVE",
"533 -65 CURVE SMOOTH",
"533 8 OFFCURVE",
"482 57 OFFCURVE",
"399 57 CURVE SMOOTH",
"374 57 OFFCURVE",
"340 55 OFFCURVE",
"298 52 CURVE SMOOTH",
"258 49 OFFCURVE",
"228 47 OFFCURVE",
"207 47 CURVE SMOOTH",
"151 47 OFFCURVE",
"120 75 OFFCURVE",
"120 116 CURVE SMOOTH",
"120 152 OFFCURVE",
"141 180 OFFCURVE",
"183 201 CURVE",
"216 183 OFFCURVE",
"253 174 OFFCURVE",
"293 174 CURVE SMOOTH",
"408 174 OFFCURVE",
"492 252 OFFCURVE",
"492 359 CURVE SMOOTH",
"492 428 OFFCURVE",
"465 480 OFFCURVE",
"412 513 CURVE",
"572 506 LINE",
"580 552 LINE",
"475 552 LINE SMOOTH",
"440 552 OFFCURVE",
"407 554 OFFCURVE",
"377 557 CURVE SMOOTH",
"329 561 OFFCURVE",
"302 563 OFFCURVE",
"296 563 CURVE SMOOTH",
"173 563 OFFCURVE",
"91 486 OFFCURVE",
"91 367 CURVE SMOOTH",
"91 313 OFFCURVE",
"110 266 OFFCURVE",
"149 225 CURVE",
"97 200 OFFCURVE",
"71 162 OFFCURVE",
"71 112 CURVE SMOOTH",
"71 66 OFFCURVE",
"91 32 OFFCURVE",
"132 10 CURVE",
"89 -15 OFFCURVE",
"68 -52 OFFCURVE",
"68 -99 CURVE SMOOTH",
"68 -180 OFFCURVE",
"143 -240 OFFCURVE",
"278 -240 CURVE SMOOTH"
);
}
);
width = 590;
}
);
note = g;
unicode = 0067;
},
{
glyphname = h;
lastChange = "2017-11-01 11:12:10 +0000";
layers = (
{
layerId = "7CDC14DA-6B60-4478-82C0-E8B54FD96B1C";
paths = (
{
closed = 1;
nodes = (
"542 432 OFFCURVE",
"513 499 OFFCURVE",
"456 534 CURVE SMOOTH",
"424 553 OFFCURVE",
"386 562 OFFCURVE",
"342 562 CURVE SMOOTH",
"249 562 OFFCURVE",
"180 509 OFFCURVE",
"144 430 CURVE",
"144 741 LINE",
"95 741 LINE",
"95 0 LINE",
"145 0 LINE",
"145 247 LINE SMOOTH",
"145 398 OFFCURVE",
"194 514 OFFCURVE",
"338 514 CURVE SMOOTH",
"441 514 OFFCURVE",
"492 454 OFFCURVE",
"492 334 CURVE SMOOTH",
"492 0 LINE",
"542 0 LINE",
"542 333 LINE SMOOTH"
);
}
);
width = 632;
}
);
note = h;
unicode = 0068;
},
{
glyphname = i;
lastChange = "2017-11-01 11:12:10 +0000";
layers = (
{
layerId = "7CDC14DA-6B60-4478-82C0-E8B54FD96B1C";
paths = (
{
closed = 1;
nodes = (
"95 552 LINE",
"95 0 LINE",
"145 0 LINE",
"145 552 LINE"
);
},
{
closed = 1;
nodes = (
"80 679 OFFCURVE",
"98 664 OFFCURVE",
"119 664 CURVE SMOOTH",
"140 664 OFFCURVE",
"158 679 OFFCURVE",
"158 703 CURVE SMOOTH",
"158 728 OFFCURVE",
"140 742 OFFCURVE",
"119 742 CURVE SMOOTH",
"96 742 OFFCURVE",
"80 728 OFFCURVE",
"80 703 CURVE SMOOTH"
);
}
);
width = 240;
}
);
note = i;
unicode = 0069;
},
{
glyphname = j;
lastChange = "2017-11-01 11:12:10 +0000";
layers = (
{
layerId = "7CDC14DA-6B60-4478-82C0-E8B54FD96B1C";
paths = (
{
closed = 1;
nodes = (
"105 -152 OFFCURVE",
"72 -186 OFFCURVE",
"13 -186 CURVE SMOOTH",
"3 -186 OFFCURVE",
"-11 -185 OFFCURVE",
"-28 -182 CURVE",
"-28 -228 LINE",
"-13 -231 OFFCURVE",
"2 -233 OFFCURVE",
"16 -233 CURVE SMOOTH",
"105 -233 OFFCURVE",
"155 -181 OFFCURVE",
"155 -85 CURVE SMOOTH",
"155 552 LINE",
"105 552 LINE",
"105 -85 LINE SMOOTH"
);
},
{
closed = 1;
nodes = (
"90 679 OFFCURVE",
"108 664 OFFCURVE",
"129 664 CURVE SMOOTH",
"150 664 OFFCURVE",
"168 679 OFFCURVE",
"168 703 CURVE SMOOTH",
"168 728 OFFCURVE",
"150 742 OFFCURVE",
"129 742 CURVE SMOOTH",
"106 742 OFFCURVE",
"90 728 OFFCURVE",
"90 703 CURVE SMOOTH"
);
}
);
width = 250;
}
);
note = j;
unicode = 006A;
},
{
glyphname = k;
lastChange = "2017-11-01 11:12:10 +0000";
layers = (
{
layerId = "7CDC14DA-6B60-4478-82C0-E8B54FD96B1C";
paths = (
{
closed = 1;
nodes = (
"253 316 LINE",
"486 552 LINE",
"418 552 LINE",
"189 317 LINE",
"449 0 LINE",
"516 0 LINE"
);
},
{
closed = 1;
nodes = (
"95 0 LINE",
"144 0 LINE",
"144 741 LINE",
"95 741 LINE"
);
}
);
width = 521;
}
);
note = k;
unicode = 006B;
},
{
glyphname = l;
lastChange = "2017-11-01 11:12:10 +0000";
layers = (
{
layerId = "7CDC14DA-6B60-4478-82C0-E8B54FD96B1C";
paths = (
{
closed = 1;
nodes = (
"95 752 LINE",
"95 0 LINE",
"144 0 LINE",
"144 752 LINE"
);
}
);
width = 239;
}
);
note = l;
unicode = 006C;
},
{
glyphname = m;
lastChange = "2017-11-01 11:12:10 +0000";
layers = (
{
layerId = "7CDC14DA-6B60-4478-82C0-E8B54FD96B1C";
paths = (
{
closed = 1;
nodes = (
"480 417 OFFCURVE",
"521 514 OFFCURVE",
"641 514 CURVE SMOOTH",
"724 514 OFFCURVE",
"765 465 OFFCURVE",
"765 367 CURVE SMOOTH",
"765 0 LINE",
"815 0 LINE",
"815 368 LINE SMOOTH",
"815 524 OFFCURVE",
"729 562 OFFCURVE",
"648 562 CURVE SMOOTH",
"571 562 OFFCURVE",
"512 523 OFFCURVE",
"472 444 CURVE",
"451 523 OFFCURVE",
"396 562 OFFCURVE",
"309 562 CURVE SMOOTH",
"237 562 OFFCURVE",
"182 525 OFFCURVE",
"144 450 CURVE",
"144 552 LINE",
"95 552 LINE",
"95 0 LINE",
"145 0 LINE",
"145 290 LINE SMOOTH",
"145 417 OFFCURVE",
"187 514 OFFCURVE",
"304 514 CURVE SMOOTH",
"391 514 OFFCURVE",
"430 467 OFFCURVE",
"430 367 CURVE SMOOTH",
"430 0 LINE",
"480 0 LINE",
"480 290 LINE SMOOTH"
);
}
);
width = 905;
}
);
note = m;
unicode = 006D;
},
{
glyphname = n;
lastChange = "2017-11-01 11:12:10 +0000";
layers = (
{
layerId = "7CDC14DA-6B60-4478-82C0-E8B54FD96B1C";
paths = (
{
closed = 1;
nodes = (
"542 432 OFFCURVE",
"513 499 OFFCURVE",
"456 534 CURVE SMOOTH",
"424 553 OFFCURVE",
"386 562 OFFCURVE",
"342 562 CURVE SMOOTH",
"249 562 OFFCURVE",
"180 509 OFFCURVE",
"144 430 CURVE",
"144 552 LINE",
"95 552 LINE",
"95 0 LINE",
"145 0 LINE",
"145 247 LINE SMOOTH",
"145 398 OFFCURVE",
"194 514 OFFCURVE",
"338 514 CURVE SMOOTH",
"441 514 OFFCURVE",
"492 454 OFFCURVE",
"492 334 CURVE SMOOTH",
"492 0 LINE",
"542 0 LINE",
"542 333 LINE SMOOTH"
);
}
);
width = 632;
}
);
note = n;
unicode = 006E;
},
{
glyphname = o;
lastChange = "2017-11-01 11:12:10 +0000";
layers = (
{
layerId = "7CDC14DA-6B60-4478-82C0-E8B54FD96B1C";
paths = (
{
closed = 1;
nodes = (
"117 429 OFFCURVE",
"187 513 OFFCURVE",
"307 513 CURVE SMOOTH",
"424 513 OFFCURVE",
"506 426 OFFCURVE",
"506 279 CURVE SMOOTH",
"506 132 OFFCURVE",
"431 39 OFFCURVE",
"314 39 CURVE SMOOTH",
"197 39 OFFCURVE",
"117 126 OFFCURVE",
"117 273 CURVE SMOOTH"
);
},
{
closed = 1;
nodes = (
"561 441 OFFCURVE",
"460 563 OFFCURVE",
"312 563 CURVE SMOOTH",
"163 563 OFFCURVE",
"62 451 OFFCURVE",
"62 276 CURVE SMOOTH",
"62 103 OFFCURVE",
"173 -11 OFFCURVE",
"309 -11 CURVE SMOOTH",
"461 -11 OFFCURVE",
"561 103 OFFCURVE",
"561 276 CURVE SMOOTH"
);
}
);
width = 622;
}
);
note = o;
unicode = 006F;
},
{
glyphname = p;
lastChange = "2017-11-01 11:12:10 +0000";
layers = (
{
layerId = "7CDC14DA-6B60-4478-82C0-E8B54FD96B1C";
paths = (
{
closed = 1;
nodes = (
"143 428 OFFCURVE",
"221 513 OFFCURVE",
"337 513 CURVE SMOOTH",
"456 513 OFFCURVE",
"533 426 OFFCURVE",
"533 275 CURVE SMOOTH",
"533 131 OFFCURVE",
"461 39 OFFCURVE",
"340 39 CURVE SMOOTH",
"223 39 OFFCURVE",
"143 126 OFFCURVE",
"143 273 CURVE SMOOTH"
);
},
{
closed = 1;
nodes = (
"95 -220 LINE",
"145 -220 LINE",
"145 112 LINE",
"190 33 OFFCURVE",
"262 -10 OFFCURVE",
"346 -10 CURVE SMOOTH",
"494 -10 OFFCURVE",
"589 102 OFFCURVE",
"589 275 CURVE SMOOTH",
"589 443 OFFCURVE",
"492 562 OFFCURVE",
"341 562 CURVE SMOOTH",
"252 562 OFFCURVE",
"187 522 OFFCURVE",
"145 441 CURVE",
"145 552 LINE",
"95 552 LINE"
);
}
);
width = 650;
}
);
note = p;
unicode = 0070;
},
{
glyphname = q;
lastChange = "2017-11-01 11:12:10 +0000";
layers = (
{
layerId = "7CDC14DA-6B60-4478-82C0-E8B54FD96B1C";
paths = (
{
closed = 1;
nodes = (
"507 126 OFFCURVE",
"427 39 OFFCURVE",
"310 39 CURVE SMOOTH",
"189 39 OFFCURVE",
"117 131 OFFCURVE",
"117 275 CURVE SMOOTH",
"117 426 OFFCURVE",
"194 513 OFFCURVE",
"313 513 CURVE SMOOTH",
"429 513 OFFCURVE",
"507 428 OFFCURVE",
"507 273 CURVE SMOOTH"
);
},
{
closed = 1;
nodes = (
"463 522 OFFCURVE",
"398 562 OFFCURVE",
"309 562 CURVE SMOOTH",
"158 562 OFFCURVE",
"61 443 OFFCURVE",
"61 275 CURVE SMOOTH",
"61 102 OFFCURVE",
"156 -10 OFFCURVE",
"304 -10 CURVE SMOOTH",
"388 -10 OFFCURVE",
"460 33 OFFCURVE",
"505 112 CURVE",
"505 -220 LINE",
"555 -220 LINE",
"555 552 LINE",
"505 552 LINE",
"505 441 LINE"
);
}
);
width = 650;
}
);
note = q;
unicode = 0071;
},
{
glyphname = r;
lastChange = "2017-11-01 11:12:10 +0000";
layers = (
{
layerId = "7CDC14DA-6B60-4478-82C0-E8B54FD96B1C";
paths = (
{
closed = 1;
nodes = (
"402 560 OFFCURVE",
"381 562 OFFCURVE",
"358 562 CURVE SMOOTH",
"262 562 OFFCURVE",
"191 516 OFFCURVE",
"144 423 CURVE",
"144 552 LINE",
"95 552 LINE",
"95 0 LINE",
"145 0 LINE",
"145 210 LINE SMOOTH",
"145 383 OFFCURVE",
"184 511 OFFCURVE",
"353 511 CURVE SMOOTH",
"374 511 OFFCURVE",
"395 508 OFFCURVE",
"416 503 CURVE",
"420 555 LINE"
);
}
);
width = 440;
}
);
note = r;
unicode = 0072;
},
{
glyphname = s;
lastChange = "2017-11-01 11:12:10 +0000";
layers = (
{
layerId = "7CDC14DA-6B60-4478-82C0-E8B54FD96B1C";
paths = (
{
closed = 1;
nodes = (
"430 202 OFFCURVE",
"389 253 OFFCURVE",
"308 286 CURVE SMOOTH",
"197 331 LINE SMOOTH",
"141 354 OFFCURVE",
"113 386 OFFCURVE",
"113 425 CURVE SMOOTH",
"113 478 OFFCURVE",
"157 512 OFFCURVE",
"245 512 CURVE SMOOTH",
"294 512 OFFCURVE",
"343 499 OFFCURVE",
"391 473 CURVE",
"399 529 LINE",
"352 552 OFFCURVE",
"300 563 OFFCURVE",
"244 563 CURVE SMOOTH",
"128 563 OFFCURVE",
"63 504 OFFCURVE",
"63 425 CURVE SMOOTH",
"63 362 OFFCURVE",
"93 319 OFFCURVE",
"180 284 CURVE SMOOTH",
"287 241 LINE SMOOTH",
"355 214 OFFCURVE",
"376 182 OFFCURVE",
"376 134 CURVE SMOOTH",
"376 71 OFFCURVE",
"331 40 OFFCURVE",
"242 40 CURVE SMOOTH",
"180 40 OFFCURVE",
"121 56 OFFCURVE",
"65 89 CURVE",
"56 32 LINE",
"109 3 OFFCURVE",
"172 -11 OFFCURVE",
"244 -11 CURVE SMOOTH",
"363 -11 OFFCURVE",
"430 42 OFFCURVE",
"430 133 CURVE SMOOTH"
);
}
);
width = 474;
}
);
note = s;
unicode = 0073;
},
{
glyphname = t;
lastChange = "2017-11-01 11:12:10 +0000";
layers = (
{
layerId = "7CDC14DA-6B60-4478-82C0-E8B54FD96B1C";
paths = (
{
closed = 1;
nodes = (
"380 552 LINE",
"172 552 LINE",
"172 689 LINE",
"122 672 LINE",
"122 552 LINE",
"8 552 LINE",
"8 509 LINE",
"122 509 LINE",
"122 168 LINE SMOOTH",
"122 51 OFFCURVE",
"185 -11 OFFCURVE",
"298 -11 CURVE SMOOTH",
"331 -11 OFFCURVE",
"361 -7 OFFCURVE",
"388 1 CURVE",
"385 53 LINE",
"359 44 OFFCURVE",
"331 40 OFFCURVE",
"300 40 CURVE SMOOTH",
"215 40 OFFCURVE",
"172 85 OFFCURVE",
"172 174 CURVE SMOOTH",
"172 509 LINE",
"372 509 LINE"
);
}
);
width = 412;
}
);
note = t;
unicode = 0074;
},
{
glyphname = u;
lastChange = "2017-11-01 11:12:10 +0000";
layers = (
{
layerId = "7CDC14DA-6B60-4478-82C0-E8B54FD96B1C";
paths = (
{
closed = 1;
nodes = (
"90 118 OFFCURVE",
"118 51 OFFCURVE",
"174 18 CURVE SMOOTH",
"206 -1 OFFCURVE",
"244 -10 OFFCURVE",
"287 -10 CURVE SMOOTH",
"380 -10 OFFCURVE",
"448 42 OFFCURVE",
"484 122 CURVE",
"484 0 LINE",
"533 0 LINE",
"533 552 LINE",
"483 552 LINE",
"483 305 LINE SMOOTH",
"483 154 OFFCURVE",
"434 38 OFFCURVE",
"291 38 CURVE SMOOTH",
"190 38 OFFCURVE",
"140 98 OFFCURVE",
"140 218 CURVE SMOOTH",
"140 552 LINE",
"90 552 LINE",
"90 219 LINE SMOOTH"
);
}
);
width = 628;
}
);
note = u;
unicode = 0075;
},
{
glyphname = v;
lastChange = "2017-11-01 11:12:10 +0000";
layers = (
{
layerId = "7CDC14DA-6B60-4478-82C0-E8B54FD96B1C";
paths = (
{
closed = 1;
nodes = (
"449 552 LINE",
"349 288 LINE",
"261 53 LINE",
"173 288 LINE",
"72 552 LINE",
"14 552 LINE",
"235 0 LINE",
"287 0 LINE",
"507 552 LINE"
);
}
);
width = 521;
}
);
note = v;
unicode = 0076;
},
{
glyphname = w;
lastChange = "2017-11-01 11:12:10 +0000";
layers = (
{
layerId = "7CDC14DA-6B60-4478-82C0-E8B54FD96B1C";
paths = (
{
closed = 1;
nodes = (
"718 552 LINE",
"621 288 LINE",
"535 53 LINE",
"424 341 LINE",
"512 552 LINE",
"457 552 LINE",
"395 393 LINE",
"334 552 LINE",
"278 552 LINE",
"366 341 LINE",
"256 53 LINE",
"170 288 LINE",
"73 552 LINE",
"14 552 LINE",
"230 0 LINE",
"282 0 LINE",
"395 281 LINE",
"509 0 LINE",
"561 0 LINE",
"776 552 LINE"
);
}
);
width = 790;
}
);
note = w;
unicode = 0077;
},
{
glyphname = x;
lastChange = "2017-11-01 11:12:10 +0000";
layers = (
{
layerId = "7CDC14DA-6B60-4478-82C0-E8B54FD96B1C";
paths = (
{
closed = 1;
nodes = (
"86 0 LINE",
"255 245 LINE",
"431 0 LINE",
"495 0 LINE",
"292 283 LINE",
"485 552 LINE",
"422 552 LINE",
"264 322 LINE",
"100 552 LINE",
"36 552 LINE",
"227 285 LINE",
"23 0 LINE"
);
}
);
width = 518;
}
);
note = x;
unicode = 0078;
},
{
glyphname = y;
lastChange = "2017-11-01 11:12:10 +0000";
layers = (
{
layerId = "7CDC14DA-6B60-4478-82C0-E8B54FD96B1C";
paths = (
{
closed = 1;
nodes = (
"463 552 LINE",
"269 72 LINE",
"181 287 LINE",
"72 552 LINE",
"14 552 LINE",
"243 13 LINE",
"138 -220 LINE",
"198 -220 LINE",
"520 552 LINE"
);
}
);
width = 534;
}
);
note = y;
unicode = 0079;
},
{
glyphname = z;
lastChange = "2017-11-01 11:12:10 +0000";
layers = (
{
layerId = "7CDC14DA-6B60-4478-82C0-E8B54FD96B1C";
paths = (
{
closed = 1;
nodes = (
"453 507 LINE",
"453 552 LINE",
"65 552 LINE",
"65 508 LINE",
"391 508 LINE",
"45 41 LINE",
"45 0 LINE",
"460 0 LINE",
"460 44 LINE",
"107 44 LINE"
);
}
);
width = 496;
}
);
note = z;
unicode = 007A;
},
{
glyphname = braceleft;
lastChange = "2017-11-01 11:12:10 +0000";
layers = (
{
layerId = "7CDC14DA-6B60-4478-82C0-E8B54FD96B1C";
paths = (
{
closed = 1;
nodes = (
"95 243 OFFCURVE",
"120 214 OFFCURVE",
"120 141 CURVE SMOOTH",
"120 -62 LINE SMOOTH",
"120 -153 OFFCURVE",
"173 -200 OFFCURVE",
"262 -200 CURVE SMOOTH",
"270 -200 LINE",
"270 -154 LINE",
"262 -154 LINE SMOOTH",
"193 -154 OFFCURVE",
"166 -124 OFFCURVE",
"166 -55 CURVE SMOOTH",
"166 153 LINE SMOOTH",
"166 217 OFFCURVE",
"135 256 OFFCURVE",
"72 271 CURVE",
"135 286 OFFCURVE",
"166 325 OFFCURVE",
"166 389 CURVE SMOOTH",
"166 597 LINE SMOOTH",
"166 666 OFFCURVE",
"193 696 OFFCURVE",
"262 696 CURVE SMOOTH",
"270 696 LINE",
"270 742 LINE",
"262 742 LINE SMOOTH",
"173 742 OFFCURVE",
"120 695 OFFCURVE",
"120 604 CURVE SMOOTH",
"120 401 LINE SMOOTH",
"120 328 OFFCURVE",
"95 299 OFFCURVE",
"16 294 CURVE",
"16 248 LINE"
);
}
);
width = 282;
}
);
note = braceleft;
unicode = 007B;
},
{
glyphname = bar;
lastChange = "2017-11-01 11:12:10 +0000";
layers = (
{
layerId = "7CDC14DA-6B60-4478-82C0-E8B54FD96B1C";
paths = (
{
closed = 1;
nodes = (
"95 -200 LINE",
"141 -200 LINE",
"141 742 LINE",
"95 742 LINE"
);
}
);
width = 236;
}
);
note = bar;
unicode = 007C;
},
{
glyphname = braceright;
lastChange = "2017-11-01 11:12:10 +0000";
layers = (
{
layerId = "7CDC14DA-6B60-4478-82C0-E8B54FD96B1C";
paths = (
{
closed = 1;
nodes = (
"187 299 OFFCURVE",
"162 328 OFFCURVE",
"162 401 CURVE SMOOTH",
"162 604 LINE SMOOTH",
"162 695 OFFCURVE",
"109 742 OFFCURVE",
"20 742 CURVE SMOOTH",
"12 742 LINE",
"12 696 LINE",
"20 696 LINE SMOOTH",
"89 696 OFFCURVE",
"116 666 OFFCURVE",
"116 597 CURVE SMOOTH",
"116 389 LINE SMOOTH",
"116 325 OFFCURVE",
"147 286 OFFCURVE",
"210 271 CURVE",
"147 256 OFFCURVE",
"116 217 OFFCURVE",
"116 153 CURVE SMOOTH",
"116 -55 LINE SMOOTH",
"116 -124 OFFCURVE",
"89 -154 OFFCURVE",
"20 -154 CURVE SMOOTH",
"12 -154 LINE",
"12 -200 LINE",
"20 -200 LINE SMOOTH",
"109 -200 OFFCURVE",
"162 -153 OFFCURVE",
"162 -62 CURVE SMOOTH",
"162 141 LINE SMOOTH",
"162 214 OFFCURVE",
"187 243 OFFCURVE",
"266 248 CURVE",
"266 294 LINE"
);
}
);
width = 282;
}
);
note = braceright;
unicode = 007D;
},
{
glyphname = asciitilde;
lastChange = "2017-11-01 11:12:10 +0000";
layers = (
{
layerId = "7CDC14DA-6B60-4478-82C0-E8B54FD96B1C";
paths = (
{
closed = 1;
nodes = (
"133 409 OFFCURVE",
"99 399 OFFCURVE",
"62 378 CURVE",
"62 327 LINE",
"95 352 OFFCURVE",
"130 364 OFFCURVE",
"166 364 CURVE SMOOTH",
"197 364 OFFCURVE",
"232 355 OFFCURVE",
"273 338 CURVE SMOOTH",
"327 316 OFFCURVE",
"371 305 OFFCURVE",
"405 305 CURVE SMOOTH",
"438 305 OFFCURVE",
"472 315 OFFCURVE",
"509 336 CURVE",
"509 387 LINE",
"476 362 OFFCURVE",
"441 350 OFFCURVE",
"405 350 CURVE SMOOTH",
"377 350 OFFCURVE",
"341 359 OFFCURVE",
"296 377 CURVE SMOOTH",
"245 398 OFFCURVE",
"201 409 OFFCURVE",
"166 409 CURVE SMOOTH"
);
}
);
width = 572;
}
);
note = asciitilde;
unicode = 007E;
},
{
glyphname = exclamdown;
lastChange = "2017-11-01 11:12:10 +0000";
layers = (
{
layerId = "7CDC14DA-6B60-4478-82C0-E8B54FD96B1C";
paths = (
{
closed = 1;
nodes = (
"93 0 LINE",
"155 0 LINE",
"139 547 LINE",
"109 547 LINE"
);
},
{
closed = 1;
nodes = (
"79 650 OFFCURVE",
"99 633 OFFCURVE",
"124 633 CURVE SMOOTH",
"149 633 OFFCURVE",
"170 648 OFFCURVE",
"170 679 CURVE SMOOTH",
"170 706 OFFCURVE",
"149 724 OFFCURVE",
"124 724 CURVE SMOOTH",
"99 724 OFFCURVE",
"79 706 OFFCURVE",
"79 679 CURVE SMOOTH"
);
}
);
width = 250;
}
);
note = exclamdown;
unicode = 00A1;
},
{
glyphname = cent;
lastChange = "2017-11-01 11:12:10 +0000";
layers = (
{
layerId = "7CDC14DA-6B60-4478-82C0-E8B54FD96B1C";
paths = (
{
closed = 1;
nodes = (
"308 562 LINE",
"153 551 OFFCURVE",
"51 442 OFFCURVE",
"51 275 CURVE SMOOTH",
"51 110 OFFCURVE",
"160 1 OFFCURVE",
"308 -10 CURVE",
"308 -200 LINE",
"350 -200 LINE",
"350 -11 LINE",
"399 -9 OFFCURVE",
"440 -1 OFFCURVE",
"473 12 CURVE",
"465 63 LINE",
"428 48 OFFCURVE",
"390 41 OFFCURVE",
"350 40 CURVE",
"350 512 LINE",
"383 510 OFFCURVE",
"419 502 OFFCURVE",
"458 489 CURVE",
"465 544 LINE",
"428 556 OFFCURVE",
"389 562 OFFCURVE",
"350 563 CURVE",
"350 742 LINE",
"308 742 LINE"
);
},
{
closed = 1;
nodes = (
"107 413 OFFCURVE",
"181 500 OFFCURVE",
"308 511 CURVE",
"308 41 LINE",
"187 53 OFFCURVE",
"107 144 OFFCURVE",
"107 273 CURVE SMOOTH"
);
}
);
width = 507;
}
);
note = cent;
unicode = 00A2;
},
{
glyphname = sterling;
lastChange = "2017-11-01 11:12:10 +0000";
layers = (
{
layerId = "7CDC14DA-6B60-4478-82C0-E8B54FD96B1C";
paths = (
{
closed = 1;
nodes = (
"137 135 OFFCURVE",
"109 79 OFFCURVE",
"52 48 CURVE",
"52 0 LINE",
"472 0 LINE",
"472 48 LINE",
"112 48 LINE",
"165 84 OFFCURVE",
"186 128 OFFCURVE",
"186 219 CURVE SMOOTH",
"186 349 LINE",
"397 349 LINE",
"404 391 LINE",
"186 391 LINE",
"186 481 LINE SMOOTH",
"186 596 OFFCURVE",
"260 674 OFFCURVE",
"364 674 CURVE SMOOTH",
"401 674 OFFCURVE",
"434 669 OFFCURVE",
"464 660 CURVE",
"471 710 LINE",
"441 719 OFFCURVE",
"407 724 OFFCURVE",
"368 724 CURVE SMOOTH",
"232 724 OFFCURVE",
"137 627 OFFCURVE",
"137 476 CURVE SMOOTH",
"137 391 LINE",
"53 391 LINE",
"53 349 LINE",
"137 349 LINE",
"137 214 LINE SMOOTH"
);
}
);
width = 524;
}
);
note = sterling;
unicode = 00A3;
},
{
glyphname = yen;
lastChange = "2017-11-01 11:12:10 +0000";
layers = (
{
layerId = "7CDC14DA-6B60-4478-82C0-E8B54FD96B1C";
paths = (
{
closed = 1;
nodes = (
"255 302 LINE",
"255 197 LINE",
"58 197 LINE",
"58 155 LINE",
"255 155 LINE",
"255 0 LINE",
"305 0 LINE",
"305 155 LINE",
"502 155 LINE",
"502 197 LINE",
"305 197 LINE",
"305 302 LINE",
"502 302 LINE",
"502 344 LINE",
"325 344 LINE",
"541 714 LINE",
"488 714 LINE",
"280 354 LINE",
"73 714 LINE",
"18 714 LINE",
"232 344 LINE",
"58 344 LINE",
"58 302 LINE"
);
}
);
width = 559;
}
);
note = yen;
unicode = 00A5;
},
{
glyphname = brokenbar;
lastChange = "2017-11-01 11:12:10 +0000";
layers = (
{
layerId = "7CDC14DA-6B60-4478-82C0-E8B54FD96B1C";
paths = (
{
closed = 1;
nodes = (
"95 380 LINE",
"141 380 LINE",
"141 742 LINE",
"95 742 LINE"
);
},
{
closed = 1;
nodes = (
"95 -200 LINE",
"141 -200 LINE",
"141 162 LINE",
"95 162 LINE"
);
}
);
width = 236;
}
);
note = brokenbar;
unicode = 00A6;
},
{
glyphname = section;
lastChange = "2017-11-01 11:12:10 +0000";
layers = (
{
layerId = "7CDC14DA-6B60-4478-82C0-E8B54FD96B1C";
paths = (
{
closed = 1;
nodes = (
"65 213 OFFCURVE",
"101 167 OFFCURVE",
"180 123 CURVE SMOOTH",
"293 60 LINE SMOOTH",
"353 25 OFFCURVE",
"377 -4 OFFCURVE",
"377 -51 CURVE SMOOTH",
"377 -110 OFFCURVE",
"330 -151 OFFCURVE",
"239 -151 CURVE SMOOTH",
"178 -151 OFFCURVE",
"120 -136 OFFCURVE",
"65 -105 CURVE",
"58 -160 LINE",
"109 -187 OFFCURVE",
"171 -201 OFFCURVE",
"242 -201 CURVE SMOOTH",
"363 -201 OFFCURVE",
"430 -142 OFFCURVE",
"430 -51 CURVE SMOOTH",
"430 6 OFFCURVE",
"396 56 OFFCURVE",
"327 98 CURVE",
"401 137 OFFCURVE",
"438 187 OFFCURVE",
"438 248 CURVE SMOOTH",
"438 323 OFFCURVE",
"402 374 OFFCURVE",
"305 422 CURVE SMOOTH",
"207 470 LINE SMOOTH",
"152 497 OFFCURVE",
"125 531 OFFCURVE",
"125 574 CURVE SMOOTH",
"125 634 OFFCURVE",
"169 673 OFFCURVE",
"256 673 CURVE SMOOTH",
"305 673 OFFCURVE",
"354 660 OFFCURVE",
"401 634 CURVE",
"407 688 LINE",
"360 712 OFFCURVE",
"310 724 OFFCURVE",
"255 724 CURVE SMOOTH",
"143 724 OFFCURVE",
"73 660 OFFCURVE",
"73 573 CURVE SMOOTH",
"73 519 OFFCURVE",
"105 473 OFFCURVE",
"169 434 CURVE",
"100 395 OFFCURVE",
"65 345 OFFCURVE",
"65 282 CURVE SMOOTH"
);
},
{
closed = 1;
nodes = (
"115 336 OFFCURVE",
"149 383 OFFCURVE",
"209 412 CURVE",
"277 379 LINE SMOOTH",
"361 338 OFFCURVE",
"386 300 OFFCURVE",
"386 248 CURVE SMOOTH",
"386 197 OFFCURVE",
"347 150 OFFCURVE",
"288 121 CURVE",
"200 168 LINE SMOOTH",
"141 199 OFFCURVE",
"115 233 OFFCURVE",
"115 285 CURVE SMOOTH"
);
}
);
width = 502;
}
);
note = section;
unicode = 00A7;
},
{
glyphname = dieresis;
lastChange = "2017-11-01 11:12:10 +0000";
layers = (
{
layerId = "7CDC14DA-6B60-4478-82C0-E8B54FD96B1C";
paths = (
{
closed = 1;
nodes = (
"195 682 OFFCURVE",
"199 691 OFFCURVE",
"199 703 CURVE SMOOTH",
"199 728 OFFCURVE",
"181 742 OFFCURVE",
"161 742 CURVE SMOOTH",
"141 742 OFFCURVE",
"123 728 OFFCURVE",
"123 703 CURVE SMOOTH",
"123 679 OFFCURVE",
"141 664 OFFCURVE",
"161 664 CURVE SMOOTH",
"171 664 OFFCURVE",
"180 668 OFFCURVE",
"188 675 CURVE"
);
},
{
closed = 1;
nodes = (
"373 682 OFFCURVE",
"377 691 OFFCURVE",
"377 703 CURVE SMOOTH",
"377 728 OFFCURVE",
"359 742 OFFCURVE",
"339 742 CURVE SMOOTH",
"319 742 OFFCURVE",
"301 728 OFFCURVE",
"301 703 CURVE SMOOTH",
"301 679 OFFCURVE",
"319 664 OFFCURVE",
"339 664 CURVE SMOOTH",
"349 664 OFFCURVE",
"358 668 OFFCURVE",
"366 675 CURVE"
);
}
);
width = 500;
}
);
note = dieresis;
unicode = 00A8;
},
{
glyphname = copyright;
lastChange = "2017-11-01 11:12:10 +0000";
layers = (
{
layerId = "7CDC14DA-6B60-4478-82C0-E8B54FD96B1C";
paths = (
{
closed = 1;
nodes = (
"472 148 OFFCURVE",
"508 155 OFFCURVE",
"542 170 CURVE",
"537 217 LINE",
"501 201 OFFCURVE",
"467 193 OFFCURVE",
"436 193 CURVE SMOOTH",
"348 193 OFFCURVE",
"276 255 OFFCURVE",
"276 356 CURVE SMOOTH",
"276 464 OFFCURVE",
"344 522 OFFCURVE",
"435 522 CURVE SMOOTH",
"470 522 OFFCURVE",
"502 515 OFFCURVE",
"533 500 CURVE",
"536 548 LINE",
"504 561 OFFCURVE",
"470 567 OFFCURVE",
"434 567 CURVE SMOOTH",
"314 567 OFFCURVE",
"227 485 OFFCURVE",
"227 357 CURVE SMOOTH",
"227 230 OFFCURVE",
"318 148 OFFCURVE",
"433 148 CURVE SMOOTH"
);
},
{
closed = 1;
nodes = (
"54 150 OFFCURVE",
"205 -10 OFFCURVE",
"422 -10 CURVE SMOOTH",
"635 -10 OFFCURVE",
"791 146 OFFCURVE",
"791 358 CURVE SMOOTH",
"791 566 OFFCURVE",
"638 725 OFFCURVE",
"422 725 CURVE SMOOTH",
"214 725 OFFCURVE",
"54 573 OFFCURVE",
"54 358 CURVE SMOOTH"
);
},
{
closed = 1;
nodes = (
"104 545 OFFCURVE",
"241 677 OFFCURVE",
"422 677 CURVE SMOOTH",
"610 677 OFFCURVE",
"740 541 OFFCURVE",
"740 358 CURVE SMOOTH",
"740 173 OFFCURVE",
"609 38 OFFCURVE",
"422 38 CURVE SMOOTH",
"233 38 OFFCURVE",
"104 175 OFFCURVE",
"104 358 CURVE SMOOTH"
);
}
);
width = 845;
}
);
note = copyright;
unicode = 00A9;
},
{
glyphname = ordfeminine;
lastChange = "2017-11-01 11:12:10 +0000";
layers = (
{
layerId = "7CDC14DA-6B60-4478-82C0-E8B54FD96B1C";
paths = (
{
closed = 1;
nodes = (
"309 330 OFFCURVE",
"304 361 OFFCURVE",
"304 388 CURVE SMOOTH",
"304 524 LINE SMOOTH",
"304 605 OFFCURVE",
"257 648 OFFCURVE",
"182 648 CURVE SMOOTH",
"144 648 OFFCURVE",
"106 639 OFFCURVE",
"67 620 CURVE",
"73 576 LINE",
"111 595 OFFCURVE",
"147 605 OFFCURVE",
"182 605 CURVE SMOOTH",
"234 605 OFFCURVE",
"260 577 OFFCURVE",
"260 522 CURVE SMOOTH",
"260 506 LINE",
"161 489 LINE SMOOTH",
"83 475 OFFCURVE",
"44 441 OFFCURVE",
"44 387 CURVE SMOOTH",
"44 328 OFFCURVE",
"87 291 OFFCURVE",
"150 291 CURVE SMOOTH",
"199 291 OFFCURVE",
"236 311 OFFCURVE",
"262 352 CURVE",
"263 337 OFFCURVE",
"267 318 OFFCURVE",
"272 297 CURVE",
"318 297 LINE"
);
},
{
closed = 1;
nodes = (
"260 383 OFFCURVE",
"223 332 OFFCURVE",
"158 332 CURVE SMOOTH",
"117 332 OFFCURVE",
"91 352 OFFCURVE",
"91 387 CURVE SMOOTH",
"91 424 OFFCURVE",
"116 441 OFFCURVE",
"172 452 CURVE SMOOTH",
"260 469 LINE",
"260 459 LINE SMOOTH"
);
}
);
width = 370;
}
);
note = ordfeminine;
unicode = 00AA;
},
{
glyphname = guillemotleft;
lastChange = "2017-11-01 11:12:10 +0000";
layers = (
{
layerId = "7CDC14DA-6B60-4478-82C0-E8B54FD96B1C";
paths = (
{
closed = 1;
nodes = (
"287 50 LINE",
"102 268 LINE",
"287 486 LINE",
"223 486 LINE",
"40 268 LINE",
"223 50 LINE"
);
},
{
closed = 1;
nodes = (
"456 50 LINE",
"271 268 LINE",
"456 486 LINE",
"392 486 LINE",
"209 268 LINE",
"392 50 LINE"
);
}
);
width = 486;
}
);
note = guillemotleft;
unicode = 00AB;
},
{
glyphname = logicalnot;
lastChange = "2017-11-01 11:12:10 +0000";
layers = (
{
layerId = "7CDC14DA-6B60-4478-82C0-E8B54FD96B1C";
paths = (
{
closed = 1;
nodes = (
"475 435 LINE",
"475 235 LINE",
"520 235 LINE",
"520 480 LINE",
"51 480 LINE",
"51 435 LINE"
);
}
);
width = 572;
}
);
note = logicalnot;
unicode = 00AC;
},
{
glyphname = uni00AD;
lastChange = "2017-11-01 11:12:10 +0000";
layers = (
{
layerId = "7CDC14DA-6B60-4478-82C0-E8B54FD96B1C";
paths = (
{
closed = 1;
nodes = (
"300 291 LINE",
"40 291 LINE",
"40 243 LINE",
"300 243 LINE"
);
}
);
width = 340;
}
);
note = uni00AD;
unicode = 00AD;
},
{
glyphname = registered;
lastChange = "2017-11-01 11:12:10 +0000";
layers = (
{
layerId = "7CDC14DA-6B60-4478-82C0-E8B54FD96B1C";
paths = (
{
closed = 1;
nodes = (
"528 154 LINE",
"582 154 LINE",
"470 327 LINE",
"526 346 OFFCURVE",
"554 382 OFFCURVE",
"554 435 CURVE SMOOTH",
"554 512 OFFCURVE",
"502 561 OFFCURVE",
"406 561 CURVE SMOOTH",
"297 561 LINE",
"297 154 LINE",
"344 154 LINE",
"344 314 LINE",
"426 314 LINE"
);
},
{
closed = 1;
nodes = (
"470 517 OFFCURVE",
"506 488 OFFCURVE",
"506 439 CURVE SMOOTH",
"506 385 OFFCURVE",
"468 358 OFFCURVE",
"393 358 CURVE SMOOTH",
"344 358 LINE",
"344 517 LINE",
"399 517 LINE SMOOTH"
);
},
{
closed = 1;
nodes = (
"54 150 OFFCURVE",
"205 -10 OFFCURVE",
"422 -10 CURVE SMOOTH",
"635 -10 OFFCURVE",
"791 146 OFFCURVE",
"791 358 CURVE SMOOTH",
"791 566 OFFCURVE",
"638 725 OFFCURVE",
"422 725 CURVE SMOOTH",
"214 725 OFFCURVE",
"54 573 OFFCURVE",
"54 358 CURVE SMOOTH"
);
},
{
closed = 1;
nodes = (
"104 545 OFFCURVE",
"241 677 OFFCURVE",
"422 677 CURVE SMOOTH",
"610 677 OFFCURVE",
"740 541 OFFCURVE",
"740 358 CURVE SMOOTH",
"740 173 OFFCURVE",
"609 38 OFFCURVE",
"422 38 CURVE SMOOTH",
"233 38 OFFCURVE",
"104 175 OFFCURVE",
"104 358 CURVE SMOOTH"
);
}
);
width = 845;
}
);
note = registered;
unicode = 00AE;
},
{
glyphname = macron;
lastChange = "2017-11-01 11:12:10 +0000";
layers = (
{
layerId = "7CDC14DA-6B60-4478-82C0-E8B54FD96B1C";
paths = (
{
closed = 1;
nodes = (
"382 742 LINE",
"117 742 LINE",
"117 698 LINE",
"382 698 LINE"
);
}
);
width = 500;
}
);
note = macron;
unicode = 00AF;
},
{
glyphname = degree;
lastChange = "2017-11-01 11:12:10 +0000";
layers = (
{
layerId = "7CDC14DA-6B60-4478-82C0-E8B54FD96B1C";
paths = (
{
closed = 1;
nodes = (
"62 483 OFFCURVE",
"127 420 OFFCURVE",
"214 420 CURVE SMOOTH",
"298 420 OFFCURVE",
"366 483 OFFCURVE",
"366 572 CURVE SMOOTH",
"366 659 OFFCURVE",
"301 724 OFFCURVE",
"214 724 CURVE SMOOTH",
"127 724 OFFCURVE",
"62 659 OFFCURVE",
"62 572 CURVE SMOOTH"
);
},
{
closed = 1;
nodes = (
"158 671 OFFCURVE",
"184 681 OFFCURVE",
"215 681 CURVE SMOOTH",
"278 681 OFFCURVE",
"319 636 OFFCURVE",
"319 572 CURVE SMOOTH",
"319 508 OFFCURVE",
"278 463 OFFCURVE",
"215 463 CURVE SMOOTH",
"154 463 OFFCURVE",
"109 507 OFFCURVE",
"109 572 CURVE SMOOTH",
"109 605 OFFCURVE",
"119 631 OFFCURVE",
"139 651 CURVE SMOOTH"
);
}
);
width = 428;
}
);
note = degree;
unicode = 00B0;
},
{
glyphname = plusminus;
lastChange = "2017-11-01 11:12:10 +0000";
layers = (
{
layerId = "7CDC14DA-6B60-4478-82C0-E8B54FD96B1C";
paths = (
{
closed = 1;
nodes = (
"262 442 LINE",
"51 442 LINE",
"51 397 LINE",
"262 397 LINE",
"262 208 LINE",
"308 208 LINE",
"308 397 LINE",
"520 397 LINE",
"520 442 LINE",
"308 442 LINE",
"308 632 LINE",
"262 632 LINE"
);
},
{
closed = 1;
nodes = (
"520 81 LINE",
"520 126 LINE",
"51 126 LINE",
"51 81 LINE"
);
}
);
width = 572;
}
);
note = plusminus;
unicode = 00B1;
},
{
glyphname = twosuperior;
lastChange = "2017-11-01 11:12:10 +0000";
layers = (
{
layerId = "7CDC14DA-6B60-4478-82C0-E8B54FD96B1C";
paths = (
{
closed = 1;
nodes = (
"110 689 OFFCURVE",
"148 701 OFFCURVE",
"186 701 CURVE SMOOTH",
"239 701 OFFCURVE",
"273 671 OFFCURVE",
"273 619 CURVE SMOOTH",
"273 598 OFFCURVE",
"266 576 OFFCURVE",
"251 553 CURVE SMOOTH",
"236 530 OFFCURVE",
"208 497 OFFCURVE",
"169 456 CURVE SMOOTH",
"52 334 LINE",
"52 297 LINE",
"336 297 LINE",
"336 340 LINE",
"114 340 LINE",
"206 432 LINE SMOOTH",
"291 517 OFFCURVE",
"320 562 OFFCURVE",
"320 618 CURVE SMOOTH",
"320 694 OFFCURVE",
"265 745 OFFCURVE",
"186 745 CURVE SMOOTH",
"145 745 OFFCURVE",
"105 734 OFFCURVE",
"68 711 CURVE",
"73 664 LINE"
);
}
);
width = 383;
}
);
note = twosuperior;
unicode = 00B2;
},
{
glyphname = threesuperior;
lastChange = "2017-11-01 11:12:10 +0000";
layers = (
{
layerId = "7CDC14DA-6B60-4478-82C0-E8B54FD96B1C";
paths = (
{
closed = 1;
nodes = (
"95 305 OFFCURVE",
"139 291 OFFCURVE",
"184 291 CURVE SMOOTH",
"275 291 OFFCURVE",
"334 340 OFFCURVE",
"334 417 CURVE SMOOTH",
"334 473 OFFCURVE",
"298 519 OFFCURVE",
"235 531 CURVE",
"292 549 OFFCURVE",
"320 582 OFFCURVE",
"320 631 CURVE SMOOTH",
"320 698 OFFCURVE",
"262 745 OFFCURVE",
"186 745 CURVE SMOOTH",
"144 745 OFFCURVE",
"104 734 OFFCURVE",
"67 711 CURVE",
"73 666 LINE",
"115 689 OFFCURVE",
"152 701 OFFCURVE",
"185 701 CURVE SMOOTH",
"240 701 OFFCURVE",
"273 673 OFFCURVE",
"273 630 CURVE SMOOTH",
"273 583 OFFCURVE",
"237 550 OFFCURVE",
"150 550 CURVE SMOOTH",
"117 550 LINE",
"117 508 LINE",
"156 508 LINE SMOOTH",
"248 508 OFFCURVE",
"287 472 OFFCURVE",
"287 419 CURVE SMOOTH",
"287 368 OFFCURVE",
"251 335 OFFCURVE",
"184 335 CURVE SMOOTH",
"144 335 OFFCURVE",
"105 349 OFFCURVE",
"66 377 CURVE",
"52 332 LINE"
);
}
);
width = 383;
}
);
note = threesuperior;
unicode = 00B3;
},
{
glyphname = acute;
lastChange = "2017-11-01 11:12:10 +0000";
layers = (
{
layerId = "7CDC14DA-6B60-4478-82C0-E8B54FD96B1C";
paths = (
{
closed = 1;
nodes = (
"320 782 LINE",
"256 782 LINE",
"182 602 LINE",
"220 602 LINE"
);
}
);
width = 500;
}
);
note = acute;
unicode = 00B4;
},
{
glyphname = mu;
lastChange = "2017-11-01 11:12:10 +0000";
layers = (
{
layerId = "7CDC14DA-6B60-4478-82C0-E8B54FD96B1C";
paths = (
{
closed = 1;
nodes = (
"170 15 OFFCURVE",
"220 -10 OFFCURVE",
"287 -10 CURVE SMOOTH",
"380 -10 OFFCURVE",
"448 42 OFFCURVE",
"484 122 CURVE",
"484 0 LINE",
"533 0 LINE",
"533 552 LINE",
"483 552 LINE",
"483 305 LINE SMOOTH",
"483 154 OFFCURVE",
"434 38 OFFCURVE",
"291 38 CURVE SMOOTH",
"190 38 OFFCURVE",
"140 98 OFFCURVE",
"140 218 CURVE SMOOTH",
"140 552 LINE",
"90 552 LINE",
"90 -220 LINE",
"140 -220 LINE",
"140 -134 LINE",
"138 66 LINE"
);
}
);
width = 628;
}
);
note = mu;
unicode = 00B5;
},
{
glyphname = paragraph;
lastChange = "2017-11-01 11:12:10 +0000";
layers = (
{
layerId = "7CDC14DA-6B60-4478-82C0-E8B54FD96B1C";
paths = (
{
closed = 1;
nodes = (
"160 292 OFFCURVE",
"214 272 OFFCURVE",
"280 272 CURVE SMOOTH",
"340 272 LINE",
"340 -220 LINE",
"386 -220 LINE",
"386 668 LINE",
"480 668 LINE",
"480 -220 LINE",
"526 -220 LINE",
"526 714 LINE",
"292 714 LINE SMOOTH",
"143 714 OFFCURVE",
"52 625 OFFCURVE",
"52 493 CURVE SMOOTH",
"52 427 OFFCURVE",
"74 374 OFFCURVE",
"117 333 CURVE SMOOTH"
);
}
);
width = 630;
}
);
note = paragraph;
unicode = 00B6;
},
{
glyphname = periodcentered;
lastChange = "2017-11-01 11:12:10 +0000";
layers = (
{
layerId = "7CDC14DA-6B60-4478-82C0-E8B54FD96B1C";
paths = (
{
closed = 1;
nodes = (
"80 333 OFFCURVE",
"100 315 OFFCURVE",
"125 315 CURVE SMOOTH",
"150 315 OFFCURVE",
"171 333 OFFCURVE",
"171 360 CURVE SMOOTH",
"171 389 OFFCURVE",
"150 406 OFFCURVE",
"125 406 CURVE SMOOTH",
"100 406 OFFCURVE",
"80 389 OFFCURVE",
"80 360 CURVE SMOOTH"
);
}
);
width = 250;
}
);
note = periodcentered;
unicode = 00B7;
},
{
glyphname = cedilla;
lastChange = "2017-11-01 11:12:10 +0000";
layers = (
{
layerId = "7CDC14DA-6B60-4478-82C0-E8B54FD96B1C";
paths = (
{
closed = 1;
nodes = (
"182 -230 LINE",
"246 -230 LINE",
"320 -50 LINE",
"282 -50 LINE"
);
}
);
width = 500;
}
);
note = cedilla;
unicode = 00B8;
},
{
glyphname = onesuperior;
lastChange = "2017-11-01 11:12:10 +0000";
layers = (
{
layerId = "7CDC14DA-6B60-4478-82C0-E8B54FD96B1C";
paths = (
{
closed = 1;
nodes = (
"40 634 LINE",
"65 598 LINE",
"106 627 LINE",
"113 633 OFFCURVE",
"125 642 OFFCURVE",
"140 654 CURVE SMOOTH",
"155 666 OFFCURVE",
"167 675 OFFCURVE",
"175 682 CURVE",
"175 297 LINE",
"218 297 LINE",
"218 739 LINE",
"184 739 LINE"
);
}
);
width = 308;
}
);
note = onesuperior;
unicode = 00B9;
},
{
glyphname = ordmasculine;
lastChange = "2017-11-01 11:12:10 +0000";
layers = (
{
layerId = "7CDC14DA-6B60-4478-82C0-E8B54FD96B1C";
paths = (
{
closed = 1;
nodes = (
"97 557 OFFCURVE",
"136 605 OFFCURVE",
"204 605 CURVE SMOOTH",
"271 605 OFFCURVE",
"317 555 OFFCURVE",
"317 471 CURVE SMOOTH",
"317 388 OFFCURVE",
"275 334 OFFCURVE",
"208 334 CURVE SMOOTH",
"141 334 OFFCURVE",
"97 384 OFFCURVE",
"97 468 CURVE SMOOTH"
);
},
{
closed = 1;
nodes = (
"364 573 OFFCURVE",
"300 649 OFFCURVE",
"207 649 CURVE SMOOTH",
"114 649 OFFCURVE",
"50 578 OFFCURVE",
"50 470 CURVE SMOOTH",
"50 361 OFFCURVE",
"120 290 OFFCURVE",
"205 290 CURVE SMOOTH",
"300 290 OFFCURVE",
"364 362 OFFCURVE",
"364 470 CURVE SMOOTH"
);
}
);
width = 413;
}
);
note = ordmasculine;
unicode = 00BA;
},
{
glyphname = guillemotright;
lastChange = "2017-11-01 11:12:10 +0000";
layers = (
{
layerId = "7CDC14DA-6B60-4478-82C0-E8B54FD96B1C";
paths = (
{
closed = 1;
nodes = (
"215 268 LINE",
"30 50 LINE",
"94 50 LINE",
"277 268 LINE",
"94 486 LINE",
"30 486 LINE"
);
},
{
closed = 1;
nodes = (
"384 268 LINE",
"199 50 LINE",
"263 50 LINE",
"446 268 LINE",
"263 486 LINE",
"199 486 LINE"
);
}
);
width = 486;
}
);
note = guillemotright;
unicode = 00BB;
},
{
glyphname = onequarter;
lastChange = "2017-11-01 11:12:10 +0000";
layers = (
{
layerId = "7CDC14DA-6B60-4478-82C0-E8B54FD96B1C";
paths = (
{
closed = 1;
nodes = (
"40 634 LINE",
"65 598 LINE",
"106 627 LINE",
"113 633 OFFCURVE",
"125 642 OFFCURVE",
"140 654 CURVE SMOOTH",
"155 666 OFFCURVE",
"167 675 OFFCURVE",
"175 682 CURVE",
"175 297 LINE",
"218 297 LINE",
"218 739 LINE",
"184 739 LINE"
);
},
{
closed = 1;
nodes = (
"220 0 LINE",
"678 742 LINE",
"628 742 LINE",
"170 0 LINE"
);
},
{
closed = 1;
nodes = (
"755 445 LINE",
"719 445 LINE",
"492 141 LINE",
"492 108 LINE",
"712 108 LINE",
"712 3 LINE",
"755 3 LINE",
"755 108 LINE",
"819 108 LINE",
"819 150 LINE",
"755 150 LINE"
);
},
{
closed = 1;
nodes = (
"712 375 LINE",
"712 150 LINE",
"553 150 LINE",
"640 271 LINE"
);
}
);
width = 843;
}
);
note = onequarter;
unicode = 00BC;
},
{
glyphname = onehalf;
lastChange = "2017-11-01 11:12:10 +0000";
layers = (
{
layerId = "7CDC14DA-6B60-4478-82C0-E8B54FD96B1C";
paths = (
{
closed = 1;
nodes = (
"40 634 LINE",
"65 598 LINE",
"106 627 LINE",
"113 633 OFFCURVE",
"125 642 OFFCURVE",
"140 654 CURVE SMOOTH",
"155 666 OFFCURVE",
"167 675 OFFCURVE",
"175 682 CURVE",
"175 297 LINE",
"218 297 LINE",
"218 739 LINE",
"184 739 LINE"
);
},
{
closed = 1;
nodes = (
"220 0 LINE",
"678 742 LINE",
"628 742 LINE",
"170 0 LINE"
);
},
{
closed = 1;
nodes = (
"618 395 OFFCURVE",
"656 407 OFFCURVE",
"694 407 CURVE SMOOTH",
"747 407 OFFCURVE",
"781 377 OFFCURVE",
"781 325 CURVE SMOOTH",
"781 304 OFFCURVE",
"774 282 OFFCURVE",
"759 259 CURVE SMOOTH",
"744 236 OFFCURVE",
"716 203 OFFCURVE",
"677 162 CURVE SMOOTH",
"560 40 LINE",
"560 3 LINE",
"844 3 LINE",
"844 46 LINE",
"622 46 LINE",
"714 138 LINE SMOOTH",
"799 223 OFFCURVE",
"828 268 OFFCURVE",
"828 324 CURVE SMOOTH",
"828 400 OFFCURVE",
"773 451 OFFCURVE",
"694 451 CURVE SMOOTH",
"653 451 OFFCURVE",
"613 440 OFFCURVE",
"576 417 CURVE",
"581 370 LINE"
);
}
);
width = 891;
}
);
note = onehalf;
unicode = 00BD;
},
{
glyphname = threequarters;
lastChange = "2017-11-01 11:12:10 +0000";
layers = (
{
layerId = "7CDC14DA-6B60-4478-82C0-E8B54FD96B1C";
paths = (
{
closed = 1;
nodes = (
"95 305 OFFCURVE",
"139 291 OFFCURVE",
"184 291 CURVE SMOOTH",
"275 291 OFFCURVE",
"334 340 OFFCURVE",
"334 417 CURVE SMOOTH",
"334 473 OFFCURVE",
"298 519 OFFCURVE",
"235 531 CURVE",
"292 549 OFFCURVE",
"320 582 OFFCURVE",
"320 631 CURVE SMOOTH",
"320 698 OFFCURVE",
"262 745 OFFCURVE",
"186 745 CURVE SMOOTH",
"144 745 OFFCURVE",
"104 734 OFFCURVE",
"67 711 CURVE",
"73 666 LINE",
"115 689 OFFCURVE",
"152 701 OFFCURVE",
"185 701 CURVE SMOOTH",
"240 701 OFFCURVE",
"273 673 OFFCURVE",
"273 630 CURVE SMOOTH",
"273 583 OFFCURVE",
"237 550 OFFCURVE",
"150 550 CURVE SMOOTH",
"117 550 LINE",
"117 508 LINE",
"156 508 LINE SMOOTH",
"248 508 OFFCURVE",
"287 472 OFFCURVE",
"287 419 CURVE SMOOTH",
"287 368 OFFCURVE",
"251 335 OFFCURVE",
"184 335 CURVE SMOOTH",
"144 335 OFFCURVE",
"105 349 OFFCURVE",
"66 377 CURVE",
"52 332 LINE"
);
},
{
closed = 1;
nodes = (
"311 0 LINE",
"769 742 LINE",
"719 742 LINE",
"261 0 LINE"
);
},
{
closed = 1;
nodes = (
"846 445 LINE",
"810 445 LINE",
"583 141 LINE",
"583 108 LINE",
"803 108 LINE",
"803 3 LINE",
"846 3 LINE",
"846 108 LINE",
"910 108 LINE",
"910 150 LINE",
"846 150 LINE"
);
},
{
closed = 1;
nodes = (
"803 375 LINE",
"803 150 LINE",
"644 150 LINE",
"731 271 LINE"
);
}
);
width = 934;
}
);
note = threequarters;
unicode = 00BE;
},
{
glyphname = questiondown;
lastChange = "2017-11-01 11:12:10 +0000";
layers = (
{
layerId = "7CDC14DA-6B60-4478-82C0-E8B54FD96B1C";
paths = (
{
closed = 1;
nodes = (
"29 69 OFFCURVE",
"109 -10 OFFCURVE",
"236 -10 CURVE SMOOTH",
"294 -10 OFFCURVE",
"351 6 OFFCURVE",
"406 37 CURVE",
"395 88 LINE",
"344 57 OFFCURVE",
"292 41 OFFCURVE",
"237 41 CURVE SMOOTH",
"134 41 OFFCURVE",
"80 93 OFFCURVE",
"80 168 CURVE SMOOTH",
"80 213 OFFCURVE",
"104 257 OFFCURVE",
"151 302 CURVE SMOOTH",
"225 373 LINE SMOOTH",
"265 412 OFFCURVE",
"285 450 OFFCURVE",
"285 486 CURVE SMOOTH",
"285 512 OFFCURVE",
"278 536 OFFCURVE",
"264 557 CURVE",
"232 557 LINE",
"239 535 OFFCURVE",
"243 516 OFFCURVE",
"243 500 CURVE SMOOTH",
"243 469 OFFCURVE",
"226 437 OFFCURVE",
"192 406 CURVE SMOOTH",
"108 329 LINE SMOOTH",
"51 276 OFFCURVE",
"29 230 OFFCURVE",
"29 169 CURVE SMOOTH"
);
},
{
closed = 1;
nodes = (
"292 706 OFFCURVE",
"272 724 OFFCURVE",
"247 724 CURVE SMOOTH",
"222 724 OFFCURVE",
"201 706 OFFCURVE",
"201 679 CURVE SMOOTH",
"201 648 OFFCURVE",
"222 633 OFFCURVE",
"247 633 CURVE SMOOTH",
"272 633 OFFCURVE",
"292 650 OFFCURVE",
"292 679 CURVE SMOOTH"
);
}
);
width = 424;
}
);
note = questiondown;
unicode = 00BF;
},
{
glyphname = Agrave;
lastChange = "2017-11-01 11:12:10 +0000";
layers = (
{
layerId = "7CDC14DA-6B60-4478-82C0-E8B54FD96B1C";
paths = (
{
closed = 1;
nodes = (
"493 195 LINE",
"569 0 LINE",
"626 0 LINE",
"339 714 LINE",
"300 714 LINE",
"12 0 LINE",
"66 0 LINE",
"144 195 LINE"
);
},
{
closed = 1;
nodes = (
"162 243 LINE",
"230 415 LINE",
"320 640 LINE",
"409 414 LINE",
"474 243 LINE"
);
},
{
closed = 1;
nodes = (
"300 754 LINE",
"338 754 LINE",
"264 934 LINE",
"200 934 LINE"
);
}
);
width = 638;
}
);
note = Agrave;
unicode = 00C0;
},
{
glyphname = Aacute;
lastChange = "2017-11-01 11:12:10 +0000";
layers = (
{
layerId = "7CDC14DA-6B60-4478-82C0-E8B54FD96B1C";
paths = (
{
closed = 1;
nodes = (
"493 195 LINE",
"569 0 LINE",
"626 0 LINE",
"339 714 LINE",
"300 714 LINE",
"12 0 LINE",
"66 0 LINE",
"144 195 LINE"
);
},
{
closed = 1;
nodes = (
"162 243 LINE",
"230 415 LINE",
"320 640 LINE",
"409 414 LINE",
"474 243 LINE"
);
},
{
closed = 1;
nodes = (
"432 934 LINE",
"368 934 LINE",
"294 754 LINE",
"332 754 LINE"
);
}
);
width = 638;
}
);
note = Aacute;
unicode = 00C1;
},
{
glyphname = Acircumflex;
lastChange = "2017-11-01 11:12:10 +0000";
layers = (
{
layerId = "7CDC14DA-6B60-4478-82C0-E8B54FD96B1C";
paths = (
{
closed = 1;
nodes = (
"493 195 LINE",
"569 0 LINE",
"626 0 LINE",
"339 714 LINE",
"300 714 LINE",
"12 0 LINE",
"66 0 LINE",
"144 195 LINE"
);
},
{
closed = 1;
nodes = (
"162 243 LINE",
"230 415 LINE",
"320 640 LINE",
"409 414 LINE",
"474 243 LINE"
);
},
{
closed = 1;
nodes = (
"320 884 LINE",
"433 754 LINE",
"476 754 LINE",
"341 934 LINE",
"299 934 LINE",
"165 754 LINE",
"206 754 LINE"
);
}
);
width = 638;
}
);
note = Acircumflex;
unicode = 00C2;
},
{
glyphname = Atilde;
lastChange = "2017-11-01 11:12:10 +0000";
layers = (
{
layerId = "7CDC14DA-6B60-4478-82C0-E8B54FD96B1C";
paths = (
{
closed = 1;
nodes = (
"493 195 LINE",
"569 0 LINE",
"626 0 LINE",
"339 714 LINE",
"300 714 LINE",
"12 0 LINE",
"66 0 LINE",
"144 195 LINE"
);
},
{
closed = 1;
nodes = (
"162 243 LINE",
"230 415 LINE",
"320 640 LINE",
"409 414 LINE",
"474 243 LINE"
);
},
{
closed = 1;
nodes = (
"349 815 OFFCURVE",
"375 807 OFFCURVE",
"395 807 CURVE SMOOTH",
"440 807 OFFCURVE",
"477 839 OFFCURVE",
"486 892 CURVE",
"454 906 LINE",
"443 869 OFFCURVE",
"428 853 OFFCURVE",
"395 853 CURVE SMOOTH",
"381 853 OFFCURVE",
"359 861 OFFCURVE",
"328 877 CURVE SMOOTH",
"293 894 OFFCURVE",
"266 903 OFFCURVE",
"247 903 CURVE SMOOTH",
"202 903 OFFCURVE",
"165 871 OFFCURVE",
"156 818 CURVE",
"188 804 LINE",
"199 841 OFFCURVE",
"214 857 OFFCURVE",
"247 857 CURVE SMOOTH",
"258 857 OFFCURVE",
"281 848 OFFCURVE",
"317 831 CURVE SMOOTH"
);
}
);
width = 638;
}
);
note = Atilde;
unicode = 00C3;
},
{
glyphname = Adieresis;
lastChange = "2017-11-01 11:12:10 +0000";
layers = (
{
layerId = "7CDC14DA-6B60-4478-82C0-E8B54FD96B1C";
paths = (
{
closed = 1;
nodes = (
"493 195 LINE",
"569 0 LINE",
"626 0 LINE",
"339 714 LINE",
"300 714 LINE",
"12 0 LINE",
"66 0 LINE",
"144 195 LINE"
);
},
{
closed = 1;
nodes = (
"162 243 LINE",
"230 415 LINE",
"320 640 LINE",
"409 414 LINE",
"474 243 LINE"
);
},
{
closed = 1;
nodes = (
"265 824 OFFCURVE",
"269 833 OFFCURVE",
"269 845 CURVE SMOOTH",
"269 870 OFFCURVE",
"251 884 OFFCURVE",
"231 884 CURVE SMOOTH",
"211 884 OFFCURVE",
"193 870 OFFCURVE",
"193 845 CURVE SMOOTH",
"193 821 OFFCURVE",
"211 806 OFFCURVE",
"231 806 CURVE SMOOTH",
"241 806 OFFCURVE",
"250 810 OFFCURVE",
"258 817 CURVE"
);
},
{
closed = 1;
nodes = (
"443 824 OFFCURVE",
"447 833 OFFCURVE",
"447 845 CURVE SMOOTH",
"447 870 OFFCURVE",
"429 884 OFFCURVE",
"409 884 CURVE SMOOTH",
"389 884 OFFCURVE",
"371 870 OFFCURVE",
"371 845 CURVE SMOOTH",
"371 821 OFFCURVE",
"389 806 OFFCURVE",
"409 806 CURVE SMOOTH",
"419 806 OFFCURVE",
"428 810 OFFCURVE",
"436 817 CURVE"
);
}
);
width = 638;
}
);
note = Adieresis;
unicode = 00C4;
},
{
glyphname = Aring;
lastChange = "2017-11-01 11:12:10 +0000";
layers = (
{
layerId = "7CDC14DA-6B60-4478-82C0-E8B54FD96B1C";
paths = (
{
closed = 1;
nodes = (
"493 195 LINE",
"569 0 LINE",
"626 0 LINE",
"350 685 LINE",
"399 696 OFFCURVE",
"431 736 OFFCURVE",
"431 788 CURVE SMOOTH",
"431 845 OFFCURVE",
"385 891 OFFCURVE",
"321 891 CURVE SMOOTH",
"257 891 OFFCURVE",
"213 847 OFFCURVE",
"213 787 CURVE SMOOTH",
"213 735 OFFCURVE",
"241 697 OFFCURVE",
"288 685 CURVE",
"12 0 LINE",
"66 0 LINE",
"144 195 LINE"
);
},
{
closed = 1;
nodes = (
"162 243 LINE",
"230 415 LINE",
"320 640 LINE",
"409 414 LINE",
"474 243 LINE"
);
},
{
closed = 1;
nodes = (
"358 725 OFFCURVE",
"342 719 OFFCURVE",
"321 719 CURVE SMOOTH",
"278 719 OFFCURVE",
"253 746 OFFCURVE",
"253 787 CURVE SMOOTH",
"253 827 OFFCURVE",
"281 855 OFFCURVE",
"321 855 CURVE SMOOTH",
"361 855 OFFCURVE",
"389 828 OFFCURVE",
"389 787 CURVE SMOOTH",
"389 766 OFFCURVE",
"383 750 OFFCURVE",
"371 738 CURVE SMOOTH"
);
}
);
width = 638;
}
);
note = Aring;
unicode = 00C5;
},
{
glyphname = AE;
lastChange = "2017-11-01 11:12:10 +0000";
layers = (
{
layerId = "7CDC14DA-6B60-4478-82C0-E8B54FD96B1C";
paths = (
{
closed = 1;
nodes = (
"776 48 LINE",
"606 48 LINE",
"485 351 LINE",
"746 351 LINE",
"746 399 LINE",
"465 399 LINE",
"358 666 LINE",
"766 666 LINE",
"766 714 LINE",
"300 714 LINE",
"12 0 LINE",
"66 0 LINE",
"144 195 LINE",
"493 195 LINE",
"569 0 LINE",
"776 0 LINE"
);
},
{
closed = 1;
nodes = (
"162 243 LINE",
"230 415 LINE",
"320 640 LINE",
"409 414 LINE",
"474 243 LINE"
);
}
);
width = 848;
}
);
note = AE;
unicode = 00C6;
},
{
glyphname = Ccedilla;
lastChange = "2017-11-01 11:12:10 +0000";
layers = (
{
layerId = "7CDC14DA-6B60-4478-82C0-E8B54FD96B1C";
paths = (
{
closed = 1;
nodes = (
"480 -10 OFFCURVE",
"541 0 OFFCURVE",
"590 21 CURVE",
"583 75 LINE",
"530 52 OFFCURVE",
"474 40 OFFCURVE",
"414 40 CURVE SMOOTH",
"246 40 OFFCURVE",
"119 158 OFFCURVE",
"119 354 CURVE SMOOTH",
"119 563 OFFCURVE",
"236 674 OFFCURVE",
"412 674 CURVE SMOOTH",
"470 674 OFFCURVE",
"524 663 OFFCURVE",
"574 642 CURVE",
"581 698 LINE",
"532 715 OFFCURVE",
"475 724 OFFCURVE",
"411 724 CURVE SMOOTH",
"206 724 OFFCURVE",
"65 581 OFFCURVE",
"65 356 CURVE SMOOTH",
"65 132 OFFCURVE",
"216 -10 OFFCURVE",
"409 -10 CURVE SMOOTH"
);
},
{
closed = 1;
nodes = (
"308 -230 LINE",
"372 -230 LINE",
"446 -50 LINE",
"408 -50 LINE"
);
}
);
width = 630;
}
);
note = Ccedilla;
unicode = 00C7;
},
{
glyphname = Egrave;
lastChange = "2017-11-01 11:12:10 +0000";
layers = (
{
layerId = "7CDC14DA-6B60-4478-82C0-E8B54FD96B1C";
paths = (
{
closed = 1;
nodes = (
"154 351 LINE",
"451 351 LINE",
"451 399 LINE",
"154 399 LINE",
"154 666 LINE",
"471 666 LINE",
"471 714 LINE",
"105 714 LINE",
"105 0 LINE",
"481 0 LINE",
"481 48 LINE",
"154 48 LINE"
);
},
{
closed = 1;
nodes = (
"292 754 LINE",
"330 754 LINE",
"256 934 LINE",
"192 934 LINE"
);
}
);
width = 553;
}
);
note = Egrave;
unicode = 00C8;
},
{
glyphname = Eacute;
lastChange = "2017-11-01 11:12:10 +0000";
layers = (
{
layerId = "7CDC14DA-6B60-4478-82C0-E8B54FD96B1C";
paths = (
{
closed = 1;
nodes = (
"154 351 LINE",
"451 351 LINE",
"451 399 LINE",
"154 399 LINE",
"154 666 LINE",
"471 666 LINE",
"471 714 LINE",
"105 714 LINE",
"105 0 LINE",
"481 0 LINE",
"481 48 LINE",
"154 48 LINE"
);
},
{
closed = 1;
nodes = (
"388 934 LINE",
"324 934 LINE",
"250 754 LINE",
"288 754 LINE"
);
}
);
width = 553;
}
);
note = Eacute;
unicode = 00C9;
},
{
glyphname = Ecircumflex;
lastChange = "2017-11-01 11:12:10 +0000";
layers = (
{
layerId = "7CDC14DA-6B60-4478-82C0-E8B54FD96B1C";
paths = (
{
closed = 1;
nodes = (
"154 351 LINE",
"451 351 LINE",
"451 399 LINE",
"154 399 LINE",
"154 666 LINE",
"471 666 LINE",
"471 714 LINE",
"105 714 LINE",
"105 0 LINE",
"481 0 LINE",
"481 48 LINE",
"154 48 LINE"
);
},
{
closed = 1;
nodes = (
"286 884 LINE",
"399 754 LINE",
"442 754 LINE",
"307 934 LINE",
"265 934 LINE",
"131 754 LINE",
"172 754 LINE"
);
}
);
width = 553;
}
);
note = Ecircumflex;
unicode = 00CA;
},
{
glyphname = Edieresis;
lastChange = "2017-11-01 11:12:10 +0000";
layers = (
{
layerId = "7CDC14DA-6B60-4478-82C0-E8B54FD96B1C";
paths = (
{
closed = 1;
nodes = (
"154 351 LINE",
"451 351 LINE",
"451 399 LINE",
"154 399 LINE",
"154 666 LINE",
"471 666 LINE",
"471 714 LINE",
"105 714 LINE",
"105 0 LINE",
"481 0 LINE",
"481 48 LINE",
"154 48 LINE"
);
},
{
closed = 1;
nodes = (
"231 824 OFFCURVE",
"235 833 OFFCURVE",
"235 845 CURVE SMOOTH",
"235 870 OFFCURVE",
"217 884 OFFCURVE",
"197 884 CURVE SMOOTH",
"177 884 OFFCURVE",
"159 870 OFFCURVE",
"159 845 CURVE SMOOTH",
"159 821 OFFCURVE",
"177 806 OFFCURVE",
"197 806 CURVE SMOOTH",
"207 806 OFFCURVE",
"216 810 OFFCURVE",
"224 817 CURVE"
);
},
{
closed = 1;
nodes = (
"409 824 OFFCURVE",
"413 833 OFFCURVE",
"413 845 CURVE SMOOTH",
"413 870 OFFCURVE",
"395 884 OFFCURVE",
"375 884 CURVE SMOOTH",
"355 884 OFFCURVE",
"337 870 OFFCURVE",
"337 845 CURVE SMOOTH",
"337 821 OFFCURVE",
"355 806 OFFCURVE",
"375 806 CURVE SMOOTH",
"385 806 OFFCURVE",
"394 810 OFFCURVE",
"402 817 CURVE"
);
}
);
width = 553;
}
);
note = Edieresis;
unicode = 00CB;
},
{
glyphname = Igrave;
lastChange = "2017-11-01 11:12:10 +0000";
layers = (
{
layerId = "7CDC14DA-6B60-4478-82C0-E8B54FD96B1C";
paths = (
{
closed = 1;
nodes = (
"105 714 LINE",
"105 0 LINE",
"154 0 LINE",
"154 714 LINE"
);
},
{
closed = 1;
nodes = (
"121 754 LINE",
"159 754 LINE",
"85 934 LINE",
"21 934 LINE"
);
}
);
width = 259;
}
);
note = Igrave;
unicode = 00CC;
},
{
glyphname = Iacute;
lastChange = "2017-11-01 11:12:10 +0000";
layers = (
{
layerId = "7CDC14DA-6B60-4478-82C0-E8B54FD96B1C";
paths = (
{
closed = 1;
nodes = (
"105 714 LINE",
"105 0 LINE",
"154 0 LINE",
"154 714 LINE"
);
},
{
closed = 1;
nodes = (
"237 934 LINE",
"173 934 LINE",
"99 754 LINE",
"137 754 LINE"
);
}
);
width = 259;
}
);
note = Iacute;
unicode = 00CD;
},
{
glyphname = Icircumflex;
lastChange = "2017-11-01 11:12:10 +0000";
layers = (
{
layerId = "7CDC14DA-6B60-4478-82C0-E8B54FD96B1C";
paths = (
{
closed = 1;
nodes = (
"105 714 LINE",
"105 0 LINE",
"154 0 LINE",
"154 714 LINE"
);
},
{
closed = 1;
nodes = (
"128 884 LINE",
"241 754 LINE",
"284 754 LINE",
"149 934 LINE",
"107 934 LINE",
"-27 754 LINE",
"14 754 LINE"
);
}
);
width = 259;
}
);
note = Icircumflex;
unicode = 00CE;
},
{
glyphname = Idieresis;
lastChange = "2017-11-01 11:12:10 +0000";
layers = (
{
layerId = "7CDC14DA-6B60-4478-82C0-E8B54FD96B1C";
paths = (
{
closed = 1;
nodes = (
"105 714 LINE",
"105 0 LINE",
"154 0 LINE",
"154 714 LINE"
);
},
{
closed = 1;
nodes = (
"70 824 OFFCURVE",
"74 833 OFFCURVE",
"74 845 CURVE SMOOTH",
"74 870 OFFCURVE",
"56 884 OFFCURVE",
"36 884 CURVE SMOOTH",
"16 884 OFFCURVE",
"-2 870 OFFCURVE",
"-2 845 CURVE SMOOTH",
"-2 821 OFFCURVE",
"16 806 OFFCURVE",
"36 806 CURVE SMOOTH",
"46 806 OFFCURVE",
"55 810 OFFCURVE",
"63 817 CURVE"
);
},
{
closed = 1;
nodes = (
"248 824 OFFCURVE",
"252 833 OFFCURVE",
"252 845 CURVE SMOOTH",
"252 870 OFFCURVE",
"234 884 OFFCURVE",
"214 884 CURVE SMOOTH",
"194 884 OFFCURVE",
"176 870 OFFCURVE",
"176 845 CURVE SMOOTH",
"176 821 OFFCURVE",
"194 806 OFFCURVE",
"214 806 CURVE SMOOTH",
"224 806 OFFCURVE",
"233 810 OFFCURVE",
"241 817 CURVE"
);
}
);
width = 259;
}
);
note = Idieresis;
unicode = 00CF;
},
{
glyphname = Eth;
lastChange = "2017-11-01 11:12:10 +0000";
layers = (
{
layerId = "7CDC14DA-6B60-4478-82C0-E8B54FD96B1C";
paths = (
{
closed = 1;
nodes = (
"12 381 LINE",
"12 339 LINE",
"114 339 LINE",
"114 0 LINE",
"287 0 LINE SMOOTH",
"496 0 OFFCURVE",
"639 135 OFFCURVE",
"639 356 CURVE SMOOTH",
"639 577 OFFCURVE",
"509 714 OFFCURVE",
"305 714 CURVE SMOOTH",
"114 714 LINE",
"114 381 LINE"
);
},
{
closed = 1;
nodes = (
"478 668 OFFCURVE",
"585 559 OFFCURVE",
"585 354 CURVE SMOOTH",
"585 159 OFFCURVE",
"467 46 OFFCURVE",
"287 46 CURVE SMOOTH",
"163 46 LINE",
"163 339 LINE",
"387 339 LINE",
"387 381 LINE",
"163 381 LINE",
"163 668 LINE",
"303 668 LINE SMOOTH"
);
}
);
width = 704;
}
);
note = Eth;
unicode = 00D0;
},
{
glyphname = Ntilde;
lastChange = "2017-11-01 11:12:10 +0000";
layers = (
{
layerId = "7CDC14DA-6B60-4478-82C0-E8B54FD96B1C";
paths = (
{
closed = 1;
nodes = (
"604 714 LINE",
"604 408 LINE",
"607 100 LINE",
"150 714 LINE",
"104 714 LINE",
"104 0 LINE",
"151 0 LINE",
"151 367 LINE",
"148 632 LINE",
"620 0 LINE",
"651 0 LINE",
"651 714 LINE"
);
},
{
closed = 1;
nodes = (
"414 815 OFFCURVE",
"440 807 OFFCURVE",
"460 807 CURVE SMOOTH",
"505 807 OFFCURVE",
"542 839 OFFCURVE",
"551 892 CURVE",
"519 906 LINE",
"508 869 OFFCURVE",
"493 853 OFFCURVE",
"460 853 CURVE SMOOTH",
"446 853 OFFCURVE",
"424 861 OFFCURVE",
"393 877 CURVE SMOOTH",
"358 894 OFFCURVE",
"331 903 OFFCURVE",
"312 903 CURVE SMOOTH",
"267 903 OFFCURVE",
"230 871 OFFCURVE",
"221 818 CURVE",
"253 804 LINE",
"264 841 OFFCURVE",
"279 857 OFFCURVE",
"312 857 CURVE SMOOTH",
"323 857 OFFCURVE",
"346 848 OFFCURVE",
"382 831 CURVE SMOOTH"
);
}
);
width = 755;
}
);
note = Ntilde;
unicode = 00D1;
},
{
glyphname = Ograve;
lastChange = "2017-11-01 11:12:10 +0000";
layers = (
{
layerId = "7CDC14DA-6B60-4478-82C0-E8B54FD96B1C";
paths = (
{
closed = 1;
nodes = (
"710 566 OFFCURVE",
"582 724 OFFCURVE",
"387 724 CURVE SMOOTH",
"190 724 OFFCURVE",
"65 578 OFFCURVE",
"65 357 CURVE SMOOTH",
"65 148 OFFCURVE",
"193 -10 OFFCURVE",
"388 -10 CURVE SMOOTH",
"585 -10 OFFCURVE",
"710 136 OFFCURVE",
"710 357 CURVE SMOOTH"
);
},
{
closed = 1;
nodes = (
"656 163 OFFCURVE",
"553 40 OFFCURVE",
"392 40 CURVE SMOOTH",
"232 40 OFFCURVE",
"119 167 OFFCURVE",
"119 354 CURVE SMOOTH",
"119 551 OFFCURVE",
"222 674 OFFCURVE",
"383 674 CURVE SMOOTH",
"543 674 OFFCURVE",
"656 547 OFFCURVE",
"656 360 CURVE SMOOTH"
);
},
{
closed = 1;
nodes = (
"380 754 LINE",
"418 754 LINE",
"344 934 LINE",
"280 934 LINE"
);
}
);
width = 775;
}
);
note = Ograve;
unicode = 00D2;
},
{
glyphname = Oacute;
lastChange = "2017-11-01 11:12:10 +0000";
layers = (
{
layerId = "7CDC14DA-6B60-4478-82C0-E8B54FD96B1C";
paths = (
{
closed = 1;
nodes = (
"710 566 OFFCURVE",
"582 724 OFFCURVE",
"387 724 CURVE SMOOTH",
"190 724 OFFCURVE",
"65 578 OFFCURVE",
"65 357 CURVE SMOOTH",
"65 148 OFFCURVE",
"193 -10 OFFCURVE",
"388 -10 CURVE SMOOTH",
"585 -10 OFFCURVE",
"710 136 OFFCURVE",
"710 357 CURVE SMOOTH"
);
},
{
closed = 1;
nodes = (
"656 163 OFFCURVE",
"553 40 OFFCURVE",
"392 40 CURVE SMOOTH",
"232 40 OFFCURVE",
"119 167 OFFCURVE",
"119 354 CURVE SMOOTH",
"119 551 OFFCURVE",
"222 674 OFFCURVE",
"383 674 CURVE SMOOTH",
"543 674 OFFCURVE",
"656 547 OFFCURVE",
"656 360 CURVE SMOOTH"
);
},
{
closed = 1;
nodes = (
"497 934 LINE",
"433 934 LINE",
"359 754 LINE",
"397 754 LINE"
);
}
);
width = 775;
}
);
note = Oacute;
unicode = 00D3;
},
{
glyphname = Ocircumflex;
lastChange = "2017-11-01 11:12:10 +0000";
layers = (
{
layerId = "7CDC14DA-6B60-4478-82C0-E8B54FD96B1C";
paths = (
{
closed = 1;
nodes = (
"710 566 OFFCURVE",
"582 724 OFFCURVE",
"387 724 CURVE SMOOTH",
"190 724 OFFCURVE",
"65 578 OFFCURVE",
"65 357 CURVE SMOOTH",
"65 148 OFFCURVE",
"193 -10 OFFCURVE",
"388 -10 CURVE SMOOTH",
"585 -10 OFFCURVE",
"710 136 OFFCURVE",
"710 357 CURVE SMOOTH"
);
},
{
closed = 1;
nodes = (
"656 163 OFFCURVE",
"553 40 OFFCURVE",
"392 40 CURVE SMOOTH",
"232 40 OFFCURVE",
"119 167 OFFCURVE",
"119 354 CURVE SMOOTH",
"119 551 OFFCURVE",
"222 674 OFFCURVE",
"383 674 CURVE SMOOTH",
"543 674 OFFCURVE",
"656 547 OFFCURVE",
"656 360 CURVE SMOOTH"
);
},
{
closed = 1;
nodes = (
"386 884 LINE",
"499 754 LINE",
"542 754 LINE",
"407 934 LINE",
"365 934 LINE",
"231 754 LINE",
"272 754 LINE"
);
}
);
width = 775;
}
);
note = Ocircumflex;
unicode = 00D4;
},
{
glyphname = Otilde;
lastChange = "2017-11-01 11:12:10 +0000";
layers = (
{
layerId = "7CDC14DA-6B60-4478-82C0-E8B54FD96B1C";
paths = (
{
closed = 1;
nodes = (
"710 566 OFFCURVE",
"582 724 OFFCURVE",
"387 724 CURVE SMOOTH",
"190 724 OFFCURVE",
"65 578 OFFCURVE",
"65 357 CURVE SMOOTH",
"65 148 OFFCURVE",
"193 -10 OFFCURVE",
"388 -10 CURVE SMOOTH",
"585 -10 OFFCURVE",
"710 136 OFFCURVE",
"710 357 CURVE SMOOTH"
);
},
{
closed = 1;
nodes = (
"656 163 OFFCURVE",
"553 40 OFFCURVE",
"392 40 CURVE SMOOTH",
"232 40 OFFCURVE",
"119 167 OFFCURVE",
"119 354 CURVE SMOOTH",
"119 551 OFFCURVE",
"222 674 OFFCURVE",
"383 674 CURVE SMOOTH",
"543 674 OFFCURVE",
"656 547 OFFCURVE",
"656 360 CURVE SMOOTH"
);
},
{
closed = 1;
nodes = (
"422 815 OFFCURVE",
"448 807 OFFCURVE",
"468 807 CURVE SMOOTH",
"513 807 OFFCURVE",
"550 839 OFFCURVE",
"559 892 CURVE",
"527 906 LINE",
"516 869 OFFCURVE",
"501 853 OFFCURVE",
"468 853 CURVE SMOOTH",
"454 853 OFFCURVE",
"432 861 OFFCURVE",
"401 877 CURVE SMOOTH",
"366 894 OFFCURVE",
"339 903 OFFCURVE",
"320 903 CURVE SMOOTH",
"275 903 OFFCURVE",
"238 871 OFFCURVE",
"229 818 CURVE",
"261 804 LINE",
"272 841 OFFCURVE",
"287 857 OFFCURVE",
"320 857 CURVE SMOOTH",
"331 857 OFFCURVE",
"354 848 OFFCURVE",
"390 831 CURVE SMOOTH"
);
}
);
width = 775;
}
);
note = Otilde;
unicode = 00D5;
},
{
glyphname = Odieresis;
lastChange = "2017-11-01 11:12:10 +0000";
layers = (
{
layerId = "7CDC14DA-6B60-4478-82C0-E8B54FD96B1C";
paths = (
{
closed = 1;
nodes = (
"710 566 OFFCURVE",
"582 724 OFFCURVE",
"387 724 CURVE SMOOTH",
"190 724 OFFCURVE",
"65 578 OFFCURVE",
"65 357 CURVE SMOOTH",
"65 148 OFFCURVE",
"193 -10 OFFCURVE",
"388 -10 CURVE SMOOTH",
"585 -10 OFFCURVE",
"710 136 OFFCURVE",
"710 357 CURVE SMOOTH"
);
},
{
closed = 1;
nodes = (
"656 163 OFFCURVE",
"553 40 OFFCURVE",
"392 40 CURVE SMOOTH",
"232 40 OFFCURVE",
"119 167 OFFCURVE",
"119 354 CURVE SMOOTH",
"119 551 OFFCURVE",
"222 674 OFFCURVE",
"383 674 CURVE SMOOTH",
"543 674 OFFCURVE",
"656 547 OFFCURVE",
"656 360 CURVE SMOOTH"
);
},
{
closed = 1;
nodes = (
"332 824 OFFCURVE",
"336 833 OFFCURVE",
"336 845 CURVE SMOOTH",
"336 870 OFFCURVE",
"318 884 OFFCURVE",
"298 884 CURVE SMOOTH",
"278 884 OFFCURVE",
"260 870 OFFCURVE",
"260 845 CURVE SMOOTH",
"260 821 OFFCURVE",
"278 806 OFFCURVE",
"298 806 CURVE SMOOTH",
"308 806 OFFCURVE",
"317 810 OFFCURVE",
"325 817 CURVE"
);
},
{
closed = 1;
nodes = (
"510 824 OFFCURVE",
"514 833 OFFCURVE",
"514 845 CURVE SMOOTH",
"514 870 OFFCURVE",
"496 884 OFFCURVE",
"476 884 CURVE SMOOTH",
"456 884 OFFCURVE",
"438 870 OFFCURVE",
"438 845 CURVE SMOOTH",
"438 821 OFFCURVE",
"456 806 OFFCURVE",
"476 806 CURVE SMOOTH",
"486 806 OFFCURVE",
"495 810 OFFCURVE",
"503 817 CURVE"
);
}
);
width = 775;
}
);
note = Odieresis;
unicode = 00D6;
},
{
glyphname = multiply;
lastChange = "2017-11-01 11:12:10 +0000";
layers = (
{
layerId = "7CDC14DA-6B60-4478-82C0-E8B54FD96B1C";
paths = (
{
closed = 1;
nodes = (
"253 357 LINE",
"104 208 LINE",
"136 176 LINE",
"285 325 LINE",
"440 171 LINE",
"472 203 LINE",
"318 358 LINE",
"467 508 LINE",
"436 540 LINE",
"286 390 LINE",
"130 545 LINE",
"98 513 LINE"
);
}
);
width = 572;
}
);
note = multiply;
unicode = 00D7;
},
{
glyphname = Oslash;
lastChange = "2017-11-01 11:12:10 +0000";
layers = (
{
layerId = "7CDC14DA-6B60-4478-82C0-E8B54FD96B1C";
paths = (
{
closed = 1;
nodes = (
"710 566 OFFCURVE",
"582 724 OFFCURVE",
"387 724 CURVE SMOOTH",
"190 724 OFFCURVE",
"65 578 OFFCURVE",
"65 357 CURVE SMOOTH",
"65 148 OFFCURVE",
"193 -10 OFFCURVE",
"388 -10 CURVE SMOOTH",
"585 -10 OFFCURVE",
"710 136 OFFCURVE",
"710 357 CURVE SMOOTH"
);
},
{
closed = 1;
nodes = (
"656 163 OFFCURVE",
"553 40 OFFCURVE",
"392 40 CURVE SMOOTH",
"232 40 OFFCURVE",
"119 167 OFFCURVE",
"119 354 CURVE SMOOTH",
"119 551 OFFCURVE",
"222 674 OFFCURVE",
"383 674 CURVE SMOOTH",
"543 674 OFFCURVE",
"656 547 OFFCURVE",
"656 360 CURVE SMOOTH"
);
},
{
closed = 1;
nodes = (
"659 781 LINE",
"623 802 LINE",
"123 -64 LINE",
"160 -85 LINE"
);
}
);
width = 775;
}
);
note = Oslash;
unicode = 00D8;
},
{
glyphname = Ugrave;
lastChange = "2017-11-01 11:12:10 +0000";
layers = (
{
layerId = "7CDC14DA-6B60-4478-82C0-E8B54FD96B1C";
paths = (
{
closed = 1;
nodes = (
"551 113 OFFCURVE",
"470 39 OFFCURVE",
"345 39 CURVE SMOOTH",
"221 39 OFFCURVE",
"142 112 OFFCURVE",
"142 244 CURVE SMOOTH",
"142 714 LINE",
"92 714 LINE",
"92 247 LINE SMOOTH",
"92 84 OFFCURVE",
"192 -10 OFFCURVE",
"345 -10 CURVE SMOOTH",
"498 -10 OFFCURVE",
"598 86 OFFCURVE",
"598 251 CURVE SMOOTH",
"598 714 LINE",
"551 714 LINE",
"551 245 LINE SMOOTH"
);
},
{
closed = 1;
nodes = (
"342 754 LINE",
"380 754 LINE",
"306 934 LINE",
"242 934 LINE"
);
}
);
width = 690;
}
);
note = Ugrave;
unicode = 00D9;
},
{
glyphname = Uacute;
lastChange = "2017-11-01 11:12:10 +0000";
layers = (
{
layerId = "7CDC14DA-6B60-4478-82C0-E8B54FD96B1C";
paths = (
{
closed = 1;
nodes = (
"551 113 OFFCURVE",
"470 39 OFFCURVE",
"345 39 CURVE SMOOTH",
"221 39 OFFCURVE",
"142 112 OFFCURVE",
"142 244 CURVE SMOOTH",
"142 714 LINE",
"92 714 LINE",
"92 247 LINE SMOOTH",
"92 84 OFFCURVE",
"192 -10 OFFCURVE",
"345 -10 CURVE SMOOTH",
"498 -10 OFFCURVE",
"598 86 OFFCURVE",
"598 251 CURVE SMOOTH",
"598 714 LINE",
"551 714 LINE",
"551 245 LINE SMOOTH"
);
},
{
closed = 1;
nodes = (
"458 934 LINE",
"394 934 LINE",
"320 754 LINE",
"358 754 LINE"
);
}
);
width = 690;
}
);
note = Uacute;
unicode = 00DA;
},
{
glyphname = Ucircumflex;
lastChange = "2017-11-01 11:12:10 +0000";
layers = (
{
layerId = "7CDC14DA-6B60-4478-82C0-E8B54FD96B1C";
paths = (
{
closed = 1;
nodes = (
"551 113 OFFCURVE",
"470 39 OFFCURVE",
"345 39 CURVE SMOOTH",
"221 39 OFFCURVE",
"142 112 OFFCURVE",
"142 244 CURVE SMOOTH",
"142 714 LINE",
"92 714 LINE",
"92 247 LINE SMOOTH",
"92 84 OFFCURVE",
"192 -10 OFFCURVE",
"345 -10 CURVE SMOOTH",
"498 -10 OFFCURVE",
"598 86 OFFCURVE",
"598 251 CURVE SMOOTH",
"598 714 LINE",
"551 714 LINE",
"551 245 LINE SMOOTH"
);
},
{
closed = 1;
nodes = (
"346 884 LINE",
"459 754 LINE",
"502 754 LINE",
"367 934 LINE",
"325 934 LINE",
"191 754 LINE",
"232 754 LINE"
);
}
);
width = 690;
}
);
note = Ucircumflex;
unicode = 00DB;
},
{
glyphname = Udieresis;
lastChange = "2017-11-01 11:12:10 +0000";
layers = (
{
layerId = "7CDC14DA-6B60-4478-82C0-E8B54FD96B1C";
paths = (
{
closed = 1;
nodes = (
"551 113 OFFCURVE",
"470 39 OFFCURVE",
"345 39 CURVE SMOOTH",
"221 39 OFFCURVE",
"142 112 OFFCURVE",
"142 244 CURVE SMOOTH",
"142 714 LINE",
"92 714 LINE",
"92 247 LINE SMOOTH",
"92 84 OFFCURVE",
"192 -10 OFFCURVE",
"345 -10 CURVE SMOOTH",
"498 -10 OFFCURVE",
"598 86 OFFCURVE",
"598 251 CURVE SMOOTH",
"598 714 LINE",
"551 714 LINE",
"551 245 LINE SMOOTH"
);
},
{
closed = 1;
nodes = (
"289 824 OFFCURVE",
"293 833 OFFCURVE",
"293 845 CURVE SMOOTH",
"293 870 OFFCURVE",
"275 884 OFFCURVE",
"255 884 CURVE SMOOTH",
"235 884 OFFCURVE",
"217 870 OFFCURVE",
"217 845 CURVE SMOOTH",
"217 821 OFFCURVE",
"235 806 OFFCURVE",
"255 806 CURVE SMOOTH",
"265 806 OFFCURVE",
"274 810 OFFCURVE",
"282 817 CURVE"
);
},
{
closed = 1;
nodes = (
"467 824 OFFCURVE",
"471 833 OFFCURVE",
"471 845 CURVE SMOOTH",
"471 870 OFFCURVE",
"453 884 OFFCURVE",
"433 884 CURVE SMOOTH",
"413 884 OFFCURVE",
"395 870 OFFCURVE",
"395 845 CURVE SMOOTH",
"395 821 OFFCURVE",
"413 806 OFFCURVE",
"433 806 CURVE SMOOTH",
"443 806 OFFCURVE",
"452 810 OFFCURVE",
"460 817 CURVE"
);
}
);
width = 690;
}
);
note = Udieresis;
unicode = 00DC;
},
{
glyphname = Yacute;
lastChange = "2017-11-01 11:12:10 +0000";
layers = (
{
layerId = "7CDC14DA-6B60-4478-82C0-E8B54FD96B1C";
paths = (
{
closed = 1;
nodes = (
"255 305 LINE",
"255 0 LINE",
"305 0 LINE",
"305 309 LINE",
"541 714 LINE",
"488 714 LINE",
"280 354 LINE",
"73 714 LINE",
"18 714 LINE"
);
},
{
closed = 1;
nodes = (
"394 934 LINE",
"330 934 LINE",
"256 754 LINE",
"294 754 LINE"
);
}
);
width = 559;
}
);
note = Yacute;
unicode = 00DD;
},
{
glyphname = Thorn;
lastChange = "2017-11-01 11:12:10 +0000";
layers = (
{
layerId = "7CDC14DA-6B60-4478-82C0-E8B54FD96B1C";
paths = (
{
closed = 1;
nodes = (
"442 147 OFFCURVE",
"539 218 OFFCURVE",
"539 357 CURVE SMOOTH",
"539 485 OFFCURVE",
"450 566 OFFCURVE",
"291 566 CURVE SMOOTH",
"154 566 LINE",
"154 714 LINE",
"105 714 LINE",
"105 0 LINE",
"154 0 LINE",
"154 147 LINE",
"274 147 LINE SMOOTH"
);
},
{
closed = 1;
nodes = (
"415 518 OFFCURVE",
"486 459 OFFCURVE",
"486 358 CURVE SMOOTH",
"486 251 OFFCURVE",
"411 194 OFFCURVE",
"276 194 CURVE SMOOTH",
"154 194 LINE",
"154 518 LINE",
"287 518 LINE SMOOTH"
);
}
);
width = 591;
}
);
note = Thorn;
unicode = 00DE;
},
{
glyphname = germandbls;
lastChange = "2017-11-01 11:12:10 +0000";
layers = (
{
layerId = "7CDC14DA-6B60-4478-82C0-E8B54FD96B1C";
paths = (
{
closed = 1;
nodes = (
"570 191 OFFCURVE",
"546 226 OFFCURVE",
"485 270 CURVE SMOOTH",
"411 323 LINE SMOOTH",
"366 355 OFFCURVE",
"348 374 OFFCURVE",
"348 406 CURVE SMOOTH",
"348 431 OFFCURVE",
"357 448 OFFCURVE",
"390 477 CURVE SMOOTH",
"423 508 LINE SMOOTH",
"452 535 OFFCURVE",
"467 569 OFFCURVE",
"467 609 CURVE SMOOTH",
"467 693 OFFCURVE",
"400 762 OFFCURVE",
"288 762 CURVE SMOOTH",
"164 762 OFFCURVE",
"95 673 OFFCURVE",
"95 554 CURVE SMOOTH",
"95 0 LINE",
"144 0 LINE",
"144 554 LINE SMOOTH",
"144 646 OFFCURVE",
"193 711 OFFCURVE",
"288 711 CURVE SMOOTH",
"371 711 OFFCURVE",
"416 665 OFFCURVE",
"416 609 CURVE SMOOTH",
"416 581 OFFCURVE",
"403 554 OFFCURVE",
"378 529 CURVE SMOOTH",
"346 498 LINE SMOOTH",
"315 468 OFFCURVE",
"300 436 OFFCURVE",
"300 402 CURVE SMOOTH",
"300 359 OFFCURVE",
"325 321 OFFCURVE",
"374 287 CURVE SMOOTH",
"456 230 LINE SMOOTH",
"497 201 OFFCURVE",
"516 175 OFFCURVE",
"516 131 CURVE SMOOTH",
"516 79 OFFCURVE",
"475 40 OFFCURVE",
"402 40 CURVE SMOOTH",
"349 40 OFFCURVE",
"301 52 OFFCURVE",
"260 75 CURVE",
"251 19 LINE",
"293 -1 OFFCURVE",
"343 -11 OFFCURVE",
"401 -11 CURVE SMOOTH",
"501 -11 OFFCURVE",
"570 46 OFFCURVE",
"570 131 CURVE SMOOTH"
);
}
);
width = 614;
}
);
note = germandbls;
unicode = 00DF;
},
{
glyphname = agrave;
lastChange = "2017-11-01 11:12:10 +0000";
layers = (
{
layerId = "7CDC14DA-6B60-4478-82C0-E8B54FD96B1C";
paths = (
{
closed = 1;
nodes = (
"412 73 OFFCURVE",
"417 39 OFFCURVE",
"427 0 CURVE",
"480 0 LINE",
"468 42 OFFCURVE",
"462 89 OFFCURVE",
"462 140 CURVE SMOOTH",
"462 366 LINE SMOOTH",
"462 495 OFFCURVE",
"387 562 OFFCURVE",
"270 562 CURVE SMOOTH",
"212 562 OFFCURVE",
"152 547 OFFCURVE",
"91 517 CURVE",
"99 470 LINE",
"164 499 OFFCURVE",
"221 514 OFFCURVE",
"270 514 CURVE SMOOTH",
"365 514 OFFCURVE",
"412 464 OFFCURVE",
"412 364 CURVE SMOOTH",
"412 328 LINE",
"236 300 LINE SMOOTH",
"113 279 OFFCURVE",
"52 226 OFFCURVE",
"52 139 CURVE SMOOTH",
"52 48 OFFCURVE",
"118 -10 OFFCURVE",
"217 -10 CURVE SMOOTH",
"305 -10 OFFCURVE",
"370 27 OFFCURVE",
"412 102 CURVE"
);
},
{
closed = 1;
nodes = (
"412 124 OFFCURVE",
"348 36 OFFCURVE",
"227 36 CURVE SMOOTH",
"154 36 OFFCURVE",
"106 75 OFFCURVE",
"106 139 CURVE SMOOTH",
"106 208 OFFCURVE",
"152 238 OFFCURVE",
"251 257 CURVE SMOOTH",
"412 286 LINE",
"412 259 LINE SMOOTH"
);
},
{
closed = 1;
nodes = (
"258 602 LINE",
"296 602 LINE",
"222 782 LINE",
"158 782 LINE"
);
}
);
width = 550;
}
);
note = agrave;
unicode = 00E0;
},
{
glyphname = aacute;
lastChange = "2017-11-01 11:12:10 +0000";
layers = (
{
layerId = "7CDC14DA-6B60-4478-82C0-E8B54FD96B1C";
paths = (
{
closed = 1;
nodes = (
"412 73 OFFCURVE",
"417 39 OFFCURVE",
"427 0 CURVE",
"480 0 LINE",
"468 42 OFFCURVE",
"462 89 OFFCURVE",
"462 140 CURVE SMOOTH",
"462 366 LINE SMOOTH",
"462 495 OFFCURVE",
"387 562 OFFCURVE",
"270 562 CURVE SMOOTH",
"212 562 OFFCURVE",
"152 547 OFFCURVE",
"91 517 CURVE",
"99 470 LINE",
"164 499 OFFCURVE",
"221 514 OFFCURVE",
"270 514 CURVE SMOOTH",
"365 514 OFFCURVE",
"412 464 OFFCURVE",
"412 364 CURVE SMOOTH",
"412 328 LINE",
"236 300 LINE SMOOTH",
"113 279 OFFCURVE",
"52 226 OFFCURVE",
"52 139 CURVE SMOOTH",
"52 48 OFFCURVE",
"118 -10 OFFCURVE",
"217 -10 CURVE SMOOTH",
"305 -10 OFFCURVE",
"370 27 OFFCURVE",
"412 102 CURVE"
);
},
{
closed = 1;
nodes = (
"412 124 OFFCURVE",
"348 36 OFFCURVE",
"227 36 CURVE SMOOTH",
"154 36 OFFCURVE",
"106 75 OFFCURVE",
"106 139 CURVE SMOOTH",
"106 208 OFFCURVE",
"152 238 OFFCURVE",
"251 257 CURVE SMOOTH",
"412 286 LINE",
"412 259 LINE SMOOTH"
);
},
{
closed = 1;
nodes = (
"371 782 LINE",
"307 782 LINE",
"233 602 LINE",
"271 602 LINE"
);
}
);
width = 550;
}
);
note = aacute;
unicode = 00E1;
},
{
glyphname = acircumflex;
lastChange = "2017-11-01 11:12:10 +0000";
layers = (
{
layerId = "7CDC14DA-6B60-4478-82C0-E8B54FD96B1C";
paths = (
{
closed = 1;
nodes = (
"412 73 OFFCURVE",
"417 39 OFFCURVE",
"427 0 CURVE",
"480 0 LINE",
"468 42 OFFCURVE",
"462 89 OFFCURVE",
"462 140 CURVE SMOOTH",
"462 366 LINE SMOOTH",
"462 495 OFFCURVE",
"387 562 OFFCURVE",
"270 562 CURVE SMOOTH",
"212 562 OFFCURVE",
"152 547 OFFCURVE",
"91 517 CURVE",
"99 470 LINE",
"164 499 OFFCURVE",
"221 514 OFFCURVE",
"270 514 CURVE SMOOTH",
"365 514 OFFCURVE",
"412 464 OFFCURVE",
"412 364 CURVE SMOOTH",
"412 328 LINE",
"236 300 LINE SMOOTH",
"113 279 OFFCURVE",
"52 226 OFFCURVE",
"52 139 CURVE SMOOTH",
"52 48 OFFCURVE",
"118 -10 OFFCURVE",
"217 -10 CURVE SMOOTH",
"305 -10 OFFCURVE",
"370 27 OFFCURVE",
"412 102 CURVE"
);
},
{
closed = 1;
nodes = (
"412 124 OFFCURVE",
"348 36 OFFCURVE",
"227 36 CURVE SMOOTH",
"154 36 OFFCURVE",
"106 75 OFFCURVE",
"106 139 CURVE SMOOTH",
"106 208 OFFCURVE",
"152 238 OFFCURVE",
"251 257 CURVE SMOOTH",
"412 286 LINE",
"412 259 LINE SMOOTH"
);
},
{
closed = 1;
nodes = (
"262 732 LINE",
"375 602 LINE",
"418 602 LINE",
"283 782 LINE",
"241 782 LINE",
"107 602 LINE",
"148 602 LINE"
);
}
);
width = 550;
}
);
note = acircumflex;
unicode = 00E2;
},
{
glyphname = atilde;
lastChange = "2017-11-01 11:12:10 +0000";
layers = (
{
layerId = "7CDC14DA-6B60-4478-82C0-E8B54FD96B1C";
paths = (
{
closed = 1;
nodes = (
"412 73 OFFCURVE",
"417 39 OFFCURVE",
"427 0 CURVE",
"480 0 LINE",
"468 42 OFFCURVE",
"462 89 OFFCURVE",
"462 140 CURVE SMOOTH",
"462 366 LINE SMOOTH",
"462 495 OFFCURVE",
"387 562 OFFCURVE",
"270 562 CURVE SMOOTH",
"212 562 OFFCURVE",
"152 547 OFFCURVE",
"91 517 CURVE",
"99 470 LINE",
"164 499 OFFCURVE",
"221 514 OFFCURVE",
"270 514 CURVE SMOOTH",
"365 514 OFFCURVE",
"412 464 OFFCURVE",
"412 364 CURVE SMOOTH",
"412 328 LINE",
"236 300 LINE SMOOTH",
"113 279 OFFCURVE",
"52 226 OFFCURVE",
"52 139 CURVE SMOOTH",
"52 48 OFFCURVE",
"118 -10 OFFCURVE",
"217 -10 CURVE SMOOTH",
"305 -10 OFFCURVE",
"370 27 OFFCURVE",
"412 102 CURVE"
);
},
{
closed = 1;
nodes = (
"412 124 OFFCURVE",
"348 36 OFFCURVE",
"227 36 CURVE SMOOTH",
"154 36 OFFCURVE",
"106 75 OFFCURVE",
"106 139 CURVE SMOOTH",
"106 208 OFFCURVE",
"152 238 OFFCURVE",
"251 257 CURVE SMOOTH",
"412 286 LINE",
"412 259 LINE SMOOTH"
);
},
{
closed = 1;
nodes = (
"299 663 OFFCURVE",
"325 655 OFFCURVE",
"345 655 CURVE SMOOTH",
"390 655 OFFCURVE",
"427 687 OFFCURVE",
"436 740 CURVE",
"404 754 LINE",
"393 717 OFFCURVE",
"378 701 OFFCURVE",
"345 701 CURVE SMOOTH",
"331 701 OFFCURVE",
"309 709 OFFCURVE",
"278 725 CURVE SMOOTH",
"243 742 OFFCURVE",
"216 751 OFFCURVE",
"197 751 CURVE SMOOTH",
"152 751 OFFCURVE",
"115 719 OFFCURVE",
"106 666 CURVE",
"138 652 LINE",
"149 689 OFFCURVE",
"164 705 OFFCURVE",
"197 705 CURVE SMOOTH",
"208 705 OFFCURVE",
"231 696 OFFCURVE",
"267 679 CURVE SMOOTH"
);
}
);
width = 550;
}
);
note = atilde;
unicode = 00E3;
},
{
glyphname = adieresis;
lastChange = "2017-11-01 11:12:10 +0000";
layers = (
{
layerId = "7CDC14DA-6B60-4478-82C0-E8B54FD96B1C";
paths = (
{
closed = 1;
nodes = (
"412 73 OFFCURVE",
"417 39 OFFCURVE",
"427 0 CURVE",
"480 0 LINE",
"468 42 OFFCURVE",
"462 89 OFFCURVE",
"462 140 CURVE SMOOTH",
"462 366 LINE SMOOTH",
"462 495 OFFCURVE",
"387 562 OFFCURVE",
"270 562 CURVE SMOOTH",
"212 562 OFFCURVE",
"152 547 OFFCURVE",
"91 517 CURVE",
"99 470 LINE",
"164 499 OFFCURVE",
"221 514 OFFCURVE",
"270 514 CURVE SMOOTH",
"365 514 OFFCURVE",
"412 464 OFFCURVE",
"412 364 CURVE SMOOTH",
"412 328 LINE",
"236 300 LINE SMOOTH",
"113 279 OFFCURVE",
"52 226 OFFCURVE",
"52 139 CURVE SMOOTH",
"52 48 OFFCURVE",
"118 -10 OFFCURVE",
"217 -10 CURVE SMOOTH",
"305 -10 OFFCURVE",
"370 27 OFFCURVE",
"412 102 CURVE"
);
},
{
closed = 1;
nodes = (
"412 124 OFFCURVE",
"348 36 OFFCURVE",
"227 36 CURVE SMOOTH",
"154 36 OFFCURVE",
"106 75 OFFCURVE",
"106 139 CURVE SMOOTH",
"106 208 OFFCURVE",
"152 238 OFFCURVE",
"251 257 CURVE SMOOTH",
"412 286 LINE",
"412 259 LINE SMOOTH"
);
},
{
closed = 1;
nodes = (
"206 682 OFFCURVE",
"210 691 OFFCURVE",
"210 703 CURVE SMOOTH",
"210 728 OFFCURVE",
"192 742 OFFCURVE",
"172 742 CURVE SMOOTH",
"152 742 OFFCURVE",
"134 728 OFFCURVE",
"134 703 CURVE SMOOTH",
"134 679 OFFCURVE",
"152 664 OFFCURVE",
"172 664 CURVE SMOOTH",
"182 664 OFFCURVE",
"191 668 OFFCURVE",
"199 675 CURVE"
);
},
{
closed = 1;
nodes = (
"384 682 OFFCURVE",
"388 691 OFFCURVE",
"388 703 CURVE SMOOTH",
"388 728 OFFCURVE",
"370 742 OFFCURVE",
"350 742 CURVE SMOOTH",
"330 742 OFFCURVE",
"312 728 OFFCURVE",
"312 703 CURVE SMOOTH",
"312 679 OFFCURVE",
"330 664 OFFCURVE",
"350 664 CURVE SMOOTH",
"360 664 OFFCURVE",
"369 668 OFFCURVE",
"377 675 CURVE"
);
}
);
width = 550;
}
);
note = adieresis;
unicode = 00E4;
},
{
glyphname = aring;
lastChange = "2017-11-01 11:12:10 +0000";
layers = (
{
layerId = "7CDC14DA-6B60-4478-82C0-E8B54FD96B1C";
paths = (
{
closed = 1;
nodes = (
"412 73 OFFCURVE",
"417 39 OFFCURVE",
"427 0 CURVE",
"480 0 LINE",
"468 42 OFFCURVE",
"462 89 OFFCURVE",
"462 140 CURVE SMOOTH",
"462 366 LINE SMOOTH",
"462 495 OFFCURVE",
"387 562 OFFCURVE",
"270 562 CURVE SMOOTH",
"212 562 OFFCURVE",
"152 547 OFFCURVE",
"91 517 CURVE",
"99 470 LINE",
"164 499 OFFCURVE",
"221 514 OFFCURVE",
"270 514 CURVE SMOOTH",
"365 514 OFFCURVE",
"412 464 OFFCURVE",
"412 364 CURVE SMOOTH",
"412 328 LINE",
"236 300 LINE SMOOTH",
"113 279 OFFCURVE",
"52 226 OFFCURVE",
"52 139 CURVE SMOOTH",
"52 48 OFFCURVE",
"118 -10 OFFCURVE",
"217 -10 CURVE SMOOTH",
"305 -10 OFFCURVE",
"370 27 OFFCURVE",
"412 102 CURVE"
);
},
{
closed = 1;
nodes = (
"412 124 OFFCURVE",
"348 36 OFFCURVE",
"227 36 CURVE SMOOTH",
"154 36 OFFCURVE",
"106 75 OFFCURVE",
"106 139 CURVE SMOOTH",
"106 208 OFFCURVE",
"152 238 OFFCURVE",
"251 257 CURVE SMOOTH",
"412 286 LINE",
"412 259 LINE SMOOTH"
);
},
{
closed = 1;
nodes = (
"372 763 OFFCURVE",
"326 809 OFFCURVE",
"262 809 CURVE SMOOTH",
"198 809 OFFCURVE",
"154 765 OFFCURVE",
"154 705 CURVE SMOOTH",
"154 641 OFFCURVE",
"197 600 OFFCURVE",
"262 600 CURVE SMOOTH",
"327 600 OFFCURVE",
"372 643 OFFCURVE",
"372 706 CURVE SMOOTH"
);
},
{
closed = 1;
nodes = (
"299 643 OFFCURVE",
"283 637 OFFCURVE",
"262 637 CURVE SMOOTH",
"219 637 OFFCURVE",
"194 664 OFFCURVE",
"194 705 CURVE SMOOTH",
"194 745 OFFCURVE",
"222 773 OFFCURVE",
"262 773 CURVE SMOOTH",
"302 773 OFFCURVE",
"330 746 OFFCURVE",
"330 705 CURVE SMOOTH",
"330 684 OFFCURVE",
"324 668 OFFCURVE",
"312 656 CURVE SMOOTH"
);
}
);
width = 550;
}
);
note = aring;
unicode = 00E5;
},
{
glyphname = ae;
lastChange = "2017-11-01 11:12:10 +0000";
layers = (
{
layerId = "7CDC14DA-6B60-4478-82C0-E8B54FD96B1C";
paths = (
{
closed = 1;
nodes = (
"212 562 OFFCURVE",
"152 547 OFFCURVE",
"91 517 CURVE",
"99 470 LINE",
"164 499 OFFCURVE",
"221 514 OFFCURVE",
"270 514 CURVE SMOOTH",
"365 514 OFFCURVE",
"412 464 OFFCURVE",
"412 364 CURVE SMOOTH",
"412 328 LINE",
"236 300 LINE SMOOTH",
"113 279 OFFCURVE",
"52 226 OFFCURVE",
"52 139 CURVE SMOOTH",
"52 48 OFFCURVE",
"120 -10 OFFCURVE",
"221 -10 CURVE SMOOTH",
"329 -10 OFFCURVE",
"403 46 OFFCURVE",
"438 138 CURVE",
"481 42 OFFCURVE",
"572 -10 OFFCURVE",
"691 -10 CURVE SMOOTH",
"746 -10 OFFCURVE",
"798 -1 OFFCURVE",
"849 17 CURVE",
"845 71 LINE",
"794 50 OFFCURVE",
"742 40 OFFCURVE",
"691 40 CURVE SMOOTH",
"554 40 OFFCURVE",
"465 126 OFFCURVE",
"465 275 CURVE SMOOTH",
"465 285 LINE",
"875 285 LINE",
"876 295 OFFCURVE",
"877 311 OFFCURVE",
"877 332 CURVE SMOOTH",
"877 377 OFFCURVE",
"869 417 OFFCURVE",
"852 452 CURVE SMOOTH",
"819 522 OFFCURVE",
"752 562 OFFCURVE",
"660 562 CURVE SMOOTH",
"576 562 OFFCURVE",
"497 517 OFFCURVE",
"452 440 CURVE",
"428 521 OFFCURVE",
"362 562 OFFCURVE",
"270 562 CURVE SMOOTH"
);
},
{
closed = 1;
nodes = (
"412 124 OFFCURVE",
"348 36 OFFCURVE",
"227 36 CURVE SMOOTH",
"154 36 OFFCURVE",
"106 75 OFFCURVE",
"106 139 CURVE SMOOTH",
"106 208 OFFCURVE",
"152 238 OFFCURVE",
"251 257 CURVE SMOOTH",
"412 286 LINE",
"412 259 LINE SMOOTH"
);
},
{
closed = 1;
nodes = (
"766 512 OFFCURVE",
"825 450 OFFCURVE",
"825 330 CURVE",
"469 330 LINE",
"482 437 OFFCURVE",
"560 512 OFFCURVE",
"661 512 CURVE SMOOTH"
);
}
);
width = 927;
}
);
note = ae;
unicode = 00E6;
},
{
glyphname = ccedilla;
lastChange = "2017-11-01 11:12:10 +0000";
layers = (
{
layerId = "7CDC14DA-6B60-4478-82C0-E8B54FD96B1C";
paths = (
{
closed = 1;
nodes = (
"387 -11 OFFCURVE",
"434 -3 OFFCURVE",
"473 12 CURVE",
"465 63 LINE",
"425 48 OFFCURVE",
"382 40 OFFCURVE",
"336 40 CURVE SMOOTH",
"200 40 OFFCURVE",
"107 133 OFFCURVE",
"107 273 CURVE SMOOTH",
"107 424 OFFCURVE",
"193 512 OFFCURVE",
"334 512 CURVE SMOOTH",
"374 512 OFFCURVE",
"415 504 OFFCURVE",
"458 489 CURVE",
"465 544 LINE",
"426 557 OFFCURVE",
"382 563 OFFCURVE",
"333 563 CURVE SMOOTH",
"165 563 OFFCURVE",
"51 450 OFFCURVE",
"51 275 CURVE SMOOTH",
"51 100 OFFCURVE",
"172 -11 OFFCURVE",
"331 -11 CURVE SMOOTH"
);
},
{
closed = 1;
nodes = (
"221 -230 LINE",
"285 -230 LINE",
"359 -50 LINE",
"321 -50 LINE"
);
}
);
width = 507;
}
);
note = ccedilla;
unicode = 00E7;
},
{
glyphname = egrave;
lastChange = "2017-11-01 11:12:10 +0000";
layers = (
{
layerId = "7CDC14DA-6B60-4478-82C0-E8B54FD96B1C";
paths = (
{
closed = 1;
nodes = (
"392 -11 OFFCURVE",
"444 -2 OFFCURVE",
"495 16 CURVE",
"491 70 LINE",
"440 49 OFFCURVE",
"388 39 OFFCURVE",
"337 39 CURVE SMOOTH",
"200 39 OFFCURVE",
"111 126 OFFCURVE",
"111 275 CURVE SMOOTH",
"111 285 LINE",
"521 285 LINE",
"522 295 OFFCURVE",
"523 311 OFFCURVE",
"523 332 CURVE SMOOTH",
"523 377 OFFCURVE",
"515 417 OFFCURVE",
"498 452 CURVE SMOOTH",
"465 522 OFFCURVE",
"395 563 OFFCURVE",
"306 563 CURVE SMOOTH",
"170 563 OFFCURVE",
"58 450 OFFCURVE",
"58 277 CURVE SMOOTH",
"58 97 OFFCURVE",
"168 -11 OFFCURVE",
"337 -11 CURVE SMOOTH"
);
},
{
closed = 1;
nodes = (
"411 513 OFFCURVE",
"471 450 OFFCURVE",
"471 330 CURVE",
"115 330 LINE",
"128 437 OFFCURVE",
"206 513 OFFCURVE",
"307 513 CURVE SMOOTH"
);
},
{
closed = 1;
nodes = (
"302 602 LINE",
"340 602 LINE",
"266 782 LINE",
"202 782 LINE"
);
}
);
width = 573;
}
);
note = egrave;
unicode = 00E8;
},
{
glyphname = eacute;
lastChange = "2017-11-01 11:12:10 +0000";
layers = (
{
layerId = "7CDC14DA-6B60-4478-82C0-E8B54FD96B1C";
paths = (
{
closed = 1;
nodes = (
"392 -11 OFFCURVE",
"444 -2 OFFCURVE",
"495 16 CURVE",
"491 70 LINE",
"440 49 OFFCURVE",
"388 39 OFFCURVE",
"337 39 CURVE SMOOTH",
"200 39 OFFCURVE",
"111 126 OFFCURVE",
"111 275 CURVE SMOOTH",
"111 285 LINE",
"521 285 LINE",
"522 295 OFFCURVE",
"523 311 OFFCURVE",
"523 332 CURVE SMOOTH",
"523 377 OFFCURVE",
"515 417 OFFCURVE",
"498 452 CURVE SMOOTH",
"465 522 OFFCURVE",
"395 563 OFFCURVE",
"306 563 CURVE SMOOTH",
"170 563 OFFCURVE",
"58 450 OFFCURVE",
"58 277 CURVE SMOOTH",
"58 97 OFFCURVE",
"168 -11 OFFCURVE",
"337 -11 CURVE SMOOTH"
);
},
{
closed = 1;
nodes = (
"411 513 OFFCURVE",
"471 450 OFFCURVE",
"471 330 CURVE",
"115 330 LINE",
"128 437 OFFCURVE",
"206 513 OFFCURVE",
"307 513 CURVE SMOOTH"
);
},
{
closed = 1;
nodes = (
"418 782 LINE",
"354 782 LINE",
"280 602 LINE",
"318 602 LINE"
);
}
);
width = 573;
}
);
note = eacute;
unicode = 00E9;
},
{
glyphname = ecircumflex;
lastChange = "2017-11-01 11:12:10 +0000";
layers = (
{
layerId = "7CDC14DA-6B60-4478-82C0-E8B54FD96B1C";
paths = (
{
closed = 1;
nodes = (
"392 -11 OFFCURVE",
"444 -2 OFFCURVE",
"495 16 CURVE",
"491 70 LINE",
"440 49 OFFCURVE",
"388 39 OFFCURVE",
"337 39 CURVE SMOOTH",
"200 39 OFFCURVE",
"111 126 OFFCURVE",
"111 275 CURVE SMOOTH",
"111 285 LINE",
"521 285 LINE",
"522 295 OFFCURVE",
"523 311 OFFCURVE",
"523 332 CURVE SMOOTH",
"523 377 OFFCURVE",
"515 417 OFFCURVE",
"498 452 CURVE SMOOTH",
"465 522 OFFCURVE",
"395 563 OFFCURVE",
"306 563 CURVE SMOOTH",
"170 563 OFFCURVE",
"58 450 OFFCURVE",
"58 277 CURVE SMOOTH",
"58 97 OFFCURVE",
"168 -11 OFFCURVE",
"337 -11 CURVE SMOOTH"
);
},
{
closed = 1;
nodes = (
"411 513 OFFCURVE",
"471 450 OFFCURVE",
"471 330 CURVE",
"115 330 LINE",
"128 437 OFFCURVE",
"206 513 OFFCURVE",
"307 513 CURVE SMOOTH"
);
},
{
closed = 1;
nodes = (
"307 732 LINE",
"420 602 LINE",
"463 602 LINE",
"328 782 LINE",
"286 782 LINE",
"152 602 LINE",
"193 602 LINE"
);
}
);
width = 573;
}
);
note = ecircumflex;
unicode = 00EA;
},
{
glyphname = edieresis;
lastChange = "2017-11-01 11:12:10 +0000";
layers = (
{
layerId = "7CDC14DA-6B60-4478-82C0-E8B54FD96B1C";
paths = (
{
closed = 1;
nodes = (
"392 -11 OFFCURVE",
"444 -2 OFFCURVE",
"495 16 CURVE",
"491 70 LINE",
"440 49 OFFCURVE",
"388 39 OFFCURVE",
"337 39 CURVE SMOOTH",
"200 39 OFFCURVE",
"111 126 OFFCURVE",
"111 275 CURVE SMOOTH",
"111 285 LINE",
"521 285 LINE",
"522 295 OFFCURVE",
"523 311 OFFCURVE",
"523 332 CURVE SMOOTH",
"523 377 OFFCURVE",
"515 417 OFFCURVE",
"498 452 CURVE SMOOTH",
"465 522 OFFCURVE",
"395 563 OFFCURVE",
"306 563 CURVE SMOOTH",
"170 563 OFFCURVE",
"58 450 OFFCURVE",
"58 277 CURVE SMOOTH",
"58 97 OFFCURVE",
"168 -11 OFFCURVE",
"337 -11 CURVE SMOOTH"
);
},
{
closed = 1;
nodes = (
"411 513 OFFCURVE",
"471 450 OFFCURVE",
"471 330 CURVE",
"115 330 LINE",
"128 437 OFFCURVE",
"206 513 OFFCURVE",
"307 513 CURVE SMOOTH"
);
},
{
closed = 1;
nodes = (
"253 682 OFFCURVE",
"257 691 OFFCURVE",
"257 703 CURVE SMOOTH",
"257 728 OFFCURVE",
"239 742 OFFCURVE",
"219 742 CURVE SMOOTH",
"199 742 OFFCURVE",
"181 728 OFFCURVE",
"181 703 CURVE SMOOTH",
"181 679 OFFCURVE",
"199 664 OFFCURVE",
"219 664 CURVE SMOOTH",
"229 664 OFFCURVE",
"238 668 OFFCURVE",
"246 675 CURVE"
);
},
{
closed = 1;
nodes = (
"431 682 OFFCURVE",
"435 691 OFFCURVE",
"435 703 CURVE SMOOTH",
"435 728 OFFCURVE",
"417 742 OFFCURVE",
"397 742 CURVE SMOOTH",
"377 742 OFFCURVE",
"359 728 OFFCURVE",
"359 703 CURVE SMOOTH",
"359 679 OFFCURVE",
"377 664 OFFCURVE",
"397 664 CURVE SMOOTH",
"407 664 OFFCURVE",
"416 668 OFFCURVE",
"424 675 CURVE"
);
}
);
width = 573;
}
);
note = edieresis;
unicode = 00EB;
},
{
glyphname = igrave;
lastChange = "2017-11-01 11:12:10 +0000";
layers = (
{
layerId = "7CDC14DA-6B60-4478-82C0-E8B54FD96B1C";
paths = (
{
closed = 1;
nodes = (
"95 552 LINE",
"95 0 LINE",
"145 0 LINE",
"145 552 LINE"
);
},
{
closed = 1;
nodes = (
"113 602 LINE",
"151 602 LINE",
"77 782 LINE",
"13 782 LINE"
);
}
);
width = 240;
}
);
note = igrave;
unicode = 00EC;
},
{
glyphname = iacute;
lastChange = "2017-11-01 11:12:10 +0000";
layers = (
{
layerId = "7CDC14DA-6B60-4478-82C0-E8B54FD96B1C";
paths = (
{
closed = 1;
nodes = (
"95 552 LINE",
"95 0 LINE",
"145 0 LINE",
"145 552 LINE"
);
},
{
closed = 1;
nodes = (
"229 782 LINE",
"165 782 LINE",
"91 602 LINE",
"129 602 LINE"
);
}
);
width = 240;
}
);
note = iacute;
unicode = 00ED;
},
{
glyphname = icircumflex;
lastChange = "2017-11-01 11:12:10 +0000";
layers = (
{
layerId = "7CDC14DA-6B60-4478-82C0-E8B54FD96B1C";
paths = (
{
closed = 1;
nodes = (
"95 552 LINE",
"95 0 LINE",
"145 0 LINE",
"145 552 LINE"
);
},
{
closed = 1;
nodes = (
"118 732 LINE",
"231 602 LINE",
"274 602 LINE",
"139 782 LINE",
"97 782 LINE",
"-37 602 LINE",
"4 602 LINE"
);
}
);
width = 240;
}
);
note = icircumflex;
unicode = 00EE;
},
{
glyphname = idieresis;
lastChange = "2017-11-01 11:12:10 +0000";
layers = (
{
layerId = "7CDC14DA-6B60-4478-82C0-E8B54FD96B1C";
paths = (
{
closed = 1;
nodes = (
"95 552 LINE",
"95 0 LINE",
"145 0 LINE",
"145 552 LINE"
);
},
{
closed = 1;
nodes = (
"64 682 OFFCURVE",
"68 691 OFFCURVE",
"68 703 CURVE SMOOTH",
"68 728 OFFCURVE",
"50 742 OFFCURVE",
"30 742 CURVE SMOOTH",
"10 742 OFFCURVE",
"-8 728 OFFCURVE",
"-8 703 CURVE SMOOTH",
"-8 679 OFFCURVE",
"10 664 OFFCURVE",
"30 664 CURVE SMOOTH",
"40 664 OFFCURVE",
"49 668 OFFCURVE",
"57 675 CURVE"
);
},
{
closed = 1;
nodes = (
"242 682 OFFCURVE",
"246 691 OFFCURVE",
"246 703 CURVE SMOOTH",
"246 728 OFFCURVE",
"228 742 OFFCURVE",
"208 742 CURVE SMOOTH",
"188 742 OFFCURVE",
"170 728 OFFCURVE",
"170 703 CURVE SMOOTH",
"170 679 OFFCURVE",
"188 664 OFFCURVE",
"208 664 CURVE SMOOTH",
"218 664 OFFCURVE",
"227 668 OFFCURVE",
"235 675 CURVE"
);
}
);
width = 240;
}
);
note = idieresis;
unicode = 00EF;
},
{
glyphname = eth;
lastChange = "2017-11-01 11:12:10 +0000";
layers = (
{
layerId = "7CDC14DA-6B60-4478-82C0-E8B54FD96B1C";
paths = (
{
closed = 1;
nodes = (
"326 717 OFFCURVE",
"290 740 OFFCURVE",
"249 761 CURVE",
"219 720 LINE",
"254 705 OFFCURVE",
"285 687 OFFCURVE",
"313 666 CURVE",
"168 583 LINE",
"188 546 LINE",
"348 637 LINE",
"430 560 OFFCURVE",
"479 471 OFFCURVE",
"496 369 CURVE",
"451 438 OFFCURVE",
"386 472 OFFCURVE",
"299 472 CURVE SMOOTH",
"158 472 OFFCURVE",
"63 367 OFFCURVE",
"63 230 CURVE SMOOTH",
"63 86 OFFCURVE",
"165 -11 OFFCURVE",
"308 -11 CURVE SMOOTH",
"472 -11 OFFCURVE",
"555 91 OFFCURVE",
"555 275 CURVE SMOOTH",
"555 427 OFFCURVE",
"500 556 OFFCURVE",
"391 662 CURVE",
"476 710 LINE",
"454 746 LINE",
"358 691 LINE"
);
},
{
closed = 1;
nodes = (
"118 348 OFFCURVE",
"190 420 OFFCURVE",
"305 420 CURVE SMOOTH",
"418 420 OFFCURVE",
"502 350 OFFCURVE",
"502 233 CURVE SMOOTH",
"502 118 OFFCURVE",
"425 39 OFFCURVE",
"312 39 CURVE SMOOTH",
"200 39 OFFCURVE",
"118 114 OFFCURVE",
"118 229 CURVE SMOOTH"
);
}
);
width = 618;
}
);
note = eth;
unicode = 00F0;
},
{
glyphname = ntilde;
lastChange = "2017-11-01 11:12:10 +0000";
layers = (
{
layerId = "7CDC14DA-6B60-4478-82C0-E8B54FD96B1C";
paths = (
{
closed = 1;
nodes = (
"542 432 OFFCURVE",
"513 499 OFFCURVE",
"456 534 CURVE SMOOTH",
"424 553 OFFCURVE",
"386 562 OFFCURVE",
"342 562 CURVE SMOOTH",
"249 562 OFFCURVE",
"180 509 OFFCURVE",
"144 430 CURVE",
"144 552 LINE",
"95 552 LINE",
"95 0 LINE",
"145 0 LINE",
"145 247 LINE SMOOTH",
"145 398 OFFCURVE",
"194 514 OFFCURVE",
"338 514 CURVE SMOOTH",
"441 514 OFFCURVE",
"492 454 OFFCURVE",
"492 334 CURVE SMOOTH",
"492 0 LINE",
"542 0 LINE",
"542 333 LINE SMOOTH"
);
},
{
closed = 1;
nodes = (
"362 663 OFFCURVE",
"388 655 OFFCURVE",
"408 655 CURVE SMOOTH",
"453 655 OFFCURVE",
"490 687 OFFCURVE",
"499 740 CURVE",
"467 754 LINE",
"456 717 OFFCURVE",
"441 701 OFFCURVE",
"408 701 CURVE SMOOTH",
"394 701 OFFCURVE",
"372 709 OFFCURVE",
"341 725 CURVE SMOOTH",
"306 742 OFFCURVE",
"279 751 OFFCURVE",
"260 751 CURVE SMOOTH",
"215 751 OFFCURVE",
"178 719 OFFCURVE",
"169 666 CURVE",
"201 652 LINE",
"212 689 OFFCURVE",
"227 705 OFFCURVE",
"260 705 CURVE SMOOTH",
"271 705 OFFCURVE",
"294 696 OFFCURVE",
"330 679 CURVE SMOOTH"
);
}
);
width = 632;
}
);
note = ntilde;
unicode = 00F1;
},
{
glyphname = ograve;
lastChange = "2017-11-01 11:12:10 +0000";
layers = (
{
layerId = "7CDC14DA-6B60-4478-82C0-E8B54FD96B1C";
paths = (
{
closed = 1;
nodes = (
"117 429 OFFCURVE",
"187 513 OFFCURVE",
"307 513 CURVE SMOOTH",
"424 513 OFFCURVE",
"506 426 OFFCURVE",
"506 279 CURVE SMOOTH",
"506 132 OFFCURVE",
"431 39 OFFCURVE",
"314 39 CURVE SMOOTH",
"197 39 OFFCURVE",
"117 126 OFFCURVE",
"117 273 CURVE SMOOTH"
);
},
{
closed = 1;
nodes = (
"561 441 OFFCURVE",
"460 563 OFFCURVE",
"312 563 CURVE SMOOTH",
"163 563 OFFCURVE",
"62 451 OFFCURVE",
"62 276 CURVE SMOOTH",
"62 103 OFFCURVE",
"173 -11 OFFCURVE",
"309 -11 CURVE SMOOTH",
"461 -11 OFFCURVE",
"561 103 OFFCURVE",
"561 276 CURVE SMOOTH"
);
},
{
closed = 1;
nodes = (
"304 602 LINE",
"342 602 LINE",
"268 782 LINE",
"204 782 LINE"
);
}
);
width = 622;
}
);
note = ograve;
unicode = 00F2;
},
{
glyphname = oacute;
lastChange = "2017-11-01 11:12:10 +0000";
layers = (
{
layerId = "7CDC14DA-6B60-4478-82C0-E8B54FD96B1C";
paths = (
{
closed = 1;
nodes = (
"117 429 OFFCURVE",
"187 513 OFFCURVE",
"307 513 CURVE SMOOTH",
"424 513 OFFCURVE",
"506 426 OFFCURVE",
"506 279 CURVE SMOOTH",
"506 132 OFFCURVE",
"431 39 OFFCURVE",
"314 39 CURVE SMOOTH",
"197 39 OFFCURVE",
"117 126 OFFCURVE",
"117 273 CURVE SMOOTH"
);
},
{
closed = 1;
nodes = (
"561 441 OFFCURVE",
"460 563 OFFCURVE",
"312 563 CURVE SMOOTH",
"163 563 OFFCURVE",
"62 451 OFFCURVE",
"62 276 CURVE SMOOTH",
"62 103 OFFCURVE",
"173 -11 OFFCURVE",
"309 -11 CURVE SMOOTH",
"461 -11 OFFCURVE",
"561 103 OFFCURVE",
"561 276 CURVE SMOOTH"
);
},
{
closed = 1;
nodes = (
"420 782 LINE",
"356 782 LINE",
"282 602 LINE",
"320 602 LINE"
);
}
);
width = 622;
}
);
note = oacute;
unicode = 00F3;
},
{
glyphname = ocircumflex;
lastChange = "2017-11-01 11:12:10 +0000";
layers = (
{
layerId = "7CDC14DA-6B60-4478-82C0-E8B54FD96B1C";
paths = (
{
closed = 1;
nodes = (
"117 429 OFFCURVE",
"187 513 OFFCURVE",
"307 513 CURVE SMOOTH",
"424 513 OFFCURVE",
"506 426 OFFCURVE",
"506 279 CURVE SMOOTH",
"506 132 OFFCURVE",
"431 39 OFFCURVE",
"314 39 CURVE SMOOTH",
"197 39 OFFCURVE",
"117 126 OFFCURVE",
"117 273 CURVE SMOOTH"
);
},
{
closed = 1;
nodes = (
"561 441 OFFCURVE",
"460 563 OFFCURVE",
"312 563 CURVE SMOOTH",
"163 563 OFFCURVE",
"62 451 OFFCURVE",
"62 276 CURVE SMOOTH",
"62 103 OFFCURVE",
"173 -11 OFFCURVE",
"309 -11 CURVE SMOOTH",
"461 -11 OFFCURVE",
"561 103 OFFCURVE",
"561 276 CURVE SMOOTH"
);
},
{
closed = 1;
nodes = (
"309 732 LINE",
"422 602 LINE",
"465 602 LINE",
"330 782 LINE",
"288 782 LINE",
"154 602 LINE",
"195 602 LINE"
);
}
);
width = 622;
}
);
note = ocircumflex;
unicode = 00F4;
},
{
glyphname = otilde;
lastChange = "2017-11-01 11:12:10 +0000";
layers = (
{
layerId = "7CDC14DA-6B60-4478-82C0-E8B54FD96B1C";
paths = (
{
closed = 1;
nodes = (
"117 429 OFFCURVE",
"187 513 OFFCURVE",
"307 513 CURVE SMOOTH",
"424 513 OFFCURVE",
"506 426 OFFCURVE",
"506 279 CURVE SMOOTH",
"506 132 OFFCURVE",
"431 39 OFFCURVE",
"314 39 CURVE SMOOTH",
"197 39 OFFCURVE",
"117 126 OFFCURVE",
"117 273 CURVE SMOOTH"
);
},
{
closed = 1;
nodes = (
"561 441 OFFCURVE",
"460 563 OFFCURVE",
"312 563 CURVE SMOOTH",
"163 563 OFFCURVE",
"62 451 OFFCURVE",
"62 276 CURVE SMOOTH",
"62 103 OFFCURVE",
"173 -11 OFFCURVE",
"309 -11 CURVE SMOOTH",
"461 -11 OFFCURVE",
"561 103 OFFCURVE",
"561 276 CURVE SMOOTH"
);
},
{
closed = 1;
nodes = (
"345 663 OFFCURVE",
"371 655 OFFCURVE",
"391 655 CURVE SMOOTH",
"436 655 OFFCURVE",
"473 687 OFFCURVE",
"482 740 CURVE",
"450 754 LINE",
"439 717 OFFCURVE",
"424 701 OFFCURVE",
"391 701 CURVE SMOOTH",
"377 701 OFFCURVE",
"355 709 OFFCURVE",
"324 725 CURVE SMOOTH",
"289 742 OFFCURVE",
"262 751 OFFCURVE",
"243 751 CURVE SMOOTH",
"198 751 OFFCURVE",
"161 719 OFFCURVE",
"152 666 CURVE",
"184 652 LINE",
"195 689 OFFCURVE",
"210 705 OFFCURVE",
"243 705 CURVE SMOOTH",
"254 705 OFFCURVE",
"277 696 OFFCURVE",
"313 679 CURVE SMOOTH"
);
}
);
width = 622;
}
);
note = otilde;
unicode = 00F5;
},
{
glyphname = odieresis;
lastChange = "2017-11-01 11:12:10 +0000";
layers = (
{
layerId = "7CDC14DA-6B60-4478-82C0-E8B54FD96B1C";
paths = (
{
closed = 1;
nodes = (
"117 429 OFFCURVE",
"187 513 OFFCURVE",
"307 513 CURVE SMOOTH",
"424 513 OFFCURVE",
"506 426 OFFCURVE",
"506 279 CURVE SMOOTH",
"506 132 OFFCURVE",
"431 39 OFFCURVE",
"314 39 CURVE SMOOTH",
"197 39 OFFCURVE",
"117 126 OFFCURVE",
"117 273 CURVE SMOOTH"
);
},
{
closed = 1;
nodes = (
"561 441 OFFCURVE",
"460 563 OFFCURVE",
"312 563 CURVE SMOOTH",
"163 563 OFFCURVE",
"62 451 OFFCURVE",
"62 276 CURVE SMOOTH",
"62 103 OFFCURVE",
"173 -11 OFFCURVE",
"309 -11 CURVE SMOOTH",
"461 -11 OFFCURVE",
"561 103 OFFCURVE",
"561 276 CURVE SMOOTH"
);
},
{
closed = 1;
nodes = (
"255 682 OFFCURVE",
"259 691 OFFCURVE",
"259 703 CURVE SMOOTH",
"259 728 OFFCURVE",
"241 742 OFFCURVE",
"221 742 CURVE SMOOTH",
"201 742 OFFCURVE",
"183 728 OFFCURVE",
"183 703 CURVE SMOOTH",
"183 679 OFFCURVE",
"201 664 OFFCURVE",
"221 664 CURVE SMOOTH",
"231 664 OFFCURVE",
"240 668 OFFCURVE",
"248 675 CURVE"
);
},
{
closed = 1;
nodes = (
"433 682 OFFCURVE",
"437 691 OFFCURVE",
"437 703 CURVE SMOOTH",
"437 728 OFFCURVE",
"419 742 OFFCURVE",
"399 742 CURVE SMOOTH",
"379 742 OFFCURVE",
"361 728 OFFCURVE",
"361 703 CURVE SMOOTH",
"361 679 OFFCURVE",
"379 664 OFFCURVE",
"399 664 CURVE SMOOTH",
"409 664 OFFCURVE",
"418 668 OFFCURVE",
"426 675 CURVE"
);
}
);
width = 622;
}
);
note = odieresis;
unicode = 00F6;
},
{
glyphname = divide;
lastChange = "2017-11-01 11:12:10 +0000";
layers = (
{
layerId = "7CDC14DA-6B60-4478-82C0-E8B54FD96B1C";
paths = (
{
closed = 1;
nodes = (
"245 524 OFFCURVE",
"265 508 OFFCURVE",
"286 508 CURVE SMOOTH",
"306 508 OFFCURVE",
"324 524 OFFCURVE",
"324 549 CURVE SMOOTH",
"324 576 OFFCURVE",
"307 590 OFFCURVE",
"286 590 CURVE SMOOTH",
"263 590 OFFCURVE",
"245 576 OFFCURVE",
"245 549 CURVE SMOOTH"
);
},
{
closed = 1;
nodes = (
"245 142 OFFCURVE",
"265 126 OFFCURVE",
"286 126 CURVE SMOOTH",
"306 126 OFFCURVE",
"324 142 OFFCURVE",
"324 167 CURVE SMOOTH",
"324 194 OFFCURVE",
"307 208 OFFCURVE",
"286 208 CURVE SMOOTH",
"263 208 OFFCURVE",
"245 194 OFFCURVE",
"245 167 CURVE SMOOTH"
);
},
{
closed = 1;
nodes = (
"520 335 LINE",
"520 380 LINE",
"51 380 LINE",
"51 335 LINE"
);
}
);
width = 572;
}
);
note = divide;
unicode = 00F7;
},
{
glyphname = oslash;
lastChange = "2017-11-01 11:12:10 +0000";
layers = (
{
layerId = "7CDC14DA-6B60-4478-82C0-E8B54FD96B1C";
paths = (
{
closed = 1;
nodes = (
"561 376 OFFCURVE",
"530 453 OFFCURVE",
"467 506 CURVE",
"530 615 LINE",
"494 636 LINE",
"433 531 LINE",
"396 552 OFFCURVE",
"355 563 OFFCURVE",
"312 563 CURVE SMOOTH",
"163 563 OFFCURVE",
"62 451 OFFCURVE",
"62 276 CURVE SMOOTH",
"62 179 OFFCURVE",
"93 103 OFFCURVE",
"154 48 CURVE",
"92 -60 LINE",
"129 -81 LINE",
"188 22 LINE",
"225 0 OFFCURVE",
"266 -11 OFFCURVE",
"309 -11 CURVE SMOOTH",
"461 -11 OFFCURVE",
"561 103 OFFCURVE",
"561 276 CURVE SMOOTH"
);
},
{
closed = 1;
nodes = (
"506 132 OFFCURVE",
"431 39 OFFCURVE",
"314 39 CURVE SMOOTH",
"276 39 OFFCURVE",
"242 48 OFFCURVE",
"213 65 CURVE",
"441 460 LINE",
"484 418 OFFCURVE",
"506 358 OFFCURVE",
"506 279 CURVE SMOOTH"
);
},
{
closed = 1;
nodes = (
"117 429 OFFCURVE",
"187 513 OFFCURVE",
"307 513 CURVE SMOOTH",
"344 513 OFFCURVE",
"378 504 OFFCURVE",
"407 486 CURVE",
"180 92 LINE",
"138 134 OFFCURVE",
"117 194 OFFCURVE",
"117 273 CURVE SMOOTH"
);
}
);
width = 622;
}
);
note = oslash;
unicode = 00F8;
},
{
glyphname = ugrave;
lastChange = "2017-11-01 11:12:10 +0000";
layers = (
{
layerId = "7CDC14DA-6B60-4478-82C0-E8B54FD96B1C";
paths = (
{
closed = 1;
nodes = (
"90 118 OFFCURVE",
"118 51 OFFCURVE",
"174 18 CURVE SMOOTH",
"206 -1 OFFCURVE",
"244 -10 OFFCURVE",
"287 -10 CURVE SMOOTH",
"380 -10 OFFCURVE",
"448 42 OFFCURVE",
"484 122 CURVE",
"484 0 LINE",
"533 0 LINE",
"533 552 LINE",
"483 552 LINE",
"483 305 LINE SMOOTH",
"483 154 OFFCURVE",
"434 38 OFFCURVE",
"291 38 CURVE SMOOTH",
"190 38 OFFCURVE",
"140 98 OFFCURVE",
"140 218 CURVE SMOOTH",
"140 552 LINE",
"90 552 LINE",
"90 219 LINE SMOOTH"
);
},
{
closed = 1;
nodes = (
"304 602 LINE",
"342 602 LINE",
"268 782 LINE",
"204 782 LINE"
);
}
);
width = 628;
}
);
note = ugrave;
unicode = 00F9;
},
{
glyphname = uacute;
lastChange = "2017-11-01 11:12:10 +0000";
layers = (
{
layerId = "7CDC14DA-6B60-4478-82C0-E8B54FD96B1C";
paths = (
{
closed = 1;
nodes = (
"90 118 OFFCURVE",
"118 51 OFFCURVE",
"174 18 CURVE SMOOTH",
"206 -1 OFFCURVE",
"244 -10 OFFCURVE",
"287 -10 CURVE SMOOTH",
"380 -10 OFFCURVE",
"448 42 OFFCURVE",
"484 122 CURVE",
"484 0 LINE",
"533 0 LINE",
"533 552 LINE",
"483 552 LINE",
"483 305 LINE SMOOTH",
"483 154 OFFCURVE",
"434 38 OFFCURVE",
"291 38 CURVE SMOOTH",
"190 38 OFFCURVE",
"140 98 OFFCURVE",
"140 218 CURVE SMOOTH",
"140 552 LINE",
"90 552 LINE",
"90 219 LINE SMOOTH"
);
},
{
closed = 1;
nodes = (
"420 782 LINE",
"356 782 LINE",
"282 602 LINE",
"320 602 LINE"
);
}
);
width = 628;
}
);
note = uacute;
unicode = 00FA;
},
{
glyphname = ucircumflex;
lastChange = "2017-11-01 11:12:10 +0000";
layers = (
{
layerId = "7CDC14DA-6B60-4478-82C0-E8B54FD96B1C";
paths = (
{
closed = 1;
nodes = (
"90 118 OFFCURVE",
"118 51 OFFCURVE",
"174 18 CURVE SMOOTH",
"206 -1 OFFCURVE",
"244 -10 OFFCURVE",
"287 -10 CURVE SMOOTH",
"380 -10 OFFCURVE",
"448 42 OFFCURVE",
"484 122 CURVE",
"484 0 LINE",
"533 0 LINE",
"533 552 LINE",
"483 552 LINE",
"483 305 LINE SMOOTH",
"483 154 OFFCURVE",
"434 38 OFFCURVE",
"291 38 CURVE SMOOTH",
"190 38 OFFCURVE",
"140 98 OFFCURVE",
"140 218 CURVE SMOOTH",
"140 552 LINE",
"90 552 LINE",
"90 219 LINE SMOOTH"
);
},
{
closed = 1;
nodes = (
"309 732 LINE",
"422 602 LINE",
"465 602 LINE",
"330 782 LINE",
"288 782 LINE",
"154 602 LINE",
"195 602 LINE"
);
}
);
width = 628;
}
);
note = ucircumflex;
unicode = 00FB;
},
{
glyphname = udieresis;
lastChange = "2017-11-01 11:12:10 +0000";
layers = (
{
layerId = "7CDC14DA-6B60-4478-82C0-E8B54FD96B1C";
paths = (
{
closed = 1;
nodes = (
"90 118 OFFCURVE",
"118 51 OFFCURVE",
"174 18 CURVE SMOOTH",
"206 -1 OFFCURVE",
"244 -10 OFFCURVE",
"287 -10 CURVE SMOOTH",
"380 -10 OFFCURVE",
"448 42 OFFCURVE",
"484 122 CURVE",
"484 0 LINE",
"533 0 LINE",
"533 552 LINE",
"483 552 LINE",
"483 305 LINE SMOOTH",
"483 154 OFFCURVE",
"434 38 OFFCURVE",
"291 38 CURVE SMOOTH",
"190 38 OFFCURVE",
"140 98 OFFCURVE",
"140 218 CURVE SMOOTH",
"140 552 LINE",
"90 552 LINE",
"90 219 LINE SMOOTH"
);
},
{
closed = 1;
nodes = (
"255 682 OFFCURVE",
"259 691 OFFCURVE",
"259 703 CURVE SMOOTH",
"259 728 OFFCURVE",
"241 742 OFFCURVE",
"221 742 CURVE SMOOTH",
"201 742 OFFCURVE",
"183 728 OFFCURVE",
"183 703 CURVE SMOOTH",
"183 679 OFFCURVE",
"201 664 OFFCURVE",
"221 664 CURVE SMOOTH",
"231 664 OFFCURVE",
"240 668 OFFCURVE",
"248 675 CURVE"
);
},
{
closed = 1;
nodes = (
"433 682 OFFCURVE",
"437 691 OFFCURVE",
"437 703 CURVE SMOOTH",
"437 728 OFFCURVE",
"419 742 OFFCURVE",
"399 742 CURVE SMOOTH",
"379 742 OFFCURVE",
"361 728 OFFCURVE",
"361 703 CURVE SMOOTH",
"361 679 OFFCURVE",
"379 664 OFFCURVE",
"399 664 CURVE SMOOTH",
"409 664 OFFCURVE",
"418 668 OFFCURVE",
"426 675 CURVE"
);
}
);
width = 628;
}
);
note = udieresis;
unicode = 00FC;
},
{
glyphname = yacute;
lastChange = "2017-11-01 11:12:10 +0000";
layers = (
{
layerId = "7CDC14DA-6B60-4478-82C0-E8B54FD96B1C";
paths = (
{
closed = 1;
nodes = (
"463 552 LINE",
"269 72 LINE",
"181 287 LINE",
"72 552 LINE",
"14 552 LINE",
"243 13 LINE",
"138 -220 LINE",
"198 -220 LINE",
"520 552 LINE"
);
},
{
closed = 1;
nodes = (
"380 782 LINE",
"316 782 LINE",
"242 602 LINE",
"280 602 LINE"
);
}
);
width = 534;
}
);
note = yacute;
unicode = 00FD;
},
{
glyphname = thorn;
lastChange = "2017-11-01 11:12:10 +0000";
layers = (
{
layerId = "7CDC14DA-6B60-4478-82C0-E8B54FD96B1C";
paths = (
{
closed = 1;
nodes = (
"143 426 OFFCURVE",
"223 513 OFFCURVE",
"340 513 CURVE SMOOTH",
"461 513 OFFCURVE",
"533 421 OFFCURVE",
"533 277 CURVE SMOOTH",
"533 126 OFFCURVE",
"456 39 OFFCURVE",
"337 39 CURVE SMOOTH",
"221 39 OFFCURVE",
"143 124 OFFCURVE",
"143 279 CURVE SMOOTH"
);
},
{
closed = 1;
nodes = (
"187 30 OFFCURVE",
"252 -10 OFFCURVE",
"341 -10 CURVE SMOOTH",
"492 -10 OFFCURVE",
"589 109 OFFCURVE",
"589 277 CURVE SMOOTH",
"589 450 OFFCURVE",
"494 562 OFFCURVE",
"346 562 CURVE SMOOTH",
"262 562 OFFCURVE",
"190 519 OFFCURVE",
"145 440 CURVE",
"145 742 LINE",
"95 742 LINE",
"95 -220 LINE",
"145 -220 LINE",
"145 111 LINE"
);
}
);
width = 650;
}
);
note = thorn;
unicode = 00FE;
},
{
glyphname = ydieresis;
lastChange = "2017-11-01 11:12:10 +0000";
layers = (
{
layerId = "7CDC14DA-6B60-4478-82C0-E8B54FD96B1C";
paths = (
{
closed = 1;
nodes = (
"463 552 LINE",
"269 72 LINE",
"181 287 LINE",
"72 552 LINE",
"14 552 LINE",
"243 13 LINE",
"138 -220 LINE",
"198 -220 LINE",
"520 552 LINE"
);
},
{
closed = 1;
nodes = (
"215 682 OFFCURVE",
"219 691 OFFCURVE",
"219 703 CURVE SMOOTH",
"219 728 OFFCURVE",
"201 742 OFFCURVE",
"181 742 CURVE SMOOTH",
"161 742 OFFCURVE",
"143 728 OFFCURVE",
"143 703 CURVE SMOOTH",
"143 679 OFFCURVE",
"161 664 OFFCURVE",
"181 664 CURVE SMOOTH",
"191 664 OFFCURVE",
"200 668 OFFCURVE",
"208 675 CURVE"
);
},
{
closed = 1;
nodes = (
"393 682 OFFCURVE",
"397 691 OFFCURVE",
"397 703 CURVE SMOOTH",
"397 728 OFFCURVE",
"379 742 OFFCURVE",
"359 742 CURVE SMOOTH",
"339 742 OFFCURVE",
"321 728 OFFCURVE",
"321 703 CURVE SMOOTH",
"321 679 OFFCURVE",
"339 664 OFFCURVE",
"359 664 CURVE SMOOTH",
"369 664 OFFCURVE",
"378 668 OFFCURVE",
"386 675 CURVE"
);
}
);
width = 534;
}
);
note = ydieresis;
unicode = 00FF;
},
{
glyphname = Gbreve;
lastChange = "2017-11-01 11:12:10 +0000";
layers = (
{
layerId = "7CDC14DA-6B60-4478-82C0-E8B54FD96B1C";
paths = (
{
closed = 1;
nodes = (
"420 302 LINE",
"578 302 LINE",
"578 55 LINE",
"533 45 OFFCURVE",
"488 40 OFFCURVE",
"444 40 CURVE SMOOTH",
"248 40 OFFCURVE",
"119 154 OFFCURVE",
"119 354 CURVE SMOOTH",
"119 563 OFFCURVE",
"237 674 OFFCURVE",
"412 674 CURVE SMOOTH",
"467 674 OFFCURVE",
"521 663 OFFCURVE",
"574 642 CURVE",
"581 698 LINE",
"532 715 OFFCURVE",
"476 724 OFFCURVE",
"411 724 CURVE SMOOTH",
"210 724 OFFCURVE",
"65 580 OFFCURVE",
"65 356 CURVE SMOOTH",
"65 129 OFFCURVE",
"217 -10 OFFCURVE",
"444 -10 CURVE SMOOTH",
"504 -10 OFFCURVE",
"565 -1 OFFCURVE",
"626 17 CURVE",
"626 350 LINE",
"420 350 LINE"
);
},
{
closed = 1;
nodes = (
"276 873 OFFCURVE",
"263 904 OFFCURVE",
"257 948 CURVE",
"221 948 LINE",
"227 836 OFFCURVE",
"280 780 OFFCURVE",
"380 780 CURVE SMOOTH",
"480 780 OFFCURVE",
"533 836 OFFCURVE",
"539 948 CURVE",
"503 948 LINE",
"491 860 OFFCURVE",
"451 827 OFFCURVE",
"380 827 CURVE SMOOTH",
"345 827 OFFCURVE",
"317 836 OFFCURVE",
"297 855 CURVE"
);
}
);
width = 715;
}
);
note = Gbreve;
unicode = 011E;
},
{
glyphname = gbreve;
lastChange = "2017-11-01 11:12:10 +0000";
layers = (
{
layerId = "7CDC14DA-6B60-4478-82C0-E8B54FD96B1C";
paths = (
{
closed = 1;
nodes = (
"144 459 OFFCURVE",
"202 513 OFFCURVE",
"294 513 CURVE SMOOTH",
"378 513 OFFCURVE",
"439 454 OFFCURVE",
"439 367 CURVE SMOOTH",
"439 283 OFFCURVE",
"382 224 OFFCURVE",
"293 224 CURVE SMOOTH",
"208 224 OFFCURVE",
"144 281 OFFCURVE",
"144 368 CURVE SMOOTH"
);
},
{
closed = 1;
nodes = (
"211 -5 OFFCURVE",
"244 -3 OFFCURVE",
"293 1 CURVE SMOOTH",
"332 4 OFFCURVE",
"366 6 OFFCURVE",
"395 6 CURVE SMOOTH",
"453 6 OFFCURVE",
"482 -20 OFFCURVE",
"482 -71 CURVE SMOOTH",
"482 -135 OFFCURVE",
"410 -191 OFFCURVE",
"293 -191 CURVE SMOOTH",
"173 -191 OFFCURVE",
"117 -153 OFFCURVE",
"117 -90 CURVE SMOOTH",
"117 -55 OFFCURVE",
"134 -25 OFFCURVE",
"167 -2 CURVE",
"177 -4 OFFCURVE",
"186 -5 OFFCURVE",
"195 -5 CURVE SMOOTH"
);
},
{
closed = 1;
nodes = (
"442 -240 OFFCURVE",
"533 -165 OFFCURVE",
"533 -65 CURVE SMOOTH",
"533 8 OFFCURVE",
"482 57 OFFCURVE",
"399 57 CURVE SMOOTH",
"375 57 OFFCURVE",
"341 55 OFFCURVE",
"298 52 CURVE SMOOTH",
"258 49 OFFCURVE",
"228 47 OFFCURVE",
"207 47 CURVE SMOOTH",
"151 47 OFFCURVE",
"120 75 OFFCURVE",
"120 116 CURVE SMOOTH",
"120 152 OFFCURVE",
"141 180 OFFCURVE",
"183 201 CURVE",
"216 183 OFFCURVE",
"253 174 OFFCURVE",
"293 174 CURVE SMOOTH",
"408 174 OFFCURVE",
"492 252 OFFCURVE",
"492 359 CURVE SMOOTH",
"492 428 OFFCURVE",
"465 480 OFFCURVE",
"412 513 CURVE",
"572 506 LINE",
"580 552 LINE",
"475 552 LINE SMOOTH",
"440 552 OFFCURVE",
"407 554 OFFCURVE",
"377 557 CURVE SMOOTH",
"345 561 OFFCURVE",
"318 563 OFFCURVE",
"296 563 CURVE SMOOTH",
"173 563 OFFCURVE",
"91 486 OFFCURVE",
"91 367 CURVE SMOOTH",
"91 313 OFFCURVE",
"110 266 OFFCURVE",
"149 225 CURVE",
"97 200 OFFCURVE",
"71 162 OFFCURVE",
"71 112 CURVE SMOOTH",
"71 66 OFFCURVE",
"91 32 OFFCURVE",
"132 10 CURVE",
"89 -15 OFFCURVE",
"68 -52 OFFCURVE",
"68 -99 CURVE SMOOTH",
"68 -180 OFFCURVE",
"143 -240 OFFCURVE",
"278 -240 CURVE SMOOTH"
);
},
{
closed = 1;
nodes = (
"191 719 OFFCURVE",
"178 750 OFFCURVE",
"172 795 CURVE",
"136 795 LINE",
"143 682 OFFCURVE",
"196 625 OFFCURVE",
"295 625 CURVE SMOOTH",
"394 625 OFFCURVE",
"447 682 OFFCURVE",
"454 795 CURVE",
"418 795 LINE",
"406 706 OFFCURVE",
"366 672 OFFCURVE",
"295 672 CURVE SMOOTH",
"260 672 OFFCURVE",
"232 681 OFFCURVE",
"212 700 CURVE SMOOTH"
);
}
);
width = 590;
}
);
note = gbreve;
unicode = 011F;
},
{
glyphname = dotlessI;
lastChange = "2017-11-01 11:12:10 +0000";
layers = (
{
layerId = "7CDC14DA-6B60-4478-82C0-E8B54FD96B1C";
paths = (
{
closed = 1;
nodes = (
"105 694 LINE",
"105 0 LINE",
"154 0 LINE",
"154 694 LINE"
);
},
{
closed = 1;
nodes = (
"92 779 OFFCURVE",
"110 764 OFFCURVE",
"131 764 CURVE SMOOTH",
"152 764 OFFCURVE",
"170 779 OFFCURVE",
"170 803 CURVE SMOOTH",
"170 828 OFFCURVE",
"152 842 OFFCURVE",
"131 842 CURVE SMOOTH",
"108 842 OFFCURVE",
"92 828 OFFCURVE",
"92 803 CURVE SMOOTH"
);
}
);
width = 259;
}
);
note = dotlessI;
unicode = 0130;
},
{
glyphname = dotlessi;
lastChange = "2017-11-01 11:12:10 +0000";
layers = (
{
layerId = "7CDC14DA-6B60-4478-82C0-E8B54FD96B1C";
paths = (
{
closed = 1;
nodes = (
"95 552 LINE",
"95 0 LINE",
"145 0 LINE",
"145 552 LINE"
);
}
);
width = 240;
}
);
note = dotlessi;
unicode = 0131;
},
{
glyphname = Lslash;
lastChange = "2017-11-01 11:12:10 +0000";
layers = (
{
layerId = "7CDC14DA-6B60-4478-82C0-E8B54FD96B1C";
paths = (
{
closed = 1;
nodes = (
"188 49 LINE",
"188 302 LINE",
"408 428 LINE",
"387 464 LINE",
"188 350 LINE",
"188 714 LINE",
"139 714 LINE",
"139 322 LINE",
"12 246 LINE",
"33 210 LINE",
"139 274 LINE",
"139 0 LINE",
"515 0 LINE",
"515 49 LINE"
);
}
);
width = 549;
}
);
note = Lslash;
unicode = 0141;
},
{
glyphname = lslash;
lastChange = "2017-11-01 11:12:10 +0000";
layers = (
{
layerId = "7CDC14DA-6B60-4478-82C0-E8B54FD96B1C";
paths = (
{
closed = 1;
nodes = (
"335 381 LINE",
"314 417 LINE",
"191 347 LINE",
"191 752 LINE",
"142 752 LINE",
"142 324 LINE",
"17 253 LINE",
"38 216 LINE",
"142 275 LINE",
"142 0 LINE",
"191 0 LINE",
"191 299 LINE"
);
}
);
width = 342;
}
);
note = lslash;
unicode = 0142;
},
{
glyphname = OE;
lastChange = "2017-11-01 11:12:10 +0000";
layers = (
{
layerId = "7CDC14DA-6B60-4478-82C0-E8B54FD96B1C";
paths = (
{
closed = 1;
nodes = (
"567 351 LINE",
"864 351 LINE",
"864 399 LINE",
"567 399 LINE",
"567 666 LINE",
"884 666 LINE",
"884 714 LINE",
"518 714 LINE",
"518 693 LINE",
"473 714 OFFCURVE",
"430 724 OFFCURVE",
"387 724 CURVE SMOOTH",
"190 724 OFFCURVE",
"65 578 OFFCURVE",
"65 357 CURVE SMOOTH",
"65 146 OFFCURVE",
"193 -10 OFFCURVE",
"396 -10 CURVE SMOOTH",
"438 -10 OFFCURVE",
"479 -1 OFFCURVE",
"518 18 CURVE",
"518 0 LINE",
"894 0 LINE",
"894 48 LINE",
"567 48 LINE"
);
},
{
closed = 1;
nodes = (
"233 40 OFFCURVE",
"119 166 OFFCURVE",
"119 354 CURVE SMOOTH",
"119 551 OFFCURVE",
"222 674 OFFCURVE",
"383 674 CURVE SMOOTH",
"431 674 OFFCURVE",
"476 662 OFFCURVE",
"518 638 CURVE",
"518 70 LINE",
"482 50 OFFCURVE",
"443 40 OFFCURVE",
"400 40 CURVE SMOOTH"
);
}
);
width = 966;
}
);
note = OE;
unicode = 0152;
},
{
glyphname = oe;
lastChange = "2017-11-01 11:12:10 +0000";
layers = (
{
layerId = "7CDC14DA-6B60-4478-82C0-E8B54FD96B1C";
paths = (
{
closed = 1;
nodes = (
"163 563 OFFCURVE",
"62 451 OFFCURVE",
"62 276 CURVE SMOOTH",
"62 103 OFFCURVE",
"173 -11 OFFCURVE",
"309 -11 CURVE SMOOTH",
"413 -11 OFFCURVE",
"495 43 OFFCURVE",
"534 135 CURVE",
"578 42 OFFCURVE",
"668 -11 OFFCURVE",
"785 -11 CURVE SMOOTH",
"840 -11 OFFCURVE",
"892 -2 OFFCURVE",
"943 16 CURVE",
"939 70 LINE",
"888 49 OFFCURVE",
"836 39 OFFCURVE",
"785 39 CURVE SMOOTH",
"648 39 OFFCURVE",
"559 126 OFFCURVE",
"559 275 CURVE SMOOTH",
"559 285 LINE",
"969 285 LINE",
"970 295 OFFCURVE",
"971 311 OFFCURVE",
"971 332 CURVE SMOOTH",
"971 377 OFFCURVE",
"963 417 OFFCURVE",
"946 452 CURVE SMOOTH",
"913 522 OFFCURVE",
"843 563 OFFCURVE",
"754 563 CURVE SMOOTH",
"661 563 OFFCURVE",
"576 507 OFFCURVE",
"533 414 CURVE",
"493 506 OFFCURVE",
"413 563 OFFCURVE",
"312 563 CURVE SMOOTH"
);
},
{
closed = 1;
nodes = (
"117 429 OFFCURVE",
"187 513 OFFCURVE",
"307 513 CURVE SMOOTH",
"424 513 OFFCURVE",
"506 426 OFFCURVE",
"506 279 CURVE SMOOTH",
"506 132 OFFCURVE",
"431 39 OFFCURVE",
"314 39 CURVE SMOOTH",
"197 39 OFFCURVE",
"117 126 OFFCURVE",
"117 273 CURVE SMOOTH"
);
},
{
closed = 1;
nodes = (
"859 513 OFFCURVE",
"919 450 OFFCURVE",
"919 330 CURVE",
"563 330 LINE",
"576 437 OFFCURVE",
"654 513 OFFCURVE",
"755 513 CURVE SMOOTH"
);
}
);
width = 1021;
}
);
note = oe;
unicode = 0153;
},
{
glyphname = Scedilla;
lastChange = "2017-11-01 11:12:10 +0000";
layers = (
{
layerId = "7CDC14DA-6B60-4478-82C0-E8B54FD96B1C";
paths = (
{
closed = 1;
nodes = (
"489 264 OFFCURVE",
"443 328 OFFCURVE",
"351 365 CURVE SMOOTH",
"222 418 LINE SMOOTH",
"154 446 OFFCURVE",
"119 479 OFFCURVE",
"119 542 CURVE SMOOTH",
"119 618 OFFCURVE",
"182 674 OFFCURVE",
"285 674 CURVE SMOOTH",
"342 674 OFFCURVE",
"398 660 OFFCURVE",
"451 631 CURVE",
"463 686 LINE",
"406 711 OFFCURVE",
"347 724 OFFCURVE",
"284 724 CURVE SMOOTH",
"155 724 OFFCURVE",
"67 646 OFFCURVE",
"67 542 CURVE SMOOTH",
"67 457 OFFCURVE",
"108 411 OFFCURVE",
"205 371 CURVE SMOOTH",
"323 321 LINE SMOOTH",
"406 285 OFFCURVE",
"436 239 OFFCURVE",
"436 174 CURVE SMOOTH",
"436 93 OFFCURVE",
"370 40 OFFCURVE",
"251 40 CURVE SMOOTH",
"182 40 OFFCURVE",
"119 58 OFFCURVE",
"60 93 CURVE",
"53 34 LINE",
"114 5 OFFCURVE",
"179 -10 OFFCURVE",
"248 -10 CURVE SMOOTH",
"400 -10 OFFCURVE",
"489 61 OFFCURVE",
"489 174 CURVE SMOOTH"
);
},
{
closed = 1;
nodes = (
"182 -230 LINE",
"246 -230 LINE",
"320 -50 LINE",
"282 -50 LINE"
);
}
);
width = 540;
}
);
note = Scedilla;
unicode = 015E;
},
{
glyphname = scedilla;
lastChange = "2017-11-01 11:12:10 +0000";
layers = (
{
layerId = "7CDC14DA-6B60-4478-82C0-E8B54FD96B1C";
paths = (
{
closed = 1;
nodes = (
"430 202 OFFCURVE",
"389 253 OFFCURVE",
"308 286 CURVE SMOOTH",
"197 331 LINE SMOOTH",
"141 354 OFFCURVE",
"113 386 OFFCURVE",
"113 425 CURVE SMOOTH",
"113 478 OFFCURVE",
"157 512 OFFCURVE",
"245 512 CURVE SMOOTH",
"294 512 OFFCURVE",
"343 499 OFFCURVE",
"391 473 CURVE",
"399 529 LINE",
"352 552 OFFCURVE",
"300 563 OFFCURVE",
"244 563 CURVE SMOOTH",
"128 563 OFFCURVE",
"63 504 OFFCURVE",
"63 425 CURVE SMOOTH",
"63 362 OFFCURVE",
"93 319 OFFCURVE",
"180 284 CURVE SMOOTH",
"287 241 LINE SMOOTH",
"355 214 OFFCURVE",
"376 182 OFFCURVE",
"376 134 CURVE SMOOTH",
"376 71 OFFCURVE",
"331 40 OFFCURVE",
"242 40 CURVE SMOOTH",
"180 40 OFFCURVE",
"121 56 OFFCURVE",
"65 89 CURVE",
"56 32 LINE",
"109 3 OFFCURVE",
"172 -11 OFFCURVE",
"244 -11 CURVE SMOOTH",
"363 -11 OFFCURVE",
"430 42 OFFCURVE",
"430 133 CURVE SMOOTH"
);
},
{
closed = 1;
nodes = (
"152 -230 LINE",
"216 -230 LINE",
"290 -50 LINE",
"252 -50 LINE"
);
}
);
width = 474;
}
);
note = scedilla;
unicode = 015F;
},
{
glyphname = Scaron;
lastChange = "2017-11-01 11:12:10 +0000";
layers = (
{
layerId = "7CDC14DA-6B60-4478-82C0-E8B54FD96B1C";
paths = (
{
closed = 1;
nodes = (
"489 264 OFFCURVE",
"443 328 OFFCURVE",
"351 365 CURVE SMOOTH",
"222 418 LINE SMOOTH",
"154 446 OFFCURVE",
"119 479 OFFCURVE",
"119 542 CURVE SMOOTH",
"119 618 OFFCURVE",
"182 674 OFFCURVE",
"285 674 CURVE SMOOTH",
"342 674 OFFCURVE",
"398 660 OFFCURVE",
"451 631 CURVE",
"463 686 LINE",
"406 711 OFFCURVE",
"347 724 OFFCURVE",
"284 724 CURVE SMOOTH",
"155 724 OFFCURVE",
"67 646 OFFCURVE",
"67 542 CURVE SMOOTH",
"67 457 OFFCURVE",
"108 411 OFFCURVE",
"205 371 CURVE SMOOTH",
"323 321 LINE SMOOTH",
"406 285 OFFCURVE",
"436 239 OFFCURVE",
"436 174 CURVE SMOOTH",
"436 93 OFFCURVE",
"370 40 OFFCURVE",
"251 40 CURVE SMOOTH",
"182 40 OFFCURVE",
"119 58 OFFCURVE",
"60 93 CURVE",
"53 34 LINE",
"114 5 OFFCURVE",
"179 -10 OFFCURVE",
"248 -10 CURVE SMOOTH",
"400 -10 OFFCURVE",
"489 61 OFFCURVE",
"489 174 CURVE SMOOTH"
);
},
{
closed = 1;
nodes = (
"436 934 LINE",
"393 934 LINE",
"280 804 LINE",
"166 934 LINE",
"125 934 LINE",
"259 754 LINE",
"301 754 LINE"
);
}
);
width = 540;
}
);
note = Scaron;
unicode = 0160;
},
{
glyphname = scaron;
lastChange = "2017-11-01 11:12:10 +0000";
layers = (
{
layerId = "7CDC14DA-6B60-4478-82C0-E8B54FD96B1C";
paths = (
{
closed = 1;
nodes = (
"430 202 OFFCURVE",
"389 253 OFFCURVE",
"308 286 CURVE SMOOTH",
"197 331 LINE SMOOTH",
"141 354 OFFCURVE",
"113 386 OFFCURVE",
"113 425 CURVE SMOOTH",
"113 478 OFFCURVE",
"157 512 OFFCURVE",
"245 512 CURVE SMOOTH",
"294 512 OFFCURVE",
"343 499 OFFCURVE",
"391 473 CURVE",
"399 529 LINE",
"352 552 OFFCURVE",
"300 563 OFFCURVE",
"244 563 CURVE SMOOTH",
"128 563 OFFCURVE",
"63 504 OFFCURVE",
"63 425 CURVE SMOOTH",
"63 362 OFFCURVE",
"93 319 OFFCURVE",
"180 284 CURVE SMOOTH",
"287 241 LINE SMOOTH",
"355 214 OFFCURVE",
"376 182 OFFCURVE",
"376 134 CURVE SMOOTH",
"376 71 OFFCURVE",
"331 40 OFFCURVE",
"242 40 CURVE SMOOTH",
"180 40 OFFCURVE",
"121 56 OFFCURVE",
"65 89 CURVE",
"56 32 LINE",
"109 3 OFFCURVE",
"172 -11 OFFCURVE",
"244 -11 CURVE SMOOTH",
"363 -11 OFFCURVE",
"430 42 OFFCURVE",
"430 133 CURVE SMOOTH"
);
},
{
closed = 1;
nodes = (
"399 782 LINE",
"356 782 LINE",
"243 652 LINE",
"129 782 LINE",
"88 782 LINE",
"222 602 LINE",
"264 602 LINE"
);
}
);
width = 474;
}
);
note = scaron;
unicode = 0161;
},
{
glyphname = Ydieresis;
lastChange = "2017-11-01 11:12:10 +0000";
layers = (
{
layerId = "7CDC14DA-6B60-4478-82C0-E8B54FD96B1C";
paths = (
{
closed = 1;
nodes = (
"255 305 LINE",
"255 0 LINE",
"305 0 LINE",
"305 309 LINE",
"541 714 LINE",
"488 714 LINE",
"280 354 LINE",
"73 714 LINE",
"18 714 LINE"
);
},
{
closed = 1;
nodes = (
"227 824 OFFCURVE",
"231 833 OFFCURVE",
"231 845 CURVE SMOOTH",
"231 870 OFFCURVE",
"213 884 OFFCURVE",
"193 884 CURVE SMOOTH",
"173 884 OFFCURVE",
"155 870 OFFCURVE",
"155 845 CURVE SMOOTH",
"155 821 OFFCURVE",
"173 806 OFFCURVE",
"193 806 CURVE SMOOTH",
"203 806 OFFCURVE",
"212 810 OFFCURVE",
"220 817 CURVE"
);
},
{
closed = 1;
nodes = (
"405 824 OFFCURVE",
"409 833 OFFCURVE",
"409 845 CURVE SMOOTH",
"409 870 OFFCURVE",
"391 884 OFFCURVE",
"371 884 CURVE SMOOTH",
"351 884 OFFCURVE",
"333 870 OFFCURVE",
"333 845 CURVE SMOOTH",
"333 821 OFFCURVE",
"351 806 OFFCURVE",
"371 806 CURVE SMOOTH",
"381 806 OFFCURVE",
"390 810 OFFCURVE",
"398 817 CURVE"
);
}
);
width = 559;
}
);
note = Ydieresis;
unicode = 0178;
},
{
glyphname = Zcaron;
lastChange = "2017-11-01 11:12:10 +0000";
layers = (
{
layerId = "7CDC14DA-6B60-4478-82C0-E8B54FD96B1C";
paths = (
{
closed = 1;
nodes = (
"516 664 LINE",
"516 714 LINE",
"61 714 LINE",
"61 666 LINE",
"457 666 LINE",
"48 50 LINE",
"48 0 LINE",
"527 0 LINE",
"527 48 LINE",
"106 48 LINE"
);
},
{
closed = 1;
nodes = (
"450 934 LINE",
"407 934 LINE",
"294 804 LINE",
"180 934 LINE",
"139 934 LINE",
"273 754 LINE",
"315 754 LINE"
);
}
);
width = 570;
}
);
note = Zcaron;
unicode = 017D;
},
{
glyphname = zcaron;
lastChange = "2017-11-01 11:12:10 +0000";
layers = (
{
layerId = "7CDC14DA-6B60-4478-82C0-E8B54FD96B1C";
paths = (
{
closed = 1;
nodes = (
"453 507 LINE",
"453 552 LINE",
"65 552 LINE",
"65 508 LINE",
"391 508 LINE",
"45 41 LINE",
"45 0 LINE",
"460 0 LINE",
"460 44 LINE",
"107 44 LINE"
);
},
{
closed = 1;
nodes = (
"414 782 LINE",
"371 782 LINE",
"258 652 LINE",
"144 782 LINE",
"103 782 LINE",
"237 602 LINE",
"279 602 LINE"
);
}
);
width = 496;
}
);
note = zcaron;
unicode = 017E;
},
{
glyphname = florin;
lastChange = "2017-11-01 11:12:10 +0000";
layers = (
{
layerId = "7CDC14DA-6B60-4478-82C0-E8B54FD96B1C";
paths = (
{
closed = 1;
nodes = (
"111 414 LINE",
"226 414 LINE",
"140 -75 LINE SMOOTH",
"129 -138 OFFCURVE",
"90 -170 OFFCURVE",
"34 -170 CURVE SMOOTH",
"20 -170 OFFCURVE",
"6 -168 OFFCURVE",
"-8 -164 CURVE",
"-12 -213 LINE",
"4 -218 OFFCURVE",
"18 -220 OFFCURVE",
"31 -220 CURVE SMOOTH",
"118 -220 OFFCURVE",
"169 -175 OFFCURVE",
"186 -84 CURVE SMOOTH",
"275 414 LINE",
"435 414 LINE",
"450 459 LINE",
"284 459 LINE",
"298 549 LINE SMOOTH",
"311 630 OFFCURVE",
"360 674 OFFCURVE",
"439 674 CURVE SMOOTH",
"464 674 OFFCURVE",
"487 671 OFFCURVE",
"507 665 CURVE",
"512 714 LINE",
"490 721 OFFCURVE",
"466 724 OFFCURVE",
"441 724 CURVE SMOOTH",
"337 724 OFFCURVE",
"266 658 OFFCURVE",
"250 555 CURVE SMOOTH",
"234 459 LINE",
"120 459 LINE"
);
}
);
width = 519;
}
);
note = florin;
unicode = 0192;
},
{
glyphname = dotlessj;
lastChange = "2017-11-01 11:12:10 +0000";
layers = (
{
layerId = "7CDC14DA-6B60-4478-82C0-E8B54FD96B1C";
paths = (
{
closed = 1;
nodes = (
"122 -152 OFFCURVE",
"89 -186 OFFCURVE",
"30 -186 CURVE SMOOTH",
"20 -186 OFFCURVE",
"6 -185 OFFCURVE",
"-11 -182 CURVE",
"-11 -228 LINE",
"4 -231 OFFCURVE",
"19 -233 OFFCURVE",
"33 -233 CURVE SMOOTH",
"122 -233 OFFCURVE",
"172 -181 OFFCURVE",
"172 -85 CURVE SMOOTH",
"172 552 LINE",
"122 552 LINE",
"122 -85 LINE SMOOTH"
);
}
);
width = 265;
}
);
note = dotlessj;
unicode = 0237;
},
{
glyphname = circumflex;
lastChange = "2017-11-01 11:12:10 +0000";
layers = (
{
layerId = "7CDC14DA-6B60-4478-82C0-E8B54FD96B1C";
paths = (
{
closed = 1;
nodes = (
"249 732 LINE",
"362 602 LINE",
"405 602 LINE",
"270 782 LINE",
"228 782 LINE",
"94 602 LINE",
"135 602 LINE"
);
}
);
width = 500;
}
);
note = circumflex;
unicode = 02C6;
},
{
glyphname = caron;
lastChange = "2017-11-01 11:12:10 +0000";
layers = (
{
layerId = "7CDC14DA-6B60-4478-82C0-E8B54FD96B1C";
paths = (
{
closed = 1;
nodes = (
"405 782 LINE",
"362 782 LINE",
"249 652 LINE",
"135 782 LINE",
"94 782 LINE",
"228 602 LINE",
"270 602 LINE"
);
}
);
width = 500;
}
);
note = caron;
unicode = 02C7;
},
{
glyphname = breve;
lastChange = "2017-11-01 11:12:10 +0000";
layers = (
{
layerId = "7CDC14DA-6B60-4478-82C0-E8B54FD96B1C";
paths = (
{
closed = 1;
nodes = (
"98 666 OFFCURVE",
"151 602 OFFCURVE",
"250 602 CURVE SMOOTH",
"349 602 OFFCURVE",
"402 666 OFFCURVE",
"409 782 CURVE",
"373 782 LINE",
"360 693 OFFCURVE",
"319 649 OFFCURVE",
"250 649 CURVE SMOOTH",
"181 649 OFFCURVE",
"140 693 OFFCURVE",
"127 782 CURVE",
"91 782 LINE"
);
}
);
width = 500;
}
);
note = breve;
unicode = 02D8;
},
{
glyphname = dotaccent;
lastChange = "2017-11-01 11:12:10 +0000";
layers = (
{
layerId = "7CDC14DA-6B60-4478-82C0-E8B54FD96B1C";
paths = (
{
closed = 1;
nodes = (
"212 679 OFFCURVE",
"230 664 OFFCURVE",
"251 664 CURVE SMOOTH",
"272 664 OFFCURVE",
"290 679 OFFCURVE",
"290 703 CURVE SMOOTH",
"290 728 OFFCURVE",
"272 742 OFFCURVE",
"251 742 CURVE SMOOTH",
"228 742 OFFCURVE",
"212 728 OFFCURVE",
"212 703 CURVE SMOOTH"
);
}
);
width = 500;
}
);
note = dotaccent;
unicode = 02D9;
},
{
glyphname = ring;
lastChange = "2017-11-01 11:12:10 +0000";
layers = (
{
layerId = "7CDC14DA-6B60-4478-82C0-E8B54FD96B1C";
paths = (
{
closed = 1;
nodes = (
"359 763 OFFCURVE",
"313 809 OFFCURVE",
"249 809 CURVE SMOOTH",
"185 809 OFFCURVE",
"141 765 OFFCURVE",
"141 705 CURVE SMOOTH",
"141 641 OFFCURVE",
"184 600 OFFCURVE",
"249 600 CURVE SMOOTH",
"314 600 OFFCURVE",
"359 643 OFFCURVE",
"359 706 CURVE SMOOTH"
);
},
{
closed = 1;
nodes = (
"286 643 OFFCURVE",
"270 637 OFFCURVE",
"249 637 CURVE SMOOTH",
"206 637 OFFCURVE",
"181 664 OFFCURVE",
"181 705 CURVE SMOOTH",
"181 745 OFFCURVE",
"209 773 OFFCURVE",
"249 773 CURVE SMOOTH",
"289 773 OFFCURVE",
"317 746 OFFCURVE",
"317 705 CURVE SMOOTH",
"317 684 OFFCURVE",
"311 668 OFFCURVE",
"299 656 CURVE SMOOTH"
);
}
);
width = 500;
}
);
note = ring;
unicode = 02DA;
},
{
glyphname = ogonek;
lastChange = "2017-11-01 11:12:10 +0000";
layers = (
{
layerId = "7CDC14DA-6B60-4478-82C0-E8B54FD96B1C";
paths = (
{
closed = 1;
nodes = (
"217 -84 OFFCURVE",
"248 -40 OFFCURVE",
"309 0 CURVE",
"274 0 LINE",
"209 -39 OFFCURVE",
"176 -86 OFFCURVE",
"176 -139 CURVE SMOOTH",
"176 -200 OFFCURVE",
"217 -240 OFFCURVE",
"288 -240 CURVE SMOOTH",
"300 -240 OFFCURVE",
"312 -238 OFFCURVE",
"324 -235 CURVE",
"322 -196 LINE",
"311 -199 OFFCURVE",
"300 -201 OFFCURVE",
"289 -201 CURVE SMOOTH",
"244 -201 OFFCURVE",
"217 -177 OFFCURVE",
"217 -133 CURVE SMOOTH"
);
}
);
width = 500;
}
);
note = ogonek;
unicode = 02DB;
},
{
glyphname = tilde;
lastChange = "2017-11-01 11:12:10 +0000";
layers = (
{
layerId = "7CDC14DA-6B60-4478-82C0-E8B54FD96B1C";
paths = (
{
closed = 1;
nodes = (
"285 663 OFFCURVE",
"311 655 OFFCURVE",
"331 655 CURVE SMOOTH",
"376 655 OFFCURVE",
"413 687 OFFCURVE",
"422 740 CURVE",
"390 754 LINE",
"379 717 OFFCURVE",
"364 701 OFFCURVE",
"331 701 CURVE SMOOTH",
"317 701 OFFCURVE",
"295 709 OFFCURVE",
"264 725 CURVE SMOOTH",
"229 742 OFFCURVE",
"202 751 OFFCURVE",
"183 751 CURVE SMOOTH",
"138 751 OFFCURVE",
"101 719 OFFCURVE",
"92 666 CURVE",
"124 652 LINE",
"135 689 OFFCURVE",
"150 705 OFFCURVE",
"183 705 CURVE SMOOTH",
"194 705 OFFCURVE",
"217 696 OFFCURVE",
"253 679 CURVE SMOOTH"
);
}
);
width = 500;
}
);
note = tilde;
unicode = 02DC;
},
{
glyphname = hungarumlaut;
lastChange = "2017-11-01 11:12:10 +0000";
layers = (
{
layerId = "7CDC14DA-6B60-4478-82C0-E8B54FD96B1C";
paths = (
{
closed = 1;
nodes = (
"229 782 LINE",
"165 782 LINE",
"91 602 LINE",
"129 602 LINE"
);
},
{
closed = 1;
nodes = (
"406 782 LINE",
"342 782 LINE",
"268 602 LINE",
"306 602 LINE"
);
}
);
width = 500;
}
);
note = hungarumlaut;
unicode = 02DD;
},
{
glyphname = dotbelow;
lastChange = "2017-11-01 11:12:10 +0000";
layers = (
{
layerId = "7CDC14DA-6B60-4478-82C0-E8B54FD96B1C";
paths = (
{
closed = 1;
nodes = (
"212 -175 OFFCURVE",
"230 -190 OFFCURVE",
"251 -190 CURVE SMOOTH",
"272 -190 OFFCURVE",
"290 -175 OFFCURVE",
"290 -151 CURVE SMOOTH",
"290 -126 OFFCURVE",
"272 -112 OFFCURVE",
"251 -112 CURVE SMOOTH",
"228 -112 OFFCURVE",
"212 -126 OFFCURVE",
"212 -151 CURVE SMOOTH"
);
}
);
width = 500;
}
);
note = dotbelow;
unicode = 0323;
},
{
glyphname = uni0394;
lastChange = "2017-11-01 11:12:10 +0000";
layers = (
{
layerId = "7CDC14DA-6B60-4478-82C0-E8B54FD96B1C";
paths = (
{
closed = 1;
nodes = (
"300 714 LINE",
"12 0 LINE",
"626 0 LINE",
"339 714 LINE"
);
},
{
closed = 1;
nodes = (
"86 48 LINE",
"230 415 LINE",
"320 640 LINE",
"409 414 LINE",
"550 48 LINE"
);
}
);
width = 638;
}
);
note = uni0394;
unicode = 0394;
},
{
glyphname = uni03A9;
lastChange = "2017-11-01 11:12:10 +0000";
layers = (
{
layerId = "7CDC14DA-6B60-4478-82C0-E8B54FD96B1C";
paths = (
{
closed = 1;
nodes = (
"716 579 OFFCURVE",
"584 724 OFFCURVE",
"395 724 CURVE SMOOTH",
"207 724 OFFCURVE",
"75 579 OFFCURVE",
"75 374 CURVE SMOOTH",
"75 225 OFFCURVE",
"143 127 OFFCURVE",
"254 46 CURVE",
"97 48 LINE",
"51 48 LINE",
"51 0 LINE",
"304 0 LINE",
"304 48 LINE",
"187 148 OFFCURVE",
"129 234 OFFCURVE",
"129 373 CURVE SMOOTH",
"129 562 OFFCURVE",
"236 674 OFFCURVE",
"395 674 CURVE SMOOTH",
"555 674 OFFCURVE",
"662 562 OFFCURVE",
"662 373 CURVE SMOOTH",
"662 234 OFFCURVE",
"604 148 OFFCURVE",
"487 48 CURVE",
"487 0 LINE",
"740 0 LINE",
"740 48 LINE",
"694 48 LINE",
"537 46 LINE",
"648 127 OFFCURVE",
"716 225 OFFCURVE",
"716 374 CURVE SMOOTH"
);
}
);
width = 791;
}
);
note = uni03A9;
unicode = 03A9;
},
{
glyphname = uni03BC;
lastChange = "2017-11-01 11:12:10 +0000";
layers = (
{
layerId = "7CDC14DA-6B60-4478-82C0-E8B54FD96B1C";
paths = (
{
closed = 1;
nodes = (
"170 15 OFFCURVE",
"220 -10 OFFCURVE",
"287 -10 CURVE SMOOTH",
"380 -10 OFFCURVE",
"448 42 OFFCURVE",
"484 122 CURVE",
"484 0 LINE",
"533 0 LINE",
"533 552 LINE",
"483 552 LINE",
"483 305 LINE SMOOTH",
"483 154 OFFCURVE",
"434 38 OFFCURVE",
"291 38 CURVE SMOOTH",
"190 38 OFFCURVE",
"140 98 OFFCURVE",
"140 218 CURVE SMOOTH",
"140 552 LINE",
"90 552 LINE",
"90 -220 LINE",
"140 -220 LINE",
"140 -134 LINE",
"138 66 LINE"
);
}
);
width = 628;
}
);
note = uni03BC;
unicode = 03BC;
},
{
glyphname = pi;
lastChange = "2017-11-01 11:12:10 +0000";
layers = (
{
layerId = "7CDC14DA-6B60-4478-82C0-E8B54FD96B1C";
paths = (
{
closed = 1;
nodes = (
"24 552 LINE",
"24 507 LINE",
"140 507 LINE",
"140 0 LINE",
"190 0 LINE",
"190 507 LINE",
"471 507 LINE",
"471 135 LINE SMOOTH",
"471 40 OFFCURVE",
"524 -11 OFFCURVE",
"611 -11 CURVE SMOOTH",
"628 -11 OFFCURVE",
"642 -9 OFFCURVE",
"653 -6 CURVE",
"653 46 LINE",
"641 42 OFFCURVE",
"628 40 OFFCURVE",
"614 40 CURVE SMOOTH",
"552 40 OFFCURVE",
"521 72 OFFCURVE",
"521 137 CURVE SMOOTH",
"521 507 LINE",
"658 507 LINE",
"665 552 LINE"
);
}
);
width = 691;
}
);
note = pi;
unicode = 03C0;
},
{
glyphname = endash;
lastChange = "2017-11-01 11:12:10 +0000";
layers = (
{
layerId = "7CDC14DA-6B60-4478-82C0-E8B54FD96B1C";
paths = (
{
closed = 1;
nodes = (
"500 334 LINE",
"500 380 LINE",
"0 380 LINE",
"0 334 LINE"
);
}
);
width = 500;
}
);
note = endash;
unicode = 2013;
},
{
glyphname = emdash;
lastChange = "2017-11-01 11:12:10 +0000";
layers = (
{
layerId = "7CDC14DA-6B60-4478-82C0-E8B54FD96B1C";
paths = (
{
closed = 1;
nodes = (
"1000 334 LINE",
"1000 380 LINE",
"0 380 LINE",
"0 334 LINE"
);
}
);
width = 1000;
}
);
note = emdash;
unicode = 2014;
},
{
glyphname = quoteleft;
lastChange = "2017-11-01 11:12:10 +0000";
layers = (
{
layerId = "7CDC14DA-6B60-4478-82C0-E8B54FD96B1C";
paths = (
{
closed = 1;
nodes = (
"149 714 LINE",
"76 506 LINE",
"140 506 LINE",
"188 714 LINE"
);
}
);
width = 250;
}
);
note = quoteleft;
unicode = 2018;
},
{
glyphname = quoteright;
lastChange = "2017-11-01 11:12:10 +0000";
layers = (
{
layerId = "7CDC14DA-6B60-4478-82C0-E8B54FD96B1C";
paths = (
{
closed = 1;
nodes = (
"101 506 LINE",
"174 714 LINE",
"110 714 LINE",
"62 506 LINE"
);
}
);
width = 250;
}
);
note = quoteright;
unicode = 2019;
},
{
glyphname = quotesinglbase;
lastChange = "2017-11-01 11:12:10 +0000";
layers = (
{
layerId = "7CDC14DA-6B60-4478-82C0-E8B54FD96B1C";
paths = (
{
closed = 1;
nodes = (
"101 -128 LINE",
"174 80 LINE",
"110 80 LINE",
"62 -128 LINE"
);
}
);
width = 250;
}
);
note = quotesinglbase;
unicode = 201A;
},
{
glyphname = quotedblleft;
lastChange = "2017-11-01 11:12:10 +0000";
layers = (
{
layerId = "7CDC14DA-6B60-4478-82C0-E8B54FD96B1C";
paths = (
{
closed = 1;
nodes = (
"299 714 LINE",
"226 506 LINE",
"290 506 LINE",
"338 714 LINE"
);
},
{
closed = 1;
nodes = (
"149 714 LINE",
"76 506 LINE",
"140 506 LINE",
"188 714 LINE"
);
}
);
width = 400;
}
);
note = quotedblleft;
unicode = 201C;
},
{
glyphname = quotedblright;
lastChange = "2017-11-01 11:12:10 +0000";
layers = (
{
layerId = "7CDC14DA-6B60-4478-82C0-E8B54FD96B1C";
paths = (
{
closed = 1;
nodes = (
"101 506 LINE",
"174 714 LINE",
"110 714 LINE",
"62 506 LINE"
);
},
{
closed = 1;
nodes = (
"251 506 LINE",
"324 714 LINE",
"260 714 LINE",
"212 506 LINE"
);
}
);
width = 400;
}
);
note = quotedblright;
unicode = 201D;
},
{
glyphname = quotedblbase;
lastChange = "2017-11-01 11:12:10 +0000";
layers = (
{
layerId = "7CDC14DA-6B60-4478-82C0-E8B54FD96B1C";
paths = (
{
closed = 1;
nodes = (
"101 -128 LINE",
"174 80 LINE",
"110 80 LINE",
"62 -128 LINE"
);
},
{
closed = 1;
nodes = (
"251 -128 LINE",
"324 80 LINE",
"260 80 LINE",
"212 -128 LINE"
);
}
);
width = 400;
}
);
note = quotedblbase;
unicode = 201E;
},
{
glyphname = dagger;
lastChange = "2017-11-01 11:12:10 +0000";
layers = (
{
layerId = "7CDC14DA-6B60-4478-82C0-E8B54FD96B1C";
paths = (
{
closed = 1;
nodes = (
"238 552 LINE",
"47 552 LINE",
"47 506 LINE",
"238 506 LINE",
"238 -220 LINE",
"284 -220 LINE",
"284 506 LINE",
"475 506 LINE",
"475 552 LINE",
"284 552 LINE",
"284 742 LINE",
"238 742 LINE"
);
}
);
width = 522;
}
);
note = dagger;
unicode = 2020;
},
{
glyphname = daggerdbl;
lastChange = "2017-11-01 11:12:10 +0000";
layers = (
{
layerId = "7CDC14DA-6B60-4478-82C0-E8B54FD96B1C";
paths = (
{
closed = 1;
nodes = (
"238 0 LINE",
"238 -220 LINE",
"284 -220 LINE",
"284 0 LINE",
"475 0 LINE",
"475 46 LINE",
"284 46 LINE",
"284 506 LINE",
"475 506 LINE",
"475 552 LINE",
"284 552 LINE",
"284 742 LINE",
"238 742 LINE",
"238 552 LINE",
"47 552 LINE",
"47 506 LINE",
"238 506 LINE",
"238 46 LINE",
"47 46 LINE",
"47 0 LINE"
);
}
);
width = 522;
}
);
note = daggerdbl;
unicode = 2021;
},
{
glyphname = bullet;
lastChange = "2017-11-01 11:12:10 +0000";
layers = (
{
layerId = "7CDC14DA-6B60-4478-82C0-E8B54FD96B1C";
paths = (
{
closed = 1;
nodes = (
"162 202 OFFCURVE",
"203 185 OFFCURVE",
"250 185 CURVE SMOOTH",
"345 185 OFFCURVE",
"422 262 OFFCURVE",
"422 357 CURVE SMOOTH",
"422 452 OFFCURVE",
"345 529 OFFCURVE",
"250 529 CURVE SMOOTH",
"155 529 OFFCURVE",
"78 452 OFFCURVE",
"78 357 CURVE SMOOTH",
"78 310 OFFCURVE",
"95 269 OFFCURVE",
"129 236 CURVE SMOOTH"
);
}
);
width = 500;
}
);
note = bullet;
unicode = 2022;
},
{
glyphname = ellipsis;
lastChange = "2017-11-01 11:12:10 +0000";
layers = (
{
layerId = "7CDC14DA-6B60-4478-82C0-E8B54FD96B1C";
paths = (
{
closed = 1;
nodes = (
"79 7 OFFCURVE",
"99 -11 OFFCURVE",
"124 -11 CURVE SMOOTH",
"149 -11 OFFCURVE",
"170 7 OFFCURVE",
"170 34 CURVE SMOOTH",
"170 63 OFFCURVE",
"149 80 OFFCURVE",
"124 80 CURVE SMOOTH",
"99 80 OFFCURVE",
"79 63 OFFCURVE",
"79 34 CURVE SMOOTH"
);
},
{
closed = 1;
nodes = (
"330 7 OFFCURVE",
"350 -11 OFFCURVE",
"375 -11 CURVE SMOOTH",
"400 -11 OFFCURVE",
"421 7 OFFCURVE",
"421 34 CURVE SMOOTH",
"421 63 OFFCURVE",
"400 80 OFFCURVE",
"375 80 CURVE SMOOTH",
"350 80 OFFCURVE",
"330 63 OFFCURVE",
"330 34 CURVE SMOOTH"
);
},
{
closed = 1;
nodes = (
"580 7 OFFCURVE",
"600 -11 OFFCURVE",
"625 -11 CURVE SMOOTH",
"650 -11 OFFCURVE",
"671 7 OFFCURVE",
"671 34 CURVE SMOOTH",
"671 63 OFFCURVE",
"650 80 OFFCURVE",
"625 80 CURVE SMOOTH",
"600 80 OFFCURVE",
"580 63 OFFCURVE",
"580 34 CURVE SMOOTH"
);
}
);
width = 750;
}
);
note = ellipsis;
unicode = 2026;
},
{
glyphname = perthousand;
lastChange = "2017-11-01 11:12:10 +0000";
layers = (
{
layerId = "7CDC14DA-6B60-4478-82C0-E8B54FD96B1C";
paths = (
{
closed = 1;
nodes = (
"332 656 OFFCURVE",
"272 724 OFFCURVE",
"184 724 CURVE SMOOTH",
"96 724 OFFCURVE",
"36 656 OFFCURVE",
"36 521 CURVE SMOOTH",
"36 385 OFFCURVE",
"97 316 OFFCURVE",
"184 316 CURVE SMOOTH",
"271 316 OFFCURVE",
"332 385 OFFCURVE",
"332 521 CURVE SMOOTH"
);
},
{
closed = 1;
nodes = (
"239 373 OFFCURVE",
"214 360 OFFCURVE",
"184 360 CURVE SMOOTH",
"124 360 OFFCURVE",
"82 409 OFFCURVE",
"82 521 CURVE SMOOTH",
"82 633 OFFCURVE",
"124 680 OFFCURVE",
"185 680 CURVE SMOOTH",
"245 680 OFFCURVE",
"287 633 OFFCURVE",
"287 521 CURVE SMOOTH",
"287 465 OFFCURVE",
"277 424 OFFCURVE",
"258 399 CURVE SMOOTH"
);
},
{
closed = 1;
nodes = (
"554 714 LINE",
"249 0 LINE",
"299 0 LINE",
"604 714 LINE"
);
},
{
closed = 1;
nodes = (
"809 331 OFFCURVE",
"749 399 OFFCURVE",
"661 399 CURVE SMOOTH",
"573 399 OFFCURVE",
"513 331 OFFCURVE",
"513 196 CURVE SMOOTH",
"513 60 OFFCURVE",
"574 -9 OFFCURVE",
"661 -9 CURVE SMOOTH",
"748 -9 OFFCURVE",
"809 60 OFFCURVE",
"809 196 CURVE SMOOTH"
);
},
{
closed = 1;
nodes = (
"716 48 OFFCURVE",
"691 35 OFFCURVE",
"661 35 CURVE SMOOTH",
"601 35 OFFCURVE",
"559 84 OFFCURVE",
"559 196 CURVE SMOOTH",
"559 308 OFFCURVE",
"601 355 OFFCURVE",
"662 355 CURVE SMOOTH",
"722 355 OFFCURVE",
"764 308 OFFCURVE",
"764 196 CURVE SMOOTH",
"764 140 OFFCURVE",
"754 99 OFFCURVE",
"735 74 CURVE SMOOTH"
);
},
{
closed = 1;
nodes = (
"1149 331 OFFCURVE",
"1089 399 OFFCURVE",
"1001 399 CURVE SMOOTH",
"913 399 OFFCURVE",
"853 331 OFFCURVE",
"853 196 CURVE SMOOTH",
"853 60 OFFCURVE",
"914 -9 OFFCURVE",
"1001 -9 CURVE SMOOTH",
"1088 -9 OFFCURVE",
"1149 60 OFFCURVE",
"1149 196 CURVE SMOOTH"
);
},
{
closed = 1;
nodes = (
"1056 48 OFFCURVE",
"1031 35 OFFCURVE",
"1001 35 CURVE SMOOTH",
"941 35 OFFCURVE",
"899 84 OFFCURVE",
"899 196 CURVE SMOOTH",
"899 308 OFFCURVE",
"941 355 OFFCURVE",
"1002 355 CURVE SMOOTH",
"1062 355 OFFCURVE",
"1104 308 OFFCURVE",
"1104 196 CURVE SMOOTH",
"1104 140 OFFCURVE",
"1094 99 OFFCURVE",
"1075 74 CURVE SMOOTH"
);
}
);
width = 1185;
}
);
note = perthousand;
unicode = 2030;
},
{
glyphname = guilsinglleft;
lastChange = "2017-11-01 11:12:10 +0000";
layers = (
{
layerId = "7CDC14DA-6B60-4478-82C0-E8B54FD96B1C";
paths = (
{
closed = 1;
nodes = (
"287 50 LINE",
"102 268 LINE",
"287 486 LINE",
"223 486 LINE",
"40 268 LINE",
"223 50 LINE"
);
}
);
width = 317;
}
);
note = guilsinglleft;
unicode = 2039;
},
{
glyphname = guilsinglright;
lastChange = "2017-11-01 11:12:10 +0000";
layers = (
{
layerId = "7CDC14DA-6B60-4478-82C0-E8B54FD96B1C";
paths = (
{
closed = 1;
nodes = (
"215 268 LINE",
"30 50 LINE",
"94 50 LINE",
"277 268 LINE",
"94 486 LINE",
"30 486 LINE"
);
}
);
width = 317;
}
);
note = guilsinglright;
unicode = 203A;
},
{
glyphname = fraction;
lastChange = "2017-11-01 11:12:10 +0000";
layers = (
{
layerId = "7CDC14DA-6B60-4478-82C0-E8B54FD96B1C";
paths = (
{
closed = 1;
nodes = (
"-88 0 LINE",
"370 742 LINE",
"320 742 LINE",
"-138 0 LINE"
);
}
);
width = 232;
}
);
note = fraction;
unicode = 2044;
},
{
glyphname = zerosuperior;
lastChange = "2017-11-01 11:12:10 +0000";
layers = (
{
layerId = "7CDC14DA-6B60-4478-82C0-E8B54FD96B1C";
paths = (
{
closed = 1;
nodes = (
"340 667 OFFCURVE",
"284 745 OFFCURVE",
"192 745 CURVE SMOOTH",
"100 745 OFFCURVE",
"44 667 OFFCURVE",
"44 519 CURVE SMOOTH",
"44 370 OFFCURVE",
"100 291 OFFCURVE",
"192 291 CURVE SMOOTH",
"284 291 OFFCURVE",
"340 370 OFFCURVE",
"340 519 CURVE SMOOTH"
);
},
{
closed = 1;
nodes = (
"295 394 OFFCURVE",
"256 335 OFFCURVE",
"192 335 CURVE SMOOTH",
"124 335 OFFCURVE",
"90 396 OFFCURVE",
"90 519 CURVE SMOOTH",
"90 640 OFFCURVE",
"124 701 OFFCURVE",
"193 701 CURVE SMOOTH",
"261 701 OFFCURVE",
"295 640 OFFCURVE",
"295 519 CURVE SMOOTH"
);
}
);
width = 383;
}
);
note = zerosuperior;
unicode = 2070;
},
{
glyphname = foursuperior;
lastChange = "2017-11-01 11:12:10 +0000";
layers = (
{
layerId = "7CDC14DA-6B60-4478-82C0-E8B54FD96B1C";
paths = (
{
closed = 1;
nodes = (
"295 739 LINE",
"259 739 LINE",
"32 435 LINE",
"32 402 LINE",
"252 402 LINE",
"252 297 LINE",
"295 297 LINE",
"295 402 LINE",
"359 402 LINE",
"359 444 LINE",
"295 444 LINE"
);
},
{
closed = 1;
nodes = (
"252 669 LINE",
"252 444 LINE",
"93 444 LINE",
"180 565 LINE"
);
}
);
width = 383;
}
);
note = foursuperior;
unicode = 2074;
},
{
glyphname = fivesuperior;
lastChange = "2017-11-01 11:12:10 +0000";
layers = (
{
layerId = "7CDC14DA-6B60-4478-82C0-E8B54FD96B1C";
paths = (
{
closed = 1;
nodes = (
"97 302 OFFCURVE",
"140 291 OFFCURVE",
"181 291 CURVE SMOOTH",
"277 291 OFFCURVE",
"338 355 OFFCURVE",
"338 438 CURVE SMOOTH",
"338 523 OFFCURVE",
"276 580 OFFCURVE",
"179 580 CURVE SMOOTH",
"158 580 OFFCURVE",
"136 577 OFFCURVE",
"115 572 CURVE",
"126 697 LINE",
"297 697 LINE",
"303 739 LINE",
"87 739 LINE",
"70 517 LINE",
"109 530 OFFCURVE",
"144 537 OFFCURVE",
"175 537 CURVE SMOOTH",
"247 537 OFFCURVE",
"291 498 OFFCURVE",
"291 439 CURVE SMOOTH",
"291 376 OFFCURVE",
"256 334 OFFCURVE",
"181 334 CURVE SMOOTH",
"143 334 OFFCURVE",
"103 346 OFFCURVE",
"62 371 CURVE",
"53 325 LINE"
);
}
);
width = 383;
}
);
note = fivesuperior;
unicode = 2075;
},
{
glyphname = sixsuperior;
lastChange = "2017-11-01 11:12:10 +0000";
layers = (
{
layerId = "7CDC14DA-6B60-4478-82C0-E8B54FD96B1C";
paths = (
{
closed = 1;
nodes = (
"293 739 OFFCURVE",
"264 745 OFFCURVE",
"236 745 CURVE SMOOTH",
"124 745 OFFCURVE",
"53 654 OFFCURVE",
"53 494 CURVE SMOOTH",
"53 428 OFFCURVE",
"65 379 OFFCURVE",
"88 346 CURVE",
"116 309 OFFCURVE",
"155 291 OFFCURVE",
"204 291 CURVE SMOOTH",
"285 291 OFFCURVE",
"345 355 OFFCURVE",
"345 436 CURVE SMOOTH",
"345 519 OFFCURVE",
"284 579 OFFCURVE",
"205 579 CURVE SMOOTH",
"158 579 OFFCURVE",
"123 558 OFFCURVE",
"99 517 CURVE",
"104 638 OFFCURVE",
"154 701 OFFCURVE",
"235 701 CURVE SMOOTH",
"260 701 OFFCURVE",
"287 694 OFFCURVE",
"317 681 CURVE",
"322 726 LINE"
);
},
{
closed = 1;
nodes = (
"102 494 OFFCURVE",
"142 534 OFFCURVE",
"201 534 CURVE SMOOTH",
"258 534 OFFCURVE",
"299 492 OFFCURVE",
"299 437 CURVE SMOOTH",
"299 380 OFFCURVE",
"262 334 OFFCURVE",
"203 334 CURVE SMOOTH",
"142 334 OFFCURVE",
"102 379 OFFCURVE",
"102 438 CURVE SMOOTH"
);
}
);
width = 383;
}
);
note = sixsuperior;
unicode = 2076;
},
{
glyphname = sevensuperior;
lastChange = "2017-11-01 11:12:10 +0000";
layers = (
{
layerId = "7CDC14DA-6B60-4478-82C0-E8B54FD96B1C";
paths = (
{
closed = 1;
nodes = (
"340 739 LINE",
"48 739 LINE",
"48 696 LINE",
"296 696 LINE",
"234 568 LINE",
"106 297 LINE",
"158 297 LINE",
"340 709 LINE"
);
}
);
width = 383;
}
);
note = sevensuperior;
unicode = 2077;
},
{
glyphname = eightsuperior;
lastChange = "2017-11-01 11:12:10 +0000";
layers = (
{
layerId = "7CDC14DA-6B60-4478-82C0-E8B54FD96B1C";
paths = (
{
closed = 1;
nodes = (
"50 341 OFFCURVE",
"106 290 OFFCURVE",
"193 290 CURVE SMOOTH",
"277 290 OFFCURVE",
"335 343 OFFCURVE",
"335 411 CURVE SMOOTH",
"335 460 OFFCURVE",
"307 497 OFFCURVE",
"251 524 CURVE SMOOTH",
"232 533 LINE",
"289 554 OFFCURVE",
"318 588 OFFCURVE",
"318 633 CURVE SMOOTH",
"318 697 OFFCURVE",
"264 745 OFFCURVE",
"191 745 CURVE SMOOTH",
"120 745 OFFCURVE",
"65 697 OFFCURVE",
"65 633 CURVE SMOOTH",
"65 590 OFFCURVE",
"81 559 OFFCURVE",
"136 530 CURVE",
"79 505 OFFCURVE",
"50 465 OFFCURVE",
"50 412 CURVE SMOOTH"
);
},
{
closed = 1;
nodes = (
"266 472 OFFCURVE",
"288 445 OFFCURVE",
"288 411 CURVE SMOOTH",
"288 368 OFFCURVE",
"249 334 OFFCURVE",
"193 334 CURVE SMOOTH",
"134 334 OFFCURVE",
"97 367 OFFCURVE",
"97 414 CURVE SMOOTH",
"97 459 OFFCURVE",
"123 491 OFFCURVE",
"175 512 CURVE",
"223 491 LINE SMOOTH"
);
},
{
closed = 1;
nodes = (
"110 672 OFFCURVE",
"142 701 OFFCURVE",
"191 701 CURVE SMOOTH",
"240 701 OFFCURVE",
"272 673 OFFCURVE",
"272 633 CURVE SMOOTH",
"272 600 OFFCURVE",
"246 573 OFFCURVE",
"193 552 CURVE",
"166 564 LINE SMOOTH",
"129 581 OFFCURVE",
"110 604 OFFCURVE",
"110 633 CURVE SMOOTH"
);
}
);
width = 383;
}
);
note = eightsuperior;
unicode = 2078;
},
{
glyphname = ninesuperior;
lastChange = "2017-11-01 11:12:10 +0000";
layers = (
{
layerId = "7CDC14DA-6B60-4478-82C0-E8B54FD96B1C";
paths = (
{
closed = 1;
nodes = (
"90 297 OFFCURVE",
"119 291 OFFCURVE",
"147 291 CURVE SMOOTH",
"259 291 OFFCURVE",
"330 382 OFFCURVE",
"330 542 CURVE SMOOTH",
"330 608 OFFCURVE",
"318 657 OFFCURVE",
"295 690 CURVE",
"267 727 OFFCURVE",
"228 745 OFFCURVE",
"179 745 CURVE SMOOTH",
"98 745 OFFCURVE",
"38 681 OFFCURVE",
"38 600 CURVE SMOOTH",
"38 517 OFFCURVE",
"101 457 OFFCURVE",
"178 457 CURVE SMOOTH",
"225 457 OFFCURVE",
"260 478 OFFCURVE",
"284 519 CURVE",
"279 398 OFFCURVE",
"231 335 OFFCURVE",
"148 335 CURVE SMOOTH",
"123 335 OFFCURVE",
"96 342 OFFCURVE",
"66 355 CURVE",
"61 310 LINE"
);
},
{
closed = 1;
nodes = (
"281 542 OFFCURVE",
"241 502 OFFCURVE",
"182 502 CURVE SMOOTH",
"125 502 OFFCURVE",
"84 544 OFFCURVE",
"84 599 CURVE SMOOTH",
"84 656 OFFCURVE",
"121 702 OFFCURVE",
"180 702 CURVE SMOOTH",
"241 702 OFFCURVE",
"281 657 OFFCURVE",
"281 598 CURVE SMOOTH"
);
}
);
width = 383;
}
);
note = ninesuperior;
unicode = 2079;
},
{
glyphname = parenleftsuperior;
lastChange = "2017-11-01 11:12:10 +0000";
layers = (
{
layerId = "7CDC14DA-6B60-4478-82C0-E8B54FD96B1C";
paths = (
{
closed = 1;
nodes = (
"94 604 OFFCURVE",
"128 673 OFFCURVE",
"197 756 CURVE",
"149 756 LINE",
"88 687 OFFCURVE",
"49 619 OFFCURVE",
"49 519 CURVE SMOOTH",
"49 435 OFFCURVE",
"82 356 OFFCURVE",
"149 283 CURVE",
"197 283 LINE",
"128 363 OFFCURVE",
"94 442 OFFCURVE",
"94 519 CURVE SMOOTH"
);
}
);
width = 209;
}
);
note = parenleftsuperior;
unicode = 207D;
},
{
glyphname = parenrightsuperior;
lastChange = "2017-11-01 11:12:10 +0000";
layers = (
{
layerId = "7CDC14DA-6B60-4478-82C0-E8B54FD96B1C";
paths = (
{
closed = 1;
nodes = (
"115 442 OFFCURVE",
"81 363 OFFCURVE",
"12 283 CURVE",
"60 283 LINE",
"123 355 OFFCURVE",
"160 418 OFFCURVE",
"160 519 CURVE SMOOTH",
"160 554 OFFCURVE",
"155 588 OFFCURVE",
"144 619 CURVE SMOOTH",
"122 682 OFFCURVE",
"103 707 OFFCURVE",
"60 756 CURVE",
"12 756 LINE",
"81 673 OFFCURVE",
"115 604 OFFCURVE",
"115 519 CURVE SMOOTH"
);
}
);
width = 209;
}
);
note = parenrightsuperior;
unicode = 207E;
},
{
glyphname = Euro;
lastChange = "2017-11-01 11:12:10 +0000";
layers = (
{
layerId = "7CDC14DA-6B60-4478-82C0-E8B54FD96B1C";
paths = (
{
closed = 1;
nodes = (
"124 407 LINE",
"123 384 OFFCURVE",
"122 367 OFFCURVE",
"122 356 CURVE SMOOTH",
"122 337 OFFCURVE",
"123 319 OFFCURVE",
"125 302 CURVE",
"20 302 LINE",
"20 260 LINE",
"131 260 LINE",
"168 92 OFFCURVE",
"303 -10 OFFCURVE",
"466 -10 CURVE SMOOTH",
"537 -10 OFFCURVE",
"598 0 OFFCURVE",
"647 21 CURVE",
"640 75 LINE",
"587 52 OFFCURVE",
"531 40 OFFCURVE",
"471 40 CURVE SMOOTH",
"332 40 OFFCURVE",
"222 120 OFFCURVE",
"187 260 CURVE",
"461 260 LINE",
"480 302 LINE",
"179 302 LINE",
"177 318 OFFCURVE",
"176 335 OFFCURVE",
"176 354 CURVE SMOOTH",
"176 378 OFFCURVE",
"177 396 OFFCURVE",
"178 407 CURVE",
"525 407 LINE",
"544 449 LINE",
"185 449 LINE",
"216 597 OFFCURVE",
"322 674 OFFCURVE",
"469 674 CURVE SMOOTH",
"527 674 OFFCURVE",
"581 663 OFFCURVE",
"631 642 CURVE",
"638 698 LINE",
"589 715 OFFCURVE",
"532 724 OFFCURVE",
"468 724 CURVE SMOOTH",
"295 724 OFFCURVE",
"164 620 OFFCURVE",
"131 449 CURVE",
"20 449 LINE",
"20 407 LINE"
);
}
);
width = 687;
}
);
note = Euro;
unicode = 20AC;
},
{
glyphname = trademark;
lastChange = "2017-11-01 11:12:10 +0000";
layers = (
{
layerId = "7CDC14DA-6B60-4478-82C0-E8B54FD96B1C";
paths = (
{
closed = 1;
nodes = (
"647 425 LINE",
"647 341 LINE",
"689 341 LINE",
"689 714 LINE",
"642 714 LINE",
"519 496 LINE",
"396 714 LINE",
"353 714 LINE",
"353 341 LINE",
"392 341 LINE",
"392 422 LINE",
"390 648 LINE",
"501 446 LINE",
"537 446 LINE",
"649 647 LINE"
);
},
{
closed = 1;
nodes = (
"274 714 LINE",
"26 714 LINE",
"26 676 LINE",
"128 676 LINE",
"128 341 LINE",
"172 341 LINE",
"172 676 LINE",
"274 676 LINE"
);
}
);
width = 749;
}
);
note = trademark;
unicode = 2122;
},
{
glyphname = Omega;
lastChange = "2017-11-01 11:12:10 +0000";
layers = (
{
layerId = "7CDC14DA-6B60-4478-82C0-E8B54FD96B1C";
paths = (
{
closed = 1;
nodes = (
"716 579 OFFCURVE",
"584 724 OFFCURVE",
"395 724 CURVE SMOOTH",
"207 724 OFFCURVE",
"75 579 OFFCURVE",
"75 374 CURVE SMOOTH",
"75 225 OFFCURVE",
"143 127 OFFCURVE",
"254 46 CURVE",
"97 48 LINE",
"51 48 LINE",
"51 0 LINE",
"304 0 LINE",
"304 48 LINE",
"187 148 OFFCURVE",
"129 234 OFFCURVE",
"129 373 CURVE SMOOTH",
"129 562 OFFCURVE",
"236 674 OFFCURVE",
"395 674 CURVE SMOOTH",
"555 674 OFFCURVE",
"662 562 OFFCURVE",
"662 373 CURVE SMOOTH",
"662 234 OFFCURVE",
"604 148 OFFCURVE",
"487 48 CURVE",
"487 0 LINE",
"740 0 LINE",
"740 48 LINE",
"694 48 LINE",
"537 46 LINE",
"648 127 OFFCURVE",
"716 225 OFFCURVE",
"716 374 CURVE SMOOTH"
);
}
);
width = 791;
}
);
note = Omega;
unicode = 2126;
},
{
glyphname = arrowleft;
lastChange = "2017-11-01 11:12:10 +0000";
layers = (
{
layerId = "7CDC14DA-6B60-4478-82C0-E8B54FD96B1C";
paths = (
{
closed = 1;
nodes = (
"1000 380 LINE",
"356 380 LINE",
"66 376 LINE",
"298 562 LINE",
"298 622 LINE",
"0 375 LINE",
"0 339 LINE",
"298 92 LINE",
"298 152 LINE",
"66 338 LINE",
"356 334 LINE",
"1000 334 LINE"
);
}
);
width = 1000;
}
);
note = arrowleft;
unicode = 2190;
},
{
glyphname = arrowright;
lastChange = "2017-11-01 11:12:10 +0000";
layers = (
{
layerId = "7CDC14DA-6B60-4478-82C0-E8B54FD96B1C";
paths = (
{
closed = 1;
nodes = (
"702 92 LINE",
"1000 339 LINE",
"1000 375 LINE",
"702 622 LINE",
"702 562 LINE",
"934 376 LINE",
"644 380 LINE",
"0 380 LINE",
"0 334 LINE",
"644 334 LINE",
"934 338 LINE",
"702 152 LINE"
);
}
);
width = 1000;
}
);
note = arrowright;
unicode = 2192;
},
{
glyphname = arrowboth;
lastChange = "2017-11-01 11:12:10 +0000";
layers = (
{
layerId = "7CDC14DA-6B60-4478-82C0-E8B54FD96B1C";
paths = (
{
closed = 1;
nodes = (
"1058 92 LINE",
"1356 339 LINE",
"1356 375 LINE",
"1058 622 LINE",
"1058 562 LINE",
"1290 376 LINE",
"1000 380 LINE",
"356 380 LINE",
"66 376 LINE",
"298 562 LINE",
"298 622 LINE",
"0 375 LINE",
"0 339 LINE",
"298 92 LINE",
"298 152 LINE",
"66 338 LINE",
"356 334 LINE",
"1000 334 LINE",
"1290 338 LINE",
"1058 152 LINE"
);
}
);
width = 1356;
}
);
note = arrowboth;
unicode = 2194;
},
{
glyphname = partialdiff;
lastChange = "2017-11-01 11:12:10 +0000";
layers = (
{
layerId = "7CDC14DA-6B60-4478-82C0-E8B54FD96B1C";
paths = (
{
closed = 1;
nodes = (
"511 516 OFFCURVE",
"502 563 OFFCURVE",
"485 603 CURVE SMOOTH",
"450 683 OFFCURVE",
"386 724 OFFCURVE",
"301 724 CURVE SMOOTH",
"254 724 OFFCURVE",
"215 715 OFFCURVE",
"184 698 CURVE",
"191 647 LINE",
"230 665 OFFCURVE",
"266 674 OFFCURVE",
"299 674 CURVE SMOOTH",
"405 674 OFFCURVE",
"458 603 OFFCURVE",
"458 461 CURVE SMOOTH",
"458 420 OFFCURVE",
"457 392 OFFCURVE",
"455 379 CURVE",
"438 456 OFFCURVE",
"373 495 OFFCURVE",
"300 495 CURVE SMOOTH",
"244 495 OFFCURVE",
"195 476 OFFCURVE",
"153 437 CURVE SMOOTH",
"89 380 OFFCURVE",
"47 289 OFFCURVE",
"47 190 CURVE SMOOTH",
"47 65 OFFCURVE",
"111 -11 OFFCURVE",
"214 -11 CURVE SMOOTH",
"367 -11 OFFCURVE",
"511 151 OFFCURVE",
"511 462 CURVE SMOOTH"
);
},
{
closed = 1;
nodes = (
"143 39 OFFCURVE",
"102 91 OFFCURVE",
"102 182 CURVE SMOOTH",
"102 325 OFFCURVE",
"188 447 OFFCURVE",
"305 447 CURVE SMOOTH",
"390 447 OFFCURVE",
"433 390 OFFCURVE",
"433 313 CURVE SMOOTH",
"433 276 OFFCURVE",
"425 238 OFFCURVE",
"409 201 CURVE SMOOTH",
"369 108 OFFCURVE",
"303 39 OFFCURVE",
"220 39 CURVE SMOOTH"
);
}
);
width = 564;
}
);
note = partialdiff;
unicode = 2202;
},
{
glyphname = Delta;
lastChange = "2017-11-01 11:12:10 +0000";
layers = (
{
layerId = "7CDC14DA-6B60-4478-82C0-E8B54FD96B1C";
paths = (
{
closed = 1;
nodes = (
"300 714 LINE",
"12 0 LINE",
"626 0 LINE",
"339 714 LINE"
);
},
{
closed = 1;
nodes = (
"86 48 LINE",
"230 415 LINE",
"320 640 LINE",
"409 414 LINE",
"550 48 LINE"
);
}
);
width = 638;
}
);
note = Delta;
unicode = 2206;
},
{
glyphname = product;
lastChange = "2017-11-01 11:12:10 +0000";
layers = (
{
layerId = "7CDC14DA-6B60-4478-82C0-E8B54FD96B1C";
paths = (
{
closed = 1;
nodes = (
"104 -220 LINE",
"154 -220 LINE",
"154 666 LINE",
"562 666 LINE",
"562 -220 LINE",
"612 -220 LINE",
"612 714 LINE",
"104 714 LINE"
);
}
);
width = 716;
}
);
note = product;
unicode = 220F;
},
{
glyphname = summation;
lastChange = "2017-11-01 11:12:10 +0000";
layers = (
{
layerId = "7CDC14DA-6B60-4478-82C0-E8B54FD96B1C";
paths = (
{
closed = 1;
nodes = (
"528 665 LINE",
"528 714 LINE",
"51 714 LINE",
"51 664 LINE",
"326 272 LINE",
"38 -169 LINE",
"38 -220 LINE",
"559 -220 LINE",
"559 -171 LINE",
"95 -171 LINE",
"387 275 LINE",
"108 665 LINE"
);
}
);
width = 571;
}
);
note = summation;
unicode = 2211;
},
{
glyphname = minus;
lastChange = "2017-11-01 11:12:10 +0000";
layers = (
{
layerId = "7CDC14DA-6B60-4478-82C0-E8B54FD96B1C";
paths = (
{
closed = 1;
nodes = (
"520 335 LINE",
"520 380 LINE",
"51 380 LINE",
"51 335 LINE"
);
}
);
width = 572;
}
);
note = minus;
unicode = 2212;
},
{
glyphname = radical;
lastChange = "2017-11-01 11:12:10 +0000";
layers = (
{
layerId = "7CDC14DA-6B60-4478-82C0-E8B54FD96B1C";
paths = (
{
closed = 1;
nodes = (
"225 61 LINE",
"93 443 LINE",
"46 443 LINE",
"203 0 LINE",
"252 0 LINE",
"539 828 LINE",
"493 828 LINE"
);
}
);
width = 549;
}
);
note = radical;
unicode = 221A;
},
{
glyphname = infinity;
lastChange = "2017-11-01 11:12:10 +0000";
layers = (
{
layerId = "7CDC14DA-6B60-4478-82C0-E8B54FD96B1C";
paths = (
{
closed = 1;
nodes = (
"635 430 OFFCURVE",
"577 493 OFFCURVE",
"501 493 CURVE SMOOTH",
"440 493 OFFCURVE",
"398 464 OFFCURVE",
"354 387 CURVE",
"309 467 OFFCURVE",
"267 495 OFFCURVE",
"204 495 CURVE SMOOTH",
"125 495 OFFCURVE",
"68 429 OFFCURVE",
"68 352 CURVE SMOOTH",
"68 269 OFFCURVE",
"127 209 OFFCURVE",
"204 209 CURVE SMOOTH",
"263 209 OFFCURVE",
"304 240 OFFCURVE",
"348 316 CURVE",
"393 235 OFFCURVE",
"434 207 OFFCURVE",
"501 207 CURVE SMOOTH",
"577 207 OFFCURVE",
"635 274 OFFCURVE",
"635 350 CURVE SMOOTH"
);
},
{
closed = 1;
nodes = (
"151 251 OFFCURVE",
"112 295 OFFCURVE",
"112 351 CURVE SMOOTH",
"112 408 OFFCURVE",
"151 454 OFFCURVE",
"207 454 CURVE SMOOTH",
"256 454 OFFCURVE",
"290 425 OFFCURVE",
"330 352 CURVE",
"293 285 OFFCURVE",
"253 251 OFFCURVE",
"208 251 CURVE SMOOTH"
);
},
{
closed = 1;
nodes = (
"552 452 OFFCURVE",
"590 406 OFFCURVE",
"590 350 CURVE SMOOTH",
"590 293 OFFCURVE",
"551 249 OFFCURVE",
"496 249 CURVE SMOOTH",
"447 249 OFFCURVE",
"409 278 OFFCURVE",
"372 349 CURVE",
"407 418 OFFCURVE",
"448 452 OFFCURVE",
"495 452 CURVE SMOOTH"
);
}
);
width = 705;
}
);
note = infinity;
unicode = 221E;
},
{
glyphname = integral;
lastChange = "2017-11-01 11:12:10 +0000";
layers = (
{
layerId = "7CDC14DA-6B60-4478-82C0-E8B54FD96B1C";
paths = (
{
closed = 1;
nodes = (
"160 660 OFFCURVE",
"191 692 OFFCURVE",
"253 692 CURVE SMOOTH",
"268 692 OFFCURVE",
"282 691 OFFCURVE",
"293 688 CURVE",
"293 737 LINE",
"280 740 OFFCURVE",
"266 742 OFFCURVE",
"250 742 CURVE SMOOTH",
"159 742 OFFCURVE",
"110 693 OFFCURVE",
"110 597 CURVE SMOOTH",
"110 -74 LINE SMOOTH",
"110 -139 OFFCURVE",
"79 -171 OFFCURVE",
"17 -171 CURVE SMOOTH",
"2 -171 OFFCURVE",
"-12 -170 OFFCURVE",
"-23 -167 CURVE",
"-23 -216 LINE",
"-10 -219 OFFCURVE",
"4 -221 OFFCURVE",
"20 -221 CURVE SMOOTH",
"111 -221 OFFCURVE",
"160 -172 OFFCURVE",
"160 -76 CURVE SMOOTH",
"160 595 LINE SMOOTH"
);
}
);
width = 292;
}
);
note = integral;
unicode = 222B;
},
{
glyphname = approxequal;
lastChange = "2017-11-01 11:12:10 +0000";
layers = (
{
layerId = "7CDC14DA-6B60-4478-82C0-E8B54FD96B1C";
paths = (
{
closed = 1;
nodes = (
"133 504 OFFCURVE",
"99 494 OFFCURVE",
"62 473 CURVE",
"62 422 LINE",
"95 447 OFFCURVE",
"130 459 OFFCURVE",
"166 459 CURVE SMOOTH",
"197 459 OFFCURVE",
"232 450 OFFCURVE",
"273 433 CURVE SMOOTH",
"327 411 OFFCURVE",
"371 400 OFFCURVE",
"405 400 CURVE SMOOTH",
"438 400 OFFCURVE",
"472 410 OFFCURVE",
"509 431 CURVE",
"509 482 LINE",
"476 457 OFFCURVE",
"441 445 OFFCURVE",
"405 445 CURVE SMOOTH",
"378 445 OFFCURVE",
"341 454 OFFCURVE",
"296 472 CURVE SMOOTH",
"245 493 OFFCURVE",
"201 504 OFFCURVE",
"166 504 CURVE SMOOTH"
);
},
{
closed = 1;
nodes = (
"133 306 OFFCURVE",
"99 296 OFFCURVE",
"62 275 CURVE",
"62 224 LINE",
"95 249 OFFCURVE",
"130 261 OFFCURVE",
"166 261 CURVE SMOOTH",
"197 261 OFFCURVE",
"232 252 OFFCURVE",
"273 235 CURVE SMOOTH",
"327 213 OFFCURVE",
"371 202 OFFCURVE",
"405 202 CURVE SMOOTH",
"438 202 OFFCURVE",
"472 212 OFFCURVE",
"509 233 CURVE",
"509 284 LINE",
"476 259 OFFCURVE",
"441 247 OFFCURVE",
"405 247 CURVE SMOOTH",
"377 247 OFFCURVE",
"341 256 OFFCURVE",
"296 274 CURVE SMOOTH",
"245 295 OFFCURVE",
"201 306 OFFCURVE",
"166 306 CURVE SMOOTH"
);
}
);
width = 572;
}
);
note = approxequal;
unicode = 2248;
},
{
glyphname = notequal;
lastChange = "2017-11-01 11:12:10 +0000";
layers = (
{
layerId = "7CDC14DA-6B60-4478-82C0-E8B54FD96B1C";
paths = (
{
closed = 1;
nodes = (
"213 235 LINE",
"153 88 LINE",
"192 72 LINE",
"258 235 LINE",
"520 235 LINE",
"520 280 LINE",
"276 280 LINE",
"338 435 LINE",
"520 435 LINE",
"520 480 LINE",
"356 480 LINE",
"415 626 LINE",
"377 642 LINE",
"311 480 LINE",
"51 480 LINE",
"51 435 LINE",
"293 435 LINE",
"231 280 LINE",
"51 280 LINE",
"51 235 LINE"
);
}
);
width = 572;
}
);
note = notequal;
unicode = 2260;
},
{
glyphname = lessequal;
lastChange = "2017-11-01 11:12:10 +0000";
layers = (
{
layerId = "7CDC14DA-6B60-4478-82C0-E8B54FD96B1C";
paths = (
{
closed = 1;
nodes = (
"520 81 LINE",
"520 126 LINE",
"51 126 LINE",
"51 81 LINE"
);
},
{
closed = 1;
nodes = (
"520 228 LINE",
"114 399 LINE",
"520 569 LINE",
"520 624 LINE",
"51 416 LINE",
"51 380 LINE",
"520 173 LINE"
);
}
);
width = 572;
}
);
note = lessequal;
unicode = 2264;
},
{
glyphname = greaterequal;
lastChange = "2017-11-01 11:12:10 +0000";
layers = (
{
layerId = "7CDC14DA-6B60-4478-82C0-E8B54FD96B1C";
paths = (
{
closed = 1;
nodes = (
"51 569 LINE",
"457 399 LINE",
"51 228 LINE",
"51 173 LINE",
"520 380 LINE",
"520 416 LINE",
"51 624 LINE"
);
},
{
closed = 1;
nodes = (
"520 81 LINE",
"520 126 LINE",
"51 126 LINE",
"51 81 LINE"
);
}
);
width = 572;
}
);
note = greaterequal;
unicode = 2265;
},
{
glyphname = lozenge;
lastChange = "2017-11-01 11:12:10 +0000";
layers = (
{
layerId = "7CDC14DA-6B60-4478-82C0-E8B54FD96B1C";
paths = (
{
closed = 1;
nodes = (
"517 356 LINE",
"295 714 LINE",
"262 714 LINE",
"40 357 LINE",
"262 0 LINE",
"295 0 LINE"
);
},
{
closed = 1;
nodes = (
"278 657 LINE",
"460 357 LINE",
"278 56 LINE",
"97 357 LINE"
);
}
);
width = 557;
}
);
note = lozenge;
unicode = 25CA;
},
{
glyphname = commaaccent;
lastChange = "2017-11-01 11:12:10 +0000";
layers = (
{
layerId = "7CDC14DA-6B60-4478-82C0-E8B54FD96B1C";
paths = (
{
closed = 1;
nodes = (
"318 -50 LINE",
"254 -50 LINE",
"180 -230 LINE",
"218 -230 LINE"
);
}
);
width = 500;
}
);
note = commaaccent;
unicode = F6C3;
},
{
glyphname = ff;
lastChange = "2017-11-01 11:12:10 +0000";
layers = (
{
layerId = "7CDC14DA-6B60-4478-82C0-E8B54FD96B1C";
paths = (
{
closed = 1;
nodes = (
"180 586 LINE SMOOTH",
"180 670 OFFCURVE",
"219 712 OFFCURVE",
"297 712 CURVE SMOOTH",
"321 712 OFFCURVE",
"345 709 OFFCURVE",
"369 702 CURVE",
"374 752 LINE",
"349 759 OFFCURVE",
"323 762 OFFCURVE",
"297 762 CURVE SMOOTH",
"192 762 OFFCURVE",
"130 697 OFFCURVE",
"130 586 CURVE SMOOTH",
"130 552 LINE",
"15 552 LINE",
"15 507 LINE",
"130 507 LINE",
"130 0 LINE",
"180 0 LINE",
"180 507 LINE",
"464 507 LINE",
"464 0 LINE",
"514 0 LINE",
"514 507 LINE",
"694 507 LINE",
"701 552 LINE",
"514 552 LINE",
"514 586 LINE SMOOTH",
"514 670 OFFCURVE",
"553 712 OFFCURVE",
"631 712 CURVE SMOOTH",
"655 712 OFFCURVE",
"679 709 OFFCURVE",
"703 702 CURVE",
"708 752 LINE",
"683 759 OFFCURVE",
"657 762 OFFCURVE",
"631 762 CURVE SMOOTH",
"526 762 OFFCURVE",
"464 697 OFFCURVE",
"464 586 CURVE SMOOTH",
"464 552 LINE",
"180 552 LINE"
);
}
);
width = 688;
}
);
note = ff;
unicode = FB00;
},
{
glyphname = fi;
lastChange = "2017-11-01 11:12:10 +0000";
layers = (
{
layerId = "7CDC14DA-6B60-4478-82C0-E8B54FD96B1C";
paths = (
{
closed = 1;
nodes = (
"15 507 LINE",
"130 507 LINE",
"130 0 LINE",
"180 0 LINE",
"180 507 LINE",
"360 507 LINE",
"367 552 LINE",
"180 552 LINE",
"180 586 LINE SMOOTH",
"180 670 OFFCURVE",
"219 712 OFFCURVE",
"297 712 CURVE SMOOTH",
"321 712 OFFCURVE",
"345 709 OFFCURVE",
"369 702 CURVE",
"374 752 LINE",
"349 759 OFFCURVE",
"323 762 OFFCURVE",
"297 762 CURVE SMOOTH",
"192 762 OFFCURVE",
"130 697 OFFCURVE",
"130 586 CURVE SMOOTH",
"130 552 LINE",
"15 552 LINE"
);
},
{
closed = 1;
nodes = (
"449 552 LINE",
"449 0 LINE",
"499 0 LINE",
"499 552 LINE"
);
},
{
closed = 1;
nodes = (
"434 679 OFFCURVE",
"452 664 OFFCURVE",
"473 664 CURVE SMOOTH",
"494 664 OFFCURVE",
"512 679 OFFCURVE",
"512 703 CURVE SMOOTH",
"512 728 OFFCURVE",
"494 742 OFFCURVE",
"473 742 CURVE SMOOTH",
"450 742 OFFCURVE",
"434 728 OFFCURVE",
"434 703 CURVE SMOOTH"
);
}
);
width = 594;
}
);
note = fi;
unicode = FB01;
},
{
glyphname = fl;
lastChange = "2017-11-01 11:12:10 +0000";
layers = (
{
layerId = "7CDC14DA-6B60-4478-82C0-E8B54FD96B1C";
paths = (
{
closed = 1;
nodes = (
"15 507 LINE",
"130 507 LINE",
"130 0 LINE",
"180 0 LINE",
"180 507 LINE",
"360 507 LINE",
"367 552 LINE",
"180 552 LINE",
"180 586 LINE SMOOTH",
"180 670 OFFCURVE",
"219 712 OFFCURVE",
"297 712 CURVE SMOOTH",
"321 712 OFFCURVE",
"345 709 OFFCURVE",
"369 702 CURVE",
"374 752 LINE",
"349 759 OFFCURVE",
"323 762 OFFCURVE",
"297 762 CURVE SMOOTH",
"192 762 OFFCURVE",
"130 697 OFFCURVE",
"130 586 CURVE SMOOTH",
"130 552 LINE",
"15 552 LINE"
);
},
{
closed = 1;
nodes = (
"449 752 LINE",
"449 0 LINE",
"498 0 LINE",
"498 752 LINE"
);
}
);
width = 593;
}
);
note = fl;
unicode = FB02;
},
{
glyphname = ffi;
lastChange = "2017-11-01 11:12:10 +0000";
layers = (
{
layerId = "7CDC14DA-6B60-4478-82C0-E8B54FD96B1C";
paths = (
{
closed = 1;
nodes = (
"180 586 LINE SMOOTH",
"180 670 OFFCURVE",
"219 712 OFFCURVE",
"297 712 CURVE SMOOTH",
"321 712 OFFCURVE",
"345 709 OFFCURVE",
"369 702 CURVE",
"374 752 LINE",
"349 759 OFFCURVE",
"323 762 OFFCURVE",
"297 762 CURVE SMOOTH",
"192 762 OFFCURVE",
"130 697 OFFCURVE",
"130 586 CURVE SMOOTH",
"130 552 LINE",
"15 552 LINE",
"15 507 LINE",
"130 507 LINE",
"130 0 LINE",
"180 0 LINE",
"180 507 LINE",
"464 507 LINE",
"464 0 LINE",
"514 0 LINE",
"514 507 LINE",
"694 507 LINE",
"701 552 LINE",
"514 552 LINE",
"514 586 LINE SMOOTH",
"514 670 OFFCURVE",
"553 712 OFFCURVE",
"631 712 CURVE SMOOTH",
"655 712 OFFCURVE",
"679 709 OFFCURVE",
"703 702 CURVE",
"708 752 LINE",
"683 759 OFFCURVE",
"657 762 OFFCURVE",
"631 762 CURVE SMOOTH",
"526 762 OFFCURVE",
"464 697 OFFCURVE",
"464 586 CURVE SMOOTH",
"464 552 LINE",
"180 552 LINE"
);
},
{
closed = 1;
nodes = (
"783 552 LINE",
"783 0 LINE",
"833 0 LINE",
"833 552 LINE"
);
},
{
closed = 1;
nodes = (
"766 679 OFFCURVE",
"784 664 OFFCURVE",
"805 664 CURVE SMOOTH",
"826 664 OFFCURVE",
"844 679 OFFCURVE",
"844 703 CURVE SMOOTH",
"844 728 OFFCURVE",
"826 742 OFFCURVE",
"805 742 CURVE SMOOTH",
"782 742 OFFCURVE",
"766 728 OFFCURVE",
"766 703 CURVE SMOOTH"
);
}
);
width = 926;
}
);
note = ffi;
unicode = FB03;
},
{
glyphname = ffl;
lastChange = "2017-11-01 11:12:10 +0000";
layers = (
{
layerId = "7CDC14DA-6B60-4478-82C0-E8B54FD96B1C";
paths = (
{
closed = 1;
nodes = (
"180 586 LINE SMOOTH",
"180 670 OFFCURVE",
"219 712 OFFCURVE",
"297 712 CURVE SMOOTH",
"321 712 OFFCURVE",
"345 709 OFFCURVE",
"369 702 CURVE",
"374 752 LINE",
"349 759 OFFCURVE",
"323 762 OFFCURVE",
"297 762 CURVE SMOOTH",
"192 762 OFFCURVE",
"130 697 OFFCURVE",
"130 586 CURVE SMOOTH",
"130 552 LINE",
"15 552 LINE",
"15 507 LINE",
"130 507 LINE",
"130 0 LINE",
"180 0 LINE",
"180 507 LINE",
"464 507 LINE",
"464 0 LINE",
"514 0 LINE",
"514 507 LINE",
"694 507 LINE",
"701 552 LINE",
"514 552 LINE",
"514 586 LINE SMOOTH",
"514 670 OFFCURVE",
"553 712 OFFCURVE",
"631 712 CURVE SMOOTH",
"655 712 OFFCURVE",
"679 709 OFFCURVE",
"703 702 CURVE",
"708 752 LINE",
"683 759 OFFCURVE",
"657 762 OFFCURVE",
"631 762 CURVE SMOOTH",
"526 762 OFFCURVE",
"464 697 OFFCURVE",
"464 586 CURVE SMOOTH",
"464 552 LINE",
"180 552 LINE"
);
},
{
closed = 1;
nodes = (
"783 752 LINE",
"783 0 LINE",
"832 0 LINE",
"832 752 LINE"
);
}
);
width = 927;
}
);
note = ffl;
unicode = FB04;
},
